<?xml version="1.0" encoding="UTF-8"?>
<svg version="1.1" xmlns="http://www.w3.org/2000/svg" width="509" height="216">
<path d="M0 0 C167.97 0 335.94 0 509 0 C509 71.28 509 142.56 509 216 C341.03 216 173.06 216 0 216 C0 144.72 0 73.44 0 0 Z " fill="#FDFDFD" transform="translate(0,0)"/>
<path d="M0 0 C0.99 0.66 1.98 1.32 3 2 C3.40843923 4.71203652 3.13336867 7.2437142 3 10 C1.68 10.66 0.36 11.32 -1 12 C-1.33 18.93 -1.66 25.86 -2 33 C-0.68 33 0.64 33 2 33 C2.41572266 31.30230469 2.41572266 31.30230469 2.83984375 29.5703125 C3.20560488 28.08851098 3.57149711 26.60674182 3.9375 25.125 C4.21110352 24.00544922 4.21110352 24.00544922 4.49023438 22.86328125 C5.88671875 17.2265625 5.88671875 17.2265625 7 15 C7.66 15 8.32 15 9 15 C8.55110117 18.6660071 7.97794242 22.07525528 6.9375 25.625 C6.10072596 28.63738655 5.81257606 30.90750499 6 34 C6.99 34 7.98 34 9 34 C10.31855095 31.75335738 11.62993972 29.50302694 12.9375 27.25 C13.49727539 26.29867187 13.49727539 26.29867187 14.06835938 25.328125 C15.84344613 22.25770466 17.40766938 19.51177063 18 16 C17.505 15.01 17.505 15.01 17 14 C16.55051936 7.81964117 16.55051936 7.81964117 18.0625 5.0625 C21.17587459 3.35516555 23.51929175 3.57991452 27 4 C29.9375 5.625 29.9375 5.625 32 8 C32.625 10.9375 32.625 10.9375 32 14 C29.875 16.8125 29.875 16.8125 27 19 C26.05125 19.05671875 25.1025 19.1134375 24.125 19.171875 C20.07096686 20.24619378 19.31466189 21.81476172 17.2734375 25.32226562 C16.89445312 26.02029297 16.51546875 26.71832031 16.125 27.4375 C15.7228125 28.13166016 15.320625 28.82582031 14.90625 29.54101562 C12.74348568 33.04930096 12.74348568 33.04930096 12 37 C13.32 37.66 14.64 38.32 16 39 C16.33 38.01 16.66 37.02 17 36 C19.4375 33.3125 19.4375 33.3125 22 31 C22.66 31 23.32 31 24 31 C24.2165625 30.45859375 24.433125 29.9171875 24.65625 29.359375 C26.46499997 26.18354656 28.91723799 23.79271919 31.5 21.25 C32.24830078 20.49009766 32.24830078 20.49009766 33.01171875 19.71484375 C36.74658861 16 36.74658861 16 39 16 C37.65169797 20.0738396 35.96381487 22.34328494 32.83203125 25.25 C32.02185547 26.0234375 31.21167969 26.796875 30.37695312 27.59375 C28.66107577 29.20377353 26.93966207 30.8079161 25.21289062 32.40625 C24.00342773 33.56640625 24.00342773 33.56640625 22.76953125 34.75 C22.02292236 35.44609375 21.27631348 36.1421875 20.50708008 36.859375 C18.71683598 38.92889174 18.71683598 38.92889174 19.16308594 41.66894531 C19.82754976 44.06651409 19.82754976 44.06651409 21.62109375 45.546875 C25.40848621 46.26828309 27.96122624 44.19513951 31.0625 42.25 C31.68705078 41.87617187 32.31160156 41.50234375 32.95507812 41.1171875 C35.68226981 39.47563349 38.35149743 37.76566838 41 36 C41.99 36 42.98 36 44 36 C44 36.66 44 37.32 44 38 C41.63125244 39.59704238 39.27677797 41.0649879 36.8125 42.5 C36.13896484 42.90347656 35.46542969 43.30695313 34.77148438 43.72265625 C31.26584798 45.79525689 27.85037702 47.62433132 24 49 C24 50.32 24 51.64 24 53 C24.62567871 52.84853516 25.25135742 52.69707031 25.89599609 52.54101562 C28.7217708 51.8583345 31.5483688 51.17912568 34.375 50.5 C35.35984375 50.26152344 36.3446875 50.02304688 37.359375 49.77734375 C38.30039062 49.55175781 39.24140625 49.32617188 40.2109375 49.09375 C41.51490479 48.77954102 41.51490479 48.77954102 42.84521484 48.45898438 C45 48 45 48 47 48 C47 48.99 47 49.98 47 51 C44.62734939 51.67617524 42.25244645 52.34108226 39.875 53 C39.20984375 53.19078125 38.5446875 53.3815625 37.859375 53.578125 C33.8013795 54.69208455 30.20314026 55.20950232 26 55 C26 56.98 26 58.96 26 61 C32.6 61 39.2 61 46 61 C46.66 59.68 47.32 58.36 48 57 C49 56 49 56 51.875 55.75 C55 56 55 56 56.875 57.125 C58.52854531 59.88090884 58.39365568 61.85075452 58 65 C56.875 66.875 56.875 66.875 55 68 C52 68.4375 52 68.4375 49 68 C48.53940186 67.34354492 48.07880371 66.68708984 47.60424805 66.01074219 C46.1825925 63.81195343 46.1825925 63.81195343 43.82348633 63.45410156 C43.00130615 63.4331543 42.17912598 63.41220703 41.33203125 63.390625 C39.99301758 63.34228516 39.99301758 63.34228516 38.62695312 63.29296875 C37.69818359 63.27878906 36.76941406 63.26460937 35.8125 63.25 C34.40194336 63.20552734 34.40194336 63.20552734 32.96289062 63.16015625 C30.64184084 63.08946438 28.32179465 63.03676835 26 63 C26 64.65 26 66.3 26 68 C26.92941406 68.19335938 27.85882813 68.38671875 28.81640625 68.5859375 C41.09490334 71.17223199 41.09490334 71.17223199 47 73 C47 73.66 47 74.32 47 75 C38.76557056 74.67580986 31.70210288 72.88996879 24 70 C25.35519416 75.56131528 28.97804646 77.51965999 33.5625 80.375 C34.24119141 80.83777344 34.91988281 81.30054688 35.61914062 81.77734375 C40.37420578 84.78007104 43.4554021 85.40530964 48.97998047 84.24707031 C51 84 51 84 54.5625 85.375 C57.29322911 88.31578519 57.35691155 88.92730856 57.375 92.75 C57.2788797 94.16891872 57.16301505 95.58720294 57 97 C53.14340563 99.1059035 50.4299783 99.55374729 46 99 C43.625 96.875 43.625 96.875 42 94 C41.96261719 93.0615625 41.92523438 92.123125 41.88671875 91.15625 C40.54243246 86.37130145 37.33676989 85.02816419 33.1875 82.625 C32.46240234 82.17511719 31.73730469 81.72523438 30.99023438 81.26171875 C27.21430359 78.98856005 25.56511461 78 21 78 C19.07845307 79.67316312 19.07845307 79.67316312 18 82 C18.61758505 86.69458391 21.84737223 89.13437565 25.125 92.25 C26.31033011 93.40577399 27.49393434 94.56332071 28.67578125 95.72265625 C29.2476416 96.28227051 29.81950195 96.84188477 30.40869141 97.41845703 C33.43924947 100.43041701 36.49511696 103.52959841 39 107 C39 107.66 39 108.32 39 109 C36.07981131 107.68111554 34.01101183 106.25903529 31.7578125 103.98828125 C31.16613281 103.39466797 30.57445312 102.80105469 29.96484375 102.18945312 C29.35769531 101.57005859 28.75054687 100.95066406 28.125 100.3125 C27.52558594 99.71244141 26.92617188 99.11238281 26.30859375 98.49414062 C22.77397047 94.92501451 19.44376413 91.25560747 16.25732422 87.37182617 C15.02559171 85.86396035 15.02559171 85.86396035 13 85 C12.67566073 89.7875296 13.43381552 92.45687155 15.875 96.5625 C17.88403619 99.98368482 19.61362913 103.2783345 21 107 C21.886875 106.9175 22.77375 106.835 23.6875 106.75 C27.79836847 107.06025422 29.26513033 107.94338095 32 111 C32.5625 114 32.5625 114 32 117 C29.93751175 119.93507943 28.45720755 120.84435488 25.0625 122 C22 122 22 122 19.125 120.4375 C17 118 17 118 16.625 115.125 C17 112 17 112 17.78515625 109.32421875 C18.09328352 104.55664957 16.19507852 101.70970245 13.8125 97.6875 C13.41224609 96.95982422 13.01199219 96.23214844 12.59960938 95.48242188 C10.54214764 91.47487928 10.54214764 91.47487928 6.8503418 89.28833008 C6.239729 89.19318115 5.62911621 89.09803223 5 89 C5.15146484 89.56509277 5.30292969 90.13018555 5.45898438 90.71240234 C6.14188476 93.26592448 6.82098664 95.82044164 7.5 98.375 C7.85771484 99.70917969 7.85771484 99.70917969 8.22265625 101.0703125 C8.44824219 101.92109375 8.67382812 102.771875 8.90625 103.6484375 C9.11572266 104.43395996 9.32519531 105.21948242 9.54101562 106.02880859 C10 108 10 108 10 110 C9.01 110 8.02 110 7 110 C6.72285156 109.00097656 6.44570313 108.00195312 6.16015625 106.97265625 C5.79444451 105.66922209 5.42854962 104.36583931 5.0625 103.0625 C4.88009766 102.40314453 4.69769531 101.74378906 4.50976562 101.06445312 C3.77403899 97.76178827 3.77403899 97.76178827 2 95 C1.95936168 93.33382885 1.957279 91.66611905 2 90 C0.68 90 -0.64 90 -2 90 C-2 97.59 -2 105.18 -2 113 C-0.02 113.99 -0.02 113.99 2 115 C2.33 115.33 2.66 115.66 3 116 C2.75 119.4375 2.75 119.4375 2 123 C-1.47042703 125.31361802 -2.91834173 125.51020728 -7 125 C-9.35210784 122.88310295 -9.91810953 121.55958485 -10.375 118.4375 C-10 116 -10 116 -8.625 114.1875 C-7 113 -7 113 -5 113 C-5 105.41 -5 97.82 -5 90 C-6.32 90 -7.64 90 -9 90 C-9.10957031 90.68964844 -9.21914062 91.37929687 -9.33203125 92.08984375 C-10.37883269 98.29405716 -11.81465677 104.09957328 -14 110 C-14.66 110 -15.32 110 -16 110 C-15.5003731 102.50559651 -13.56235522 96.04349737 -11 89 C-12.3303125 88.814375 -12.3303125 88.814375 -13.6875 88.625 C-16.70387502 88.05587264 -19.20326054 87.23385564 -22 86 C-22.52207031 86.59425781 -23.04414063 87.18851562 -23.58203125 87.80078125 C-28.79844544 93.67495695 -34.19700624 99.25929499 -39.8125 104.75 C-42.0258858 106.79940827 -42.0258858 106.79940827 -43 109 C-43.99 109 -44.98 109 -46 109 C-42.66693808 101.62785812 -36.01987445 95.6393925 -30.1015625 90.28125 C-29.44929688 89.6728125 -28.79703125 89.064375 -28.125 88.4375 C-27.20074219 87.60025391 -27.20074219 87.60025391 -26.2578125 86.74609375 C-24.77006545 85.08202158 -24.77006545 85.08202158 -25.1796875 82.97265625 C-26.03322295 80.74140539 -26.03322295 80.74140539 -28 78 C-32.8861146 78.58709129 -36.56988277 80.69263891 -40.75 83.125 C-41.43449219 83.49109375 -42.11898437 83.8571875 -42.82421875 84.234375 C-44.77444807 85.36975603 -46.39963717 86.40660496 -48 88 C-48.95068824 91.5718097 -48.95068824 91.5718097 -49 95 C-50.625 97.4375 -50.625 97.4375 -53 99 C-56.5 99.5625 -56.5 99.5625 -60 99 C-62.69500656 96.58140437 -63.80636871 94.99236035 -64.5 91.4375 C-64 89 -64 89 -62.6875 86.6875 C-59.53289019 84.70669849 -58.82369425 85.00419563 -55.25 85.375 C-47.60459652 85.76813306 -42.34997419 81.32379442 -36.30859375 77.1875 C-33 75 -33 75 -31 75 C-31.33 74.01 -31.66 73.02 -32 72 C-36.50824152 72.39655828 -40.87182091 72.88440219 -45.25 74.0625 C-48.39273486 74.84818372 -50.80017026 75.19998936 -54 75 C-54 74.34 -54 73.68 -54 73 C-51.44013121 72.15774 -48.87760985 71.32601449 -46.3125 70.5 C-45.2306543 70.14228516 -45.2306543 70.14228516 -44.12695312 69.77734375 C-40.30592343 68.55601006 -37.06557944 67.67924423 -33 68 C-33 66.35 -33 64.7 -33 63 C-39.6 63 -46.2 63 -53 63 C-53.66 64.32 -54.32 65.64 -55 67 C-56 68 -56 68 -58.875 68.25 C-62 68 -62 68 -63.875 66.875 C-65.52854531 64.11909116 -65.39365568 62.14924548 -65 59 C-63.875 57.125 -63.875 57.125 -62 56 C-58.71501168 55.58937646 -56.84154581 55.3828664 -54.125 57.375 C-53 59 -53 59 -53 61 C-46.4 61 -39.8 61 -33 61 C-33 59.35 -33 57.7 -33 56 C-33.67804688 55.89042969 -34.35609375 55.78085938 -35.0546875 55.66796875 C-41.5459015 54.56212481 -47.73956137 53.03701908 -54 51 C-54 50.34 -54 49.68 -54 49 C-46.23216563 49.79263616 -38.6370361 51.41889487 -31 53 C-31.37253068 50.58522561 -31.59887611 49.33746274 -33.50292969 47.7355957 C-34.13618164 47.38585693 -34.76943359 47.03611816 -35.421875 46.67578125 C-36.11796875 46.28712891 -36.8140625 45.89847656 -37.53125 45.49804688 C-38.2634375 45.10681641 -38.995625 44.71558594 -39.75 44.3125 C-40.46671875 43.90966797 -41.1834375 43.50683594 -41.921875 43.09179688 C-47.06639954 40.26892817 -51.19366 38.7571871 -57.125 39.1875 C-61 39 -61 39 -63 37.375 C-64.28292178 34.32806078 -64.40995912 32.27967299 -64 29 C-63 26.625 -63 26.625 -61 25 C-56.6108678 24.44264988 -54.28918405 24.17359997 -50.5625 26.5625 C-49 29 -49 29 -48.92578125 32.31640625 C-47.90653287 36.37189665 -47.6006676 36.70160279 -44.2890625 38.8359375 C-42.74810036 39.70703122 -41.19258763 40.55278492 -39.625 41.375 C-38.84382813 41.81199219 -38.06265625 42.24898437 -37.2578125 42.69921875 C-34.19023542 44.395841 -31.33289015 45.88903662 -28 47 C-26.23537317 43.91190305 -26 42.76687864 -26 39 C-27.85630571 36.63852387 -27.85630571 36.63852387 -30.375 34.33984375 C-31.27734375 33.46392578 -32.1796875 32.58800781 -33.109375 31.68554688 C-34.06328125 30.77869141 -35.0171875 29.87183594 -36 28.9375 C-37.88163928 27.14104304 -39.75699524 25.33797408 -41.625 23.52734375 C-42.46289062 22.73062256 -43.30078125 21.93390137 -44.1640625 21.11303711 C-46 19 -46 19 -46 16 C-37.98106452 19.35504887 -31.90456263 27.91964769 -26.375 34.40625 C-25.30150314 35.65053045 -24.16203041 36.83796959 -23 38 C-20.89179203 37.6814823 -20.89179203 37.6814823 -19 37 C-19 35.68 -19 34.36 -19 33 C-19.66 33 -20.32 33 -21 33 C-21.98163422 31.06374902 -22.96022454 29.12595461 -23.9375 27.1875 C-24.48277344 26.10855469 -25.02804688 25.02960938 -25.58984375 23.91796875 C-27 21 -27 21 -28 18 C-29.0725 18.103125 -30.145 18.20625 -31.25 18.3125 C-35 18 -35 18 -37.5 15.9375 C-39.44931249 12.12009638 -39.15426305 10.07839612 -38 6 C-34.28986601 3.52657734 -32.38939738 3.61496514 -28 4 C-25.5625 5.0625 -25.5625 5.0625 -24 7 C-23.68879469 10.3610174 -23.66159938 13.03530568 -24.78515625 16.23828125 C-25.11925302 20.5329433 -22.98675442 23.26020764 -20.75 26.8125 C-20.34136719 27.50537109 -19.93273437 28.19824219 -19.51171875 28.91210938 C-18.19093654 31.13187766 -18.19093654 31.13187766 -16 34 C-15.01 34 -14.02 34 -13 34 C-13.40697299 30.0659278 -13.78780308 26.62410858 -15.0625 22.875 C-16.07753088 19.76223864 -16.154871 17.2522911 -16 14 C-15.34 14 -14.68 14 -14 14 C-13.16142312 16.60258324 -12.32896656 19.20685647 -11.5 21.8125 C-11.26152344 22.55048828 -11.02304688 23.28847656 -10.77734375 24.04882812 C-9.80059864 27.13255196 -9 29.74495809 -9 33 C-7.68 33 -6.36 33 -5 33 C-5.05192203 29.58209801 -5.14700599 26.16671438 -5.25 22.75 C-5.26417969 21.78191406 -5.27835938 20.81382813 -5.29296875 19.81640625 C-5.33917148 14.22366515 -5.33917148 14.22366515 -8.0546875 9.55859375 C-8.69664062 9.04425781 -9.33859375 8.52992187 -10 8 C-9.875 4.3125 -9.875 4.3125 -9 1 C-5.98131566 -0.50934217 -3.32702771 -0.17510672 0 0 Z " fill="#0E2F48" transform="translate(256,51)"/>
<path d="M0 0 C0.99 0.66 1.98 1.32 3 2 C3.40843923 4.71203652 3.13336867 7.2437142 3 10 C1.68 10.66 0.36 11.32 -1 12 C-1.33 18.93 -1.66 25.86 -2 33 C-0.68 33 0.64 33 2 33 C2.41572266 31.30230469 2.41572266 31.30230469 2.83984375 29.5703125 C3.20560488 28.08851098 3.57149711 26.60674182 3.9375 25.125 C4.21110352 24.00544922 4.21110352 24.00544922 4.49023438 22.86328125 C5.88671875 17.2265625 5.88671875 17.2265625 7 15 C7.66 15 8.32 15 9 15 C8.55110117 18.6660071 7.97794242 22.07525528 6.9375 25.625 C6.10072596 28.63738655 5.81257606 30.90750499 6 34 C6.99 34 7.98 34 9 34 C10.31855095 31.75335738 11.62993972 29.50302694 12.9375 27.25 C13.49727539 26.29867187 13.49727539 26.29867187 14.06835938 25.328125 C15.84344613 22.25770466 17.40766938 19.51177063 18 16 C17.505 15.01 17.505 15.01 17 14 C16.55051936 7.81964117 16.55051936 7.81964117 18.0625 5.0625 C21.17587459 3.35516555 23.51929175 3.57991452 27 4 C29.9375 5.625 29.9375 5.625 32 8 C32.625 10.9375 32.625 10.9375 32 14 C29.875 16.8125 29.875 16.8125 27 19 C26.05125 19.05671875 25.1025 19.1134375 24.125 19.171875 C20.07096686 20.24619378 19.31466189 21.81476172 17.2734375 25.32226562 C16.89445312 26.02029297 16.51546875 26.71832031 16.125 27.4375 C15.7228125 28.13166016 15.320625 28.82582031 14.90625 29.54101562 C12.74348568 33.04930096 12.74348568 33.04930096 12 37 C13.32 37.66 14.64 38.32 16 39 C16.33 38.01 16.66 37.02 17 36 C19.4375 33.3125 19.4375 33.3125 22 31 C22.66 31 23.32 31 24 31 C24.2165625 30.45859375 24.433125 29.9171875 24.65625 29.359375 C26.46499997 26.18354656 28.91723799 23.79271919 31.5 21.25 C32.24830078 20.49009766 32.24830078 20.49009766 33.01171875 19.71484375 C36.74658861 16 36.74658861 16 39 16 C37.67075439 19.98081818 36.09053665 22.21501881 33.0078125 25.0390625 C32.22019531 25.78542969 31.43257813 26.53179687 30.62109375 27.30078125 C28.97288197 28.83550114 27.31674081 30.36175443 25.65234375 31.87890625 C19.89985187 37.36864157 17.05156262 42.3125147 15 50 C14.34 49.34 13.68 48.68 13 48 C10.93125966 47.3574765 10.93125966 47.3574765 9 47 C9 47.99 9 48.98 9 50 C8.01 50 7.02 50 6 50 C5.505 50.99 5.505 50.99 5 52 C4.01979625 53.0194119 3.02196992 54.02246356 2 55 C2.495 55.53625 2.99 56.0725 3.5 56.625 C5.44280469 59.70110743 5.52224493 61.41889189 5 65 C3.5 67.375 3.5 67.375 1 69 C-4.89290457 69.86944494 -7.9721808 68.9397621 -12.75 65.484375 C-14 64 -14 64 -14 60 C-14.66 60 -15.32 60 -16 60 C-16 57.69 -16 55.38 -16 53 C-15.01 52.67 -14.02 52.34 -13 52 C-13.66 52 -14.32 52 -15 52 C-17.33333333 52 -19.66666667 52 -22 52 C-22.495 50.02 -22.495 50.02 -23 48 C-23.66 48 -24.32 48 -25 48 C-25.495 48.99 -25.495 48.99 -26 50 C-26 49.34 -26 48.68 -26 48 C-26.82371094 48.25523438 -27.64742187 48.51046875 -28.49609375 48.7734375 C-33.3831608 49.08943515 -36.01359961 47.16548652 -40.0625 44.625 C-45.86521554 41.06901833 -50.14312928 38.68097212 -57.125 39.1875 C-61 39 -61 39 -63 37.375 C-64.28292178 34.32806078 -64.40995912 32.27967299 -64 29 C-63 26.625 -63 26.625 -61 25 C-56.6108678 24.44264988 -54.28918405 24.17359997 -50.5625 26.5625 C-49 29 -49 29 -48.92578125 32.31640625 C-47.90653287 36.37189665 -47.6006676 36.70160279 -44.2890625 38.8359375 C-42.74810036 39.70703122 -41.19258763 40.55278492 -39.625 41.375 C-38.84382813 41.81199219 -38.06265625 42.24898437 -37.2578125 42.69921875 C-34.19023542 44.395841 -31.33289015 45.88903662 -28 47 C-26.23537317 43.91190305 -26 42.76687864 -26 39 C-27.85630571 36.63852387 -27.85630571 36.63852387 -30.375 34.33984375 C-31.27734375 33.46392578 -32.1796875 32.58800781 -33.109375 31.68554688 C-34.06328125 30.77869141 -35.0171875 29.87183594 -36 28.9375 C-37.88163928 27.14104304 -39.75699524 25.33797408 -41.625 23.52734375 C-42.46289062 22.73062256 -43.30078125 21.93390137 -44.1640625 21.11303711 C-46 19 -46 19 -46 16 C-37.98106452 19.35504887 -31.90456263 27.91964769 -26.375 34.40625 C-25.30150314 35.65053045 -24.16203041 36.83796959 -23 38 C-20.89179203 37.6814823 -20.89179203 37.6814823 -19 37 C-19 35.68 -19 34.36 -19 33 C-19.66 33 -20.32 33 -21 33 C-21.98163422 31.06374902 -22.96022454 29.12595461 -23.9375 27.1875 C-24.48277344 26.10855469 -25.02804688 25.02960938 -25.58984375 23.91796875 C-27 21 -27 21 -28 18 C-29.0725 18.103125 -30.145 18.20625 -31.25 18.3125 C-35 18 -35 18 -37.5 15.9375 C-39.44931249 12.12009638 -39.15426305 10.07839612 -38 6 C-34.28986601 3.52657734 -32.38939738 3.61496514 -28 4 C-25.5625 5.0625 -25.5625 5.0625 -24 7 C-23.68879469 10.3610174 -23.66159938 13.03530568 -24.78515625 16.23828125 C-25.11925302 20.5329433 -22.98675442 23.26020764 -20.75 26.8125 C-20.34136719 27.50537109 -19.93273437 28.19824219 -19.51171875 28.91210938 C-18.19093654 31.13187766 -18.19093654 31.13187766 -16 34 C-15.01 34 -14.02 34 -13 34 C-13.40697299 30.0659278 -13.78780308 26.62410858 -15.0625 22.875 C-16.07753088 19.76223864 -16.154871 17.2522911 -16 14 C-15.34 14 -14.68 14 -14 14 C-13.16142312 16.60258324 -12.32896656 19.20685647 -11.5 21.8125 C-11.26152344 22.55048828 -11.02304688 23.28847656 -10.77734375 24.04882812 C-9.80059864 27.13255196 -9 29.74495809 -9 33 C-7.68 33 -6.36 33 -5 33 C-5.05192203 29.58209801 -5.14700599 26.16671438 -5.25 22.75 C-5.26417969 21.78191406 -5.27835938 20.81382813 -5.29296875 19.81640625 C-5.33917148 14.22366515 -5.33917148 14.22366515 -8.0546875 9.55859375 C-8.69664062 9.04425781 -9.33859375 8.52992187 -10 8 C-9.875 4.3125 -9.875 4.3125 -9 1 C-5.98131566 -0.50934217 -3.32702771 -0.17510672 0 0 Z " fill="#0D2D46" transform="translate(256,51)"/>
<path d="M0 0 C0.66 0.99 1.32 1.98 2 3 C1.67 3.99 1.34 4.98 1 6 C-0.65 6 -2.3 6 -4 6 C-4 6.66 -4 7.32 -4 8 C-1.36 8 1.28 8 4 8 C3.67 8.99 3.34 9.98 3 11 C4.32 11 5.64 11 7 11 C7 14.33333333 7 17.66666667 7 21 C7.3121764 23.64632287 7.3121764 23.64632287 8 26 C8.66 26.33 9.32 26.66 10 27 C10 27.66 10 28.32 10 29 C7.99112198 30.60979288 5.87947218 32.01931663 3.75 33.46484375 C3.1725 33.97144531 2.595 34.47804687 2 35 C2 35.99 2 36.98 2 38 C0.5459375 38.680625 0.5459375 38.680625 -0.9375 39.375 C-4.07079582 40.65786221 -4.07079582 40.65786221 -5 43 C-14.57293998 43.21867122 -23.57667045 42.99888809 -33 41 C-31.515 40.505 -31.515 40.505 -30 40 C-30 39.01 -30 38.02 -30 37 C-31.98 36.67 -33.96 36.34 -36 36 C-34.79618552 33.50638429 -33.54571278 31.31856917 -32 29 C-32.99 28.67 -33.98 28.34 -35 28 C-34.01 27.67 -33.02 27.34 -32 27 C-32 26.34 -32 25.68 -32 25 C-32.99 24.67 -33.98 24.34 -35 24 C-35 21.69 -35 19.38 -35 17 C-35.66 16.67 -36.32 16.34 -37 16 C-36.01 15.67 -35.02 15.34 -34 15 C-34 13.68 -34 12.36 -34 11 C-34.66 10.67 -35.32 10.34 -36 10 C-36 9.34 -36 8.68 -36 8 C-37.98 8 -39.96 8 -42 8 C-42 7.34 -42 6.68 -42 6 C-40.783125 5.87625 -39.56625 5.7525 -38.3125 5.625 C-34.93520941 5.21108694 -32.10243305 4.45426549 -29 3 C-29 2.34 -29 1.68 -29 1 C-22.49322198 -5.25651733 -7.04923426 -5.14403581 0 0 Z " fill="#113851" transform="translate(408,87)"/>
<path d="M0 0 C17 0 17 0 23 4 C25.40897521 6.97106942 25.96512871 8.6745346 26.375 12.5 C25.97823679 16.20312332 24.96740794 17.92057888 23 21 C23.7243984 24.08899227 23.7243984 24.08899227 26.0625 25.625 C28.60602999 28.74287547 28.57205293 30.81299543 28.390625 34.74609375 C27.78593817 38.23513678 26.30978059 40.36941655 24 43 C20 45 20 45 0 45 C0 30.15 0 15.3 0 0 Z " fill="#23465D" transform="translate(19,85)"/>
<path d="M0 0 C2.64 0 5.28 0 8 0 C8.495 1.98 8.495 1.98 9 4 C13.64586892 3.51515724 13.64586892 3.51515724 18 2 C18.495 3.485 18.495 3.485 19 5 C17.68 5 16.36 5 15 5 C15.185625 5.598125 15.37125 6.19625 15.5625 6.8125 C16 9 16 9 15 12 C15.66 12 16.32 12 17 12 C16.67 13.98 16.34 15.96 16 18 C14.68 18.33 13.36 18.66 12 19 C11.505 21.475 11.505 21.475 11 24 C12.65 24 14.3 24 16 24 C15.44271087 27.34373475 14.64826111 30.03312999 13 33 C13.99 33.33 14.98 33.66 16 34 C16 36 16 38 16 40 C13.69 39.34 11.38 38.68 9 38 C8.47792969 38.59425781 7.95585937 39.18851563 7.41796875 39.80078125 C2.20155456 45.67495695 -3.19700624 51.25929499 -8.8125 56.75 C-11.0258858 58.79940827 -11.0258858 58.79940827 -12 61 C-12.99 61 -13.98 61 -15 61 C-11.66693808 53.62785812 -5.01987445 47.6393925 0.8984375 42.28125 C1.55070312 41.6728125 2.20296875 41.064375 2.875 40.4375 C3.49117187 39.87933594 4.10734375 39.32117188 4.7421875 38.74609375 C6.22993455 37.08202158 6.22993455 37.08202158 5.8203125 34.97265625 C4.96677705 32.74140539 4.96677705 32.74140539 3 30 C-1.8861146 30.58709129 -5.56988277 32.69263891 -9.75 35.125 C-10.43449219 35.49109375 -11.11898437 35.8571875 -11.82421875 36.234375 C-13.77444807 37.36975603 -15.39963717 38.40660496 -17 40 C-17.95068824 43.5718097 -17.95068824 43.5718097 -18 47 C-19.625 49.4375 -19.625 49.4375 -22 51 C-25.5 51.5625 -25.5 51.5625 -29 51 C-31.69500656 48.58140437 -32.80636871 46.99236035 -33.5 43.4375 C-33 41 -33 41 -31.6875 38.6875 C-28.53289019 36.70669849 -27.82369425 37.00419563 -24.25 37.375 C-16.60459652 37.76813306 -11.34997419 33.32379442 -5.30859375 29.1875 C-2 27 -2 27 0 27 C-0.495 25.515 -0.495 25.515 -1 24 C-5.50824152 24.39655828 -9.87182091 24.88440219 -14.25 26.0625 C-17.39273486 26.84818372 -19.80017026 27.19998936 -23 27 C-23 26.34 -23 25.68 -23 25 C-20.44013121 24.15774 -17.87760985 23.32601449 -15.3125 22.5 C-14.59126953 22.26152344 -13.87003906 22.02304688 -13.12695312 21.77734375 C-9.30592343 20.55601006 -6.06557944 19.67924423 -2 20 C-2 18.35 -2 16.7 -2 15 C-8.6 15 -15.2 15 -22 15 C-22.66 16.32 -23.32 17.64 -24 19 C-25 20 -25 20 -27.875 20.25 C-31 20 -31 20 -32.875 18.875 C-34.52854531 16.11909116 -34.39365568 14.14924548 -34 11 C-32.875 9.125 -32.875 9.125 -31 8 C-27.71501168 7.58937646 -25.84154581 7.3828664 -23.125 9.375 C-22 11 -22 11 -22 13 C-15.4 13 -8.8 13 -2 13 C-2 11.35 -2 9.7 -2 8 C-2.67804688 7.89042969 -3.35609375 7.78085938 -4.0546875 7.66796875 C-10.5459015 6.56212481 -16.73956137 5.03701908 -23 3 C-23 2.34 -23 1.68 -23 1 C-15.23216563 1.79263616 -7.6370361 3.41889487 0 5 C0 3.35 0 1.7 0 0 Z " fill="#0C2F4A" transform="translate(225,99)"/>
<path d="M0 0 C4.2402794 1.57047385 6.701402 3.10903991 9 7 C9.39237205 11.03881633 9.1326831 14.9310516 9 19 C2.73 19 -3.54 19 -10 19 C-9.34 21.64 -8.68 24.28 -8 27 C-3.34755986 29.32622007 3.0737581 27.98524838 8 27 C8.33 28.65 8.66 30.3 9 32 C2.65935797 34.11354734 -2.72516642 35.13359624 -9.25 32.875 C-12.92356313 30.37029787 -15.44478481 27.50881982 -16.43212891 23.04736328 C-16.64533068 20.88939492 -16.70884958 18.79330171 -16.6875 16.625 C-16.68097412 15.87420166 -16.67444824 15.12340332 -16.66772461 14.34985352 C-16.47169916 9.83340748 -15.90329163 6.61731613 -13.0625 2.9375 C-8.99728776 -0.73271186 -5.24200634 -1.13624545 0 0 Z " fill="#07314B" transform="translate(156,97)"/>
<path d="M0 0 C2.28567642 1.55481858 3.48855608 2.69715028 4.85546875 5.1171875 C5.44282698 9.61848738 5.1820307 13.54532024 4.85546875 18.1171875 C-1.41453125 18.1171875 -7.68453125 18.1171875 -14.14453125 18.1171875 C-13.48453125 21.0871875 -12.82453125 24.0571875 -12.14453125 27.1171875 C-6.69759811 27.21406971 -1.50548458 27.24580925 3.85546875 26.1171875 C4.18546875 27.4371875 4.51546875 28.7571875 4.85546875 30.1171875 C-1.56595991 32.82094694 -6.44418104 34.35063757 -13.33203125 32.0546875 C-16.951002 29.56161876 -18.91976799 27.29660563 -20.14453125 23.1171875 C-20.91416168 15.6803092 -20.98507792 9.68729975 -17.14453125 3.1171875 C-12.96881592 -1.92846853 -5.85278904 -2.40934485 0 0 Z " fill="#143A51" transform="translate(495.14453125,97.8828125)"/>
<path d="M0 0 C7.59 0 15.18 0 23 0 C23 1.65 23 3.3 23 5 C17.06 5 11.12 5 5 5 C5 9.95 5 14.9 5 20 C10.28 20 15.56 20 21 20 C21 21.65 21 23.3 21 25 C15.72 25 10.44 25 5 25 C5 31.27 5 37.54 5 44 C3.35 44 1.7 44 0 44 C0 29.48 0 14.96 0 0 Z " fill="#0F364D" transform="translate(345,86)"/>
<path d="M0 0 C1.65 0 3.3 0 5 0 C5.01981934 0.74685059 5.03963867 1.49370117 5.06005859 2.26318359 C5.15508211 5.63415605 5.26485259 9.00448929 5.375 12.375 C5.4059375 13.550625 5.436875 14.72625 5.46875 15.9375 C5.50742188 17.05898437 5.54609375 18.18046875 5.5859375 19.3359375 C5.6173584 20.37282715 5.6487793 21.4097168 5.68115234 22.47802734 C5.75954472 25.16809835 5.75954472 25.16809835 8 27 C12.38556882 26.70762875 15.50276902 25.65760426 19 23 C19.77675842 20.5088538 19.77675842 20.5088538 19.70703125 17.67578125 C19.75053711 16.13374023 19.75053711 16.13374023 19.79492188 14.56054688 C19.80072266 13.48869141 19.80652344 12.41683594 19.8125 11.3125 C19.83763672 10.22904297 19.86277344 9.14558594 19.88867188 8.02929688 C19.94763215 5.35250017 19.98384663 2.67734185 20 0 C21.65 0 23.3 0 25 0 C25 10.56 25 21.12 25 32 C23.35 32 21.7 32 20 32 C19.67 31.01 19.34 30.02 19 29 C18.38125 29.495 17.7625 29.99 17.125 30.5 C12.89128994 32.53218083 8.60457142 33.13804042 4 32 C1.35466905 29.34008585 0.10424215 27.69926307 -0.45410156 23.95385742 C-0.4331543 22.84888916 -0.41220703 21.7439209 -0.390625 20.60546875 C-0.37773438 19.40341797 -0.36484375 18.20136719 -0.3515625 16.96289062 C-0.31804687 15.71701172 -0.28453125 14.47113281 -0.25 13.1875 C-0.23195313 11.92228516 -0.21390625 10.65707031 -0.1953125 9.35351562 C-0.14823916 6.23490665 -0.08249094 3.11784027 0 0 Z " fill="#153A52" transform="translate(80,98)"/>
<path d="M0 0 C1.65 0 3.3 0 5 0 C5 2.97 5 5.94 5 9 C8.3 9 11.6 9 15 9 C15 10.32 15 11.64 15 13 C11.7 13 8.4 13 5 13 C5.33 20.26 5.66 27.52 6 35 C9.3 35.33 12.6 35.66 16 36 C16 37.32 16 38.64 16 40 C11.29317654 42.50049996 8.07149649 42.0633783 3 41 C0.35634921 39.12386073 0.04758719 38.14276157 -1 35 C-1.08143855 33.37280518 -1.1075302 31.74248281 -1.09765625 30.11328125 C-1.09443359 29.17548828 -1.09121094 28.23769531 -1.08789062 27.27148438 C-1.07951172 26.29501953 -1.07113281 25.31855469 -1.0625 24.3125 C-1.05798828 23.32443359 -1.05347656 22.33636719 -1.04882812 21.31835938 C-1.03704303 18.87884526 -1.02059011 16.43945311 -1 14 C-2.65 14 -4.3 14 -6 14 C-6 12.35 -6 10.7 -6 9 C-4.02 9 -2.04 9 0 9 C0 6.03 0 3.06 0 0 Z " fill="#11384F" transform="translate(118,89)"/>
<path d="M0 0 C0.66 0.66 1.32 1.32 2 2 C1.625 4.125 1.625 4.125 1 6 C0.15695312 5.97679688 -0.68609375 5.95359375 -1.5546875 5.9296875 C-2.65039062 5.91164063 -3.74609375 5.89359375 -4.875 5.875 C-5.96554687 5.85179688 -7.05609375 5.82859375 -8.1796875 5.8046875 C-11.1371051 5.69939466 -11.1371051 5.69939466 -13 8 C-13.1721221 10.8706466 -13.23223075 13.63252342 -13.1875 16.5 C-13.1865332 17.67755859 -13.1865332 17.67755859 -13.18554688 18.87890625 C-13.25225279 23.07342326 -13.25225279 23.07342326 -12 27 C-7.38 27 -2.76 27 2 27 C2 28.65 2 30.3 2 32 C-3.34464467 34.39102525 -8.40666127 34.63139046 -14 33 C-16.79492502 30.8212289 -18.41683426 28.16633149 -20 25 C-21.54126833 8.71159602 -21.54126833 8.71159602 -17.3125 2.9375 C-12.49073904 -1.49732953 -6.14237825 -1.04807013 0 0 Z " fill="#1C4157" transform="translate(466,97)"/>
<path d="M0 0 C3.28693214 1.37005581 5.23997399 2.88397911 7 6 C7.58735823 10.50129988 7.32656195 14.42813274 7 19 C0.73 19 -5.54 19 -12 19 C-12.33 19.99 -12.66 20.98 -13 22 C-13 20.68 -13 19.36 -13 18 C-6.73 18 -0.46 18 6 18 C5.67 14.37 5.34 10.74 5 7 C4.01 9.64 3.02 12.28 2 15 C-2.95 15 -7.9 15 -13 15 C-13 12.36 -13 9.72 -13 7 C-13.99 7 -14.98 7 -16 7 C-15.0195412 4.41515408 -14.06077857 3.05156969 -11.9375 1.25 C-7.8116347 -0.50568736 -4.40897367 -0.87127929 0 0 Z " fill="#355569" transform="translate(493,97)"/>
<path d="M0 0 C0 1.65 0 3.3 0 5 C-0.54269531 5.19335938 -1.08539063 5.38671875 -1.64453125 5.5859375 C-2.71767578 5.97652344 -2.71767578 5.97652344 -3.8125 6.375 C-4.52019531 6.63023438 -5.22789062 6.88546875 -5.95703125 7.1484375 C-8.24773359 8.0265769 -8.24773359 8.0265769 -11 10 C-11.50904384 12.4157113 -11.50904384 12.4157113 -11.51171875 15.2265625 C-11.54716797 16.2578125 -11.58261719 17.2890625 -11.61914062 18.3515625 C-11.64169922 19.43179688 -11.66425781 20.51203125 -11.6875 21.625 C-11.72166016 22.71296875 -11.75582031 23.8009375 -11.79101562 24.921875 C-11.87368334 27.61448063 -11.94277087 30.30675291 -12 33 C-13.98 33 -15.96 33 -18 33 C-18 22.44 -18 11.88 -18 1 C-16.02 1 -14.04 1 -12 1 C-11.67 1.99 -11.34 2.98 -11 4 C-9.9275 3.34 -8.855 2.68 -7.75 2 C-4.69019314 0.11704193 -3.8664136 0 0 0 Z " fill="#4A6679" transform="translate(441,97)"/>
<path d="M0 0 C3.0625 1 3.0625 1 5 2 C4.67 2.99 4.34 3.98 4 5 C3.34 5 2.68 5 2 5 C2.33 5.53625 2.66 6.0725 3 6.625 C4 9 4 9 4 15 C-0.95 15 -5.9 15 -11 15 C-11.66 13.02 -12.32 11.04 -13 9 C-14.99616554 10.99616554 -14.40983427 14.81701963 -14.5625 17.5625 C-14.60568359 18.27341797 -14.64886719 18.98433594 -14.69335938 19.71679688 C-14.79971777 21.47761912 -14.90038846 23.2387832 -15 25 C-15.33 25 -15.66 25 -16 25 C-17.20312946 8.19438211 -17.20312946 8.19438211 -13.0625 2.9375 C-9.00776715 -0.73890078 -5.23508469 -1.03723173 0 0 Z " fill="#2B4C61" transform="translate(156,97)"/>
<path d="M0 0 C0 1.65 0 3.3 0 5 C-1.4562545 5.67119549 -2.91507867 6.33681807 -4.375 7 C-5.59316406 7.556875 -5.59316406 7.556875 -6.8359375 8.125 C-9 9 -9 9 -11 9 C-11 16.92 -11 24.84 -11 33 C-12.98 33 -14.96 33 -17 33 C-17 22.44 -17 11.88 -17 1 C-15.35 1 -13.7 1 -12 1 C-12 2.32 -12 3.64 -12 5 C-11.55269531 4.6390625 -11.10539062 4.278125 -10.64453125 3.90625 C-4.6397188 -0.7029877 -4.6397188 -0.7029877 0 0 Z " fill="#26495F" transform="translate(73,97)"/>
<path d="M0 0 C0.66 0.33 1.32 0.66 2 1 C2.103125 1.825 2.20625 2.65 2.3125 3.5 C3.10893264 7.55456618 4.72289775 10.33982795 6.7890625 13.875 C8.10075511 16.17680897 9.11428963 18.50390715 10 21 C10.886875 20.9175 11.77375 20.835 12.6875 20.75 C16.79836847 21.06025422 18.26513033 21.94338095 21 25 C21.5625 28 21.5625 28 21 31 C18.93751175 33.93507943 17.45720755 34.84435488 14.0625 36 C11 36 11 36 8.125 34.4375 C6 32 6 32 5.625 29.125 C6 26 6 26 6.79296875 23.3203125 C7.09057974 18.54730603 5.11929269 15.74325957 2.6875 11.75 C2.27048828 11.03070313 1.85347656 10.31140625 1.42382812 9.5703125 C-0.23261004 6.74881974 -1.67675791 4.32324209 -4 2 C-2.125 0.9375 -2.125 0.9375 0 0 Z " fill="#DF5250" transform="translate(267,137)"/>
<path d="M0 0 C2.9375 1.625 2.9375 1.625 5 4 C5.625 6.9375 5.625 6.9375 5 10 C2.875 12.8125 2.875 12.8125 0 15 C-0.9384375 15.03351563 -1.876875 15.06703125 -2.84375 15.1015625 C-7.12664034 16.32070208 -7.95621529 18.3710207 -10.08203125 22.13085938 C-10.50871094 22.93330078 -10.93539063 23.73574219 -11.375 24.5625 C-11.82488281 25.36880859 -12.27476562 26.17511719 -12.73828125 27.00585938 C-13.84437949 28.99448281 -14.93027475 30.99164639 -16 33 C-16.99 32.34 -17.98 31.68 -19 31 C-18.26652344 29.90300781 -17.53304688 28.80601563 -16.77734375 27.67578125 C-15.82995066 26.22186116 -14.88337869 24.76740578 -13.9375 23.3125 C-13.45216797 22.59126953 -12.96683594 21.87003906 -12.46679688 21.12695312 C-9.68161167 17.00033649 -9.68161167 17.00033649 -9.17578125 12.20703125 C-9.44777344 11.47871094 -9.71976562 10.75039062 -10 10 C-10.42882883 3.78198198 -10.42882883 3.78198198 -8.9375 1.0625 C-5.82412541 -0.64483445 -3.48070825 -0.42008548 0 0 Z " fill="#DE5452" transform="translate(283,55)"/>
<path d="M0 0 C1.32 0.66 2.64 1.32 4 2 C3.54786133 2.42345703 3.09572266 2.84691406 2.62988281 3.28320312 C0.04801635 6.0027485 -1.49515851 9.20967222 -3.25 12.5 C-3.62640625 13.17675781 -4.0028125 13.85351562 -4.390625 14.55078125 C-5.34270892 16.32543767 -6.17976453 18.1606841 -7 20 C-6.67 20.99 -6.34 21.98 -6 23 C-5.50727488 27.43452605 -5.4821601 29.30461499 -8.1875 32.9375 C-11 35 -11 35 -13.5 35.625 C-17.20864386 34.69783903 -18.70985284 33.0099077 -21 30 C-21.625 26.9375 -21.625 26.9375 -21 24 C-18.26513033 20.94338095 -16.79836847 20.06025422 -12.6875 19.75 C-11.3571875 19.87375 -11.3571875 19.87375 -10 20 C-9.731875 19.28972656 -9.46375 18.57945312 -9.1875 17.84765625 C-7.96530872 14.91680941 -6.54330351 12.21158806 -5 9.4375 C-3.26972766 6.31868411 -1.56799633 3.20383866 0 0 Z " fill="#FBA03F" transform="translate(238,138)"/>
<path d="M0 0 C2.4375 1.0625 2.4375 1.0625 4 3 C4.31169926 6.36635206 4.36783695 9.01967984 3.171875 12.20703125 C2.8940994 16.72088474 5.48298088 19.66494768 7.9375 23.3125 C8.41896484 24.05306641 8.90042969 24.79363281 9.39648438 25.55664062 C10.58445519 27.37976415 11.79051088 29.19108041 13 31 C12.01 31.66 11.02 32.32 10 33 C9.67 31.68 9.34 30.36 9 29 C8.34 29 7.68 29 7 29 C6.01836578 27.06374902 5.03977546 25.12595461 4.0625 23.1875 C3.51722656 22.10855469 2.97195312 21.02960938 2.41015625 19.91796875 C1 17 1 17 0 14 C-1.0725 14.103125 -2.145 14.20625 -3.25 14.3125 C-7 14 -7 14 -9.5 11.9375 C-11.44931249 8.12009638 -11.15426305 6.07839612 -10 2 C-6.28986601 -0.47342266 -4.38939738 -0.38503486 0 0 Z " fill="#FAA140" transform="translate(228,55)"/>
<path d="M0 0 C1.8975 -0.061875 3.795 -0.12375 5.75 -0.1875 C7.35101563 -0.23970703 7.35101563 -0.23970703 8.984375 -0.29296875 C12.35305522 0.03429941 13.68961273 0.55176146 16 3 C16.72611058 9.53499521 16.72611058 9.53499521 14.890625 13.23828125 C13 15 13 15 9.86328125 15.390625 C6.57552083 15.26041667 3.28776042 15.13020833 0 15 C0 10.05 0 5.1 0 0 Z " fill="#EBEFF2" transform="translate(25,110)"/>
<path d="M0 0 C2.92212377 2.62241877 3.86731137 4.18728214 4.5 8.0625 C4 11 4 11 2.5 13.375 C-0.37333144 15.24266544 -2.60489653 15.63473458 -6.02734375 15.44921875 C-9.52770117 14.65210765 -11.00366611 12.86972996 -13 10 C-13.6875 7 -13.6875 7 -13 4 C-8.87629927 -0.72716913 -6.27896085 -2.09298695 0 0 Z " fill="#E99738" transform="translate(257,105)"/>
<path d="M0 0 C3.04393367 1.34954763 5.02721688 2.82156266 7.27734375 5.265625 C8.17163086 6.23048828 8.17163086 6.23048828 9.08398438 7.21484375 C10.00147461 8.22224609 10.00147461 8.22224609 10.9375 9.25 C11.54529297 9.90613281 12.15308594 10.56226563 12.77929688 11.23828125 C16.30680022 15.06640246 19.70343441 18.97155932 23 23 C22.01 23 21.02 23 20 23 C19.67 23.99 19.34 24.98 19 26 C18.29875 25.525625 17.5975 25.05125 16.875 24.5625 C14.12412067 22.79355323 14.12412067 22.79355323 11.12890625 22.8828125 C7.05077085 21.73217754 6.24861528 20.0954337 4.22460938 16.51757812 C3.84111328 15.78990234 3.45761719 15.06222656 3.0625 14.3125 C2.44665039 13.24999023 2.44665039 13.24999023 1.81835938 12.16601562 C-0.14725725 8.5761964 -1.04560068 6.65216216 -0.75390625 2.48046875 C-0.50511719 1.66191406 -0.25632812 0.84335938 0 0 Z " fill="#F7F6F3" transform="translate(269,136)"/>
<path d="M0 0 C0.99 0 1.98 0 3 0 C3 7.59 3 15.18 3 23 C4.32 23.66 5.64 24.32 7 25 C7.33 25.33 7.66 25.66 8 26 C7.75 29.4375 7.75 29.4375 7 33 C3.52957297 35.31361802 2.08165827 35.51020728 -2 35 C-4.35210784 32.88310295 -4.91810953 31.55958485 -5.375 28.4375 C-5 26 -5 26 -3.625 24.1875 C-2 23 -2 23 0 23 C0 15.41 0 7.82 0 0 Z " fill="#10324C" transform="translate(251,141)"/>
<path d="M0 0 C2.31 0 4.62 0 7 0 C6.47731534 2.76276177 5.89130413 5.3260876 5 8 C5.99 8.33 6.98 8.66 8 9 C8 11 8 13 8 15 C5.69 14.34 3.38 13.68 1 13 C0.47792969 13.59425781 -0.04414063 14.18851563 -0.58203125 14.80078125 C-5.79844544 20.67495695 -11.19700624 26.25929499 -16.8125 31.75 C-19.0258858 33.79940827 -19.0258858 33.79940827 -20 36 C-20.99 36 -21.98 36 -23 36 C-19.66693808 28.62785812 -13.01987445 22.6393925 -7.1015625 17.28125 C-6.44929688 16.6728125 -5.79703125 16.064375 -5.125 15.4375 C-4.20074219 14.60025391 -4.20074219 14.60025391 -3.2578125 13.74609375 C-1.75567618 12.07396957 -1.75567618 12.07396957 -2.23828125 9.92578125 C-3.04747651 7.87996963 -3.96121918 5.93905753 -5 4 C-4.360625 3.896875 -3.72125 3.79375 -3.0625 3.6875 C-2.381875 3.460625 -1.70125 3.23375 -1 3 C-0.67 2.01 -0.34 1.02 0 0 Z " fill="#11374E" transform="translate(233,124)"/>
<path d="M0 0 C10.47866595 -0.36983527 10.47866595 -0.36983527 12.828125 1.296875 C14.81834173 4.18932331 14.41568583 6.6151297 14 10 C12.625 12.4375 12.625 12.4375 10 14 C6.59264014 14.32578206 3.43853858 14.18097571 0 14 C0 9.38 0 4.76 0 0 Z " fill="#EEF3F5" transform="translate(25,91)"/>
<path d="M0 0 C2.3125 1 2.3125 1 4 3 C4.33878788 6.02758055 4.22892133 8.96679232 4 12 C0.14340563 14.1059035 -2.5700217 14.55374729 -7 14 C-10.1190035 11.28086874 -10.93764029 9.82626618 -11.25 5.6875 C-11.1675 4.800625 -11.085 3.91375 -11 3 C-10.34 3 -9.68 3 -9 3 C-9 2.34 -9 1.68 -9 1 C-5.64846558 -1.11022538 -3.75933548 -1.22178403 0 0 Z " fill="#1ED4C2" transform="translate(309,136)"/>
<path d="M0 0 C1.94140625 0.37890625 1.94140625 0.37890625 4.44140625 1.94140625 C6.46842069 5.23530472 6.29314477 7.58013026 5.94140625 11.37890625 C5.61140625 12.03890625 5.28140625 12.69890625 4.94140625 13.37890625 C1.18853636 14.62986288 -2.13456238 14.95933589 -6.05859375 14.37890625 C-8.76275176 12.18177786 -9.0035212 10.81948664 -9.43359375 7.37890625 C-8.6603846 1.19323305 -6.31331151 -0.36042847 0 0 Z " fill="#E04642" transform="translate(201.05859375,75.62109375)"/>
<path d="M0 0 C5.28645833 0.75520833 5.28645833 0.75520833 7.5 3.5 C8.06988508 7.41795996 8.09460908 9.57240983 5.9375 12.9375 C2.64629634 15.04724594 0.33614957 14.85519903 -3.5 14.5 C-4.16 14.17 -4.82 13.84 -5.5 13.5 C-5.5 12.84 -5.5 12.18 -5.5 11.5 C-6.16 11.5 -6.82 11.5 -7.5 11.5 C-7.83975517 7.84763197 -7.70830209 5.88327585 -5.9375 2.625 C-3.5 0.5 -3.5 0.5 0 0 Z " fill="#F9A140" transform="translate(305.5,75.5)"/>
<path d="M0 0 C0.99 0.66 1.98 1.32 3 2 C3.40843923 4.71203652 3.13336867 7.2437142 3 10 C1.02 10.99 1.02 10.99 -1 12 C-1.33 18.93 -1.66 25.86 -2 33 C-2.99 33 -3.98 33 -5 33 C-5.01401855 32.07719238 -5.01401855 32.07719238 -5.02832031 31.13574219 C-5.08211085 28.33968914 -5.16573819 25.5452938 -5.25 22.75 C-5.26417969 21.78191406 -5.27835938 20.81382813 -5.29296875 19.81640625 C-5.33917148 14.22366515 -5.33917148 14.22366515 -8.0546875 9.55859375 C-8.69664062 9.04425781 -9.33859375 8.52992187 -10 8 C-9.875 4.3125 -9.875 4.3125 -9 1 C-5.98131566 -0.50934217 -3.32702771 -0.17510672 0 0 Z " fill="#24425A" transform="translate(256,51)"/>
<path d="M0 0 C3 2 3 2 4 3 C4.360388 6.82011276 4.54048663 9.15684085 2.4375 12.4375 C-0.96719488 14.61999672 -3.03430012 14.63734462 -7 14 C-9.69500656 11.58140437 -10.80636871 9.99236035 -11.5 6.4375 C-10.18109289 0.00782782 -5.8995265 -0.64358471 0 0 Z " fill="#1DD1C1" transform="translate(203,136)"/>
<path d="M0 0 C0.33 0.66 0.66 1.32 1 2 C-5.27 2 -11.54 2 -18 2 C-17.34 4.64 -16.68 7.28 -16 10 C-11.34755986 12.32622007 -4.9262419 10.98524838 0 10 C0.33 11.65 0.66 13.3 1 15 C-5.40464369 17.13488123 -10.82220643 18.17696058 -17.375 15.75 C-20.03368909 13.97754061 -20.97386916 12.97577944 -22 10 C-21.67 9.67 -21.34 9.34 -21 9 C-20.835 7.845 -20.67 6.69 -20.5 5.5 C-20 2 -20 2 -19 1 C-17.58672053 0.84379445 -16.1664541 0.74943827 -14.74609375 0.68359375 C-13.89208984 0.64169922 -13.03808594 0.59980469 -12.15820312 0.55664062 C-11.26037109 0.51732422 -10.36253906 0.47800781 -9.4375 0.4375 C-8.08495117 0.37272461 -8.08495117 0.37272461 -6.70507812 0.30664062 C-4.47021515 0.20021858 -2.23523692 0.09820012 0 0 Z " fill="#20455C" transform="translate(164,114)"/>
<path d="M0 0 C4.875 3.625 4.875 3.625 6 7 C6.58382651 13.07179566 5.40459743 16.13628938 2 21 C-1.42232972 22.14077657 -4.08673217 22.09815117 -7.6875 22.0625 C-9.45673828 22.04896484 -9.45673828 22.04896484 -11.26171875 22.03515625 C-12.16535156 22.02355469 -13.06898437 22.01195313 -14 22 C-14 21.01 -14 20.02 -14 19 C-12.84371094 18.96132812 -12.84371094 18.96132812 -11.6640625 18.921875 C-10.66117188 18.86515625 -9.65828125 18.8084375 -8.625 18.75 C-7.62726562 18.70359375 -6.62953125 18.6571875 -5.6015625 18.609375 C-2.89620197 18.27334283 -2.89620197 18.27334283 -1.6640625 16.17578125 C-0.70233308 13.0247031 -0.76213388 10.27065913 -1 7 C-1.66 6.01 -2.32 5.02 -3 4 C-2.01 4 -1.02 4 0 4 C0 2.68 0 1.36 0 0 Z " fill="#1E4258" transform="translate(39,87)"/>
<path d="M0 0 C7.59 0 15.18 0 23 0 C23 1.65 23 3.3 23 5 C17.06 5 11.12 5 5 5 C4.67 4.01 4.34 3.02 4 2 C3.01 1.67 2.02 1.34 1 1 C1 14.86 1 28.72 1 43 C2.32 43.33 3.64 43.66 5 44 C3.35 44 1.7 44 0 44 C0 29.48 0 14.96 0 0 Z " fill="#193E54" transform="translate(345,86)"/>
<path d="M0 0 C1.99954746 -0.04254356 4.00041636 -0.04080783 6 0 C7 1 7 1 7.0625 2.890625 C7.041875 3.66921875 7.02125 4.4478125 7 5.25 C6.9676618 8.63473147 6.98024124 11.73677197 8 15 C8.66 15.33 9.32 15.66 10 16 C10 16.66 10 17.32 10 18 C7 20 7 20 3 20 C3 19.34 3 18.68 3 18 C1.68 17.67 0.36 17.34 -1 17 C-0.67 16.34 -0.34 15.68 0 15 C-0.33 14.34 -0.66 13.68 -1 13 C-1.04022391 10.6670134 -1.04320247 8.33293334 -1 6 C-1.66 5.67 -2.32 5.34 -3 5 C-2.01 4.67 -1.02 4.34 0 4 C0 2.68 0 1.36 0 0 Z " fill="#E8F0F4" transform="translate(391,98)"/>
<path d="M0 0 C1.98 0 3.96 0 6 0 C6.06058594 1.18078125 6.12117188 2.3615625 6.18359375 3.578125 C6.26802582 5.1354277 6.35267249 6.69271879 6.4375 8.25 C6.47681641 9.02730469 6.51613281 9.80460937 6.55664062 10.60546875 C6.59853516 11.35957031 6.64042969 12.11367187 6.68359375 12.890625 C6.72025146 13.58188477 6.75690918 14.27314453 6.79467773 14.98535156 C7.00675524 17.06628329 7.44508677 18.98572422 8 21 C9.14654482 18.70691037 9.19729117 17.20090344 9.31640625 14.6484375 C9.35830078 13.79765625 9.40019531 12.946875 9.44335938 12.0703125 C9.48267578 11.18085937 9.52199219 10.29140625 9.5625 9.375 C9.60568359 8.4778125 9.64886719 7.580625 9.69335938 6.65625 C9.79956861 4.43765717 9.90161194 2.2189512 10 0 C10.33 0 10.66 0 11 0 C11.33 7.26 11.66 14.52 12 22 C15.3 22.33 18.6 22.66 22 23 C22 24.32 22 25.64 22 27 C17.29317654 29.50049996 14.07149649 29.0633783 9 28 C6.35634921 26.12386073 6.04758719 25.14276157 5 22 C4.91856145 20.37280518 4.8924698 18.74248281 4.90234375 17.11328125 C4.90556641 16.17548828 4.90878906 15.23769531 4.91210938 14.27148438 C4.92048828 13.29501953 4.92886719 12.31855469 4.9375 11.3125 C4.94201172 10.32443359 4.94652344 9.33636719 4.95117188 8.31835938 C4.96295697 5.87884526 4.97940989 3.43945311 5 1 C3.35 1 1.7 1 0 1 C0 0.67 0 0.34 0 0 Z " fill="#486578" transform="translate(112,102)"/>
<path d="M0 0 C2 1.125 2 1.125 3 3 C3 4.98 3 6.96 3 9 C-1.62 9 -6.24 9 -11 9 C-11 3 -11 3 -10 1.125 C-6.78179676 -0.68523932 -3.59783102 -0.53967465 0 0 Z " fill="#E9EFF2" transform="translate(492,102)"/>
<path d="M0 0 C2.4375 1.6875 2.4375 1.6875 4 4 C4 5.65 4 7.3 4 9 C-0.62 9 -5.24 9 -10 9 C-10 3 -10 3 -8.9375 1.125 C-5.84902396 -0.66830867 -3.48856031 -0.42841969 0 0 Z " fill="#EAF1F4" transform="translate(156,102)"/>
<path d="M0 0 C0.66 0 1.32 0 2 0 C3.21468687 3.64406062 3.92134277 7.24587199 3 11 C0.96484375 13.73828125 0.96484375 13.73828125 -2 16 C-4.8387401 16.36771245 -7.01820151 16.48630804 -9.8125 16.3125 C-10.50537109 16.28994141 -11.19824219 16.26738281 -11.91210938 16.24414062 C-13.60901573 16.18562661 -15.30479861 16.0959548 -17 16 C-16.67 15.01 -16.34 14.02 -16 13 C-15.09507813 12.96132812 -15.09507813 12.96132812 -14.171875 12.921875 C-8.93018499 12.62611413 -8.93018499 12.62611413 -4.5625 9.9375 C-4.046875 9.298125 -3.53125 8.65875 -3 8 C-2.34 8 -1.68 8 -1 8 C-1.020625 7.05125 -1.04125 6.1025 -1.0625 5.125 C-1 2 -1 2 0 0 Z " fill="#113851" transform="translate(43,113)"/>
<path d="M0 0 C0.99 0 1.98 0 3 0 C3 1.32 3 2.64 3 4 C3.66 4.33 4.32 4.66 5 5 C4.67 5.99 4.34 6.98 4 8 C3.85222064 9.69867188 3.75252934 11.40177489 3.68359375 13.10546875 C3.64169922 14.08837891 3.59980469 15.07128906 3.55664062 16.08398438 C3.51732422 17.10814453 3.47800781 18.13230469 3.4375 19.1875 C3.39431641 20.22326172 3.35113281 21.25902344 3.30664062 22.32617188 C3.20055634 24.8839819 3.09849854 27.44188845 3 30 C2.01 30 1.02 30 0 30 C0 20.1 0 10.2 0 0 Z " fill="#06314C" transform="translate(425,99)"/>
<path d="M0 0 C0.66 0 1.32 0 2 0 C2.41765625 0.70511719 2.8353125 1.41023437 3.265625 2.13671875 C5.32348616 5.53404359 7.90951664 8.08397859 10.75 10.8125 C20.96598433 20.83357003 20.96598433 20.83357003 24 25 C24 25.66 24 26.32 24 27 C21.07981131 25.68111554 19.01101183 24.25903529 16.7578125 21.98828125 C16.16613281 21.39466797 15.57445312 20.80105469 14.96484375 20.18945312 C14.35769531 19.57005859 13.75054687 18.95066406 13.125 18.3125 C12.22587891 17.41241211 12.22587891 17.41241211 11.30859375 16.49414062 C7.79517381 12.94642483 4.46307338 9.29756291 1.25732422 5.46948242 C0.22602196 4.26416042 -0.87830809 3.12169191 -2 2 C-1.34 2 -0.68 2 0 2 C0 1.34 0 0.68 0 0 Z " fill="#486174" transform="translate(271,133)"/>
<path d="M0 0 C-1.34606404 4.02321626 -3.02810962 6.37756927 -6.0625 9.3203125 C-6.85914063 10.10277344 -7.65578125 10.88523437 -8.4765625 11.69140625 C-9.30929687 12.49449219 -10.14203125 13.29757813 -11 14.125 C-12.64795847 15.72959114 -14.29388531 17.33627222 -15.9375 18.9453125 C-16.66839844 19.65187988 -17.39929688 20.35844727 -18.15234375 21.08642578 C-20.17149014 23.06342324 -20.17149014 23.06342324 -22 26 C-22.8125 23.8125 -22.8125 23.8125 -23 21 C-20.47494414 17.91382062 -18.80132605 16.26710868 -15 15 C-14.7215625 14.43796875 -14.443125 13.8759375 -14.15625 13.296875 C-12.52664936 10.05969535 -10.05339264 7.76380516 -7.5 5.25 C-7.00113281 4.74339844 -6.50226563 4.23679687 -5.98828125 3.71484375 C-2.25341139 0 -2.25341139 0 0 0 Z " fill="#425A6E" transform="translate(295,67)"/>
<path d="M0 0 C0.66 1.32 1.32 2.64 2 4 C-3.7161387 10.50651837 -9.6226516 16.69770379 -15.8125 22.75 C-18.0258858 24.79940827 -18.0258858 24.79940827 -19 27 C-19.99 27 -20.98 27 -22 27 C-18.63872141 19.56544784 -11.97419356 13.81284809 -6.171875 8.24609375 C-5.53765625 7.62863281 -4.9034375 7.01117188 -4.25 6.375 C-3.36054688 5.52035156 -3.36054688 5.52035156 -2.453125 4.6484375 C-0.7672981 2.95208885 -0.7672981 2.95208885 0 0 Z " fill="#40596A" transform="translate(232,133)"/>
<path d="M0 0 C2.31 0.33 4.62 0.66 7 1 C6.67 2.65 6.34 4.3 6 6 C5.01 6 4.02 6 3 6 C3 7.65 3 9.3 3 11 C3.66 11.33 4.32 11.66 5 12 C2.125 12.125 2.125 12.125 -1 12 C-3 10 -3 10 -3.3125 7.125 C-2.9736202 3.73620199 -2.27183419 2.46115371 0 0 Z " fill="#E14743" transform="translate(276,159)"/>
<path d="M0 0 C0.99 0 1.98 0 3 0 C3 7.59 3 15.18 3 23 C3.66 23.33 4.32 23.66 5 24 C1.04 24.495 1.04 24.495 -3 25 C-2.67 24.34 -2.34 23.68 -2 23 C-1.34 23 -0.68 23 0 23 C0 15.41 0 7.82 0 0 Z " fill="#475F72" transform="translate(251,141)"/>
<path d="M0 0 C-0.33 1.32 -0.66 2.64 -1 4 C-5.83933541 5.58019115 -9.84056031 6.39687998 -15 6 C-15.99 5.34 -16.98 4.68 -18 4 C-12.76465351 0.28459281 -6.2849503 -1.99522232 0 0 Z " fill="#22455B" transform="translate(500,125)"/>
<path d="M0 0 C0.66 0.33 1.32 0.66 2 1 C2 4.63 2 8.26 2 12 C-4.27 12 -10.54 12 -17 12 C-17 11.34 -17 10.68 -17 10 C-16.195625 10.020625 -15.39125 10.04125 -14.5625 10.0625 C-12.06645115 10.29633621 -12.06645115 10.29633621 -11 9 C-9.48530552 8.76807135 -7.96245438 8.58784762 -6.4375 8.4375 C-5.61121094 8.35371094 -4.78492188 8.26992187 -3.93359375 8.18359375 C-3.29550781 8.12300781 -2.65742188 8.06242187 -2 8 C-1.34 5.36 -0.68 2.72 0 0 Z " fill="#05304B" transform="translate(497,103)"/>
<path d="M0 0 C3.875 1.75 3.875 1.75 5 4 C5.06996014 5.70702735 5.08440154 7.41668003 5.0625 9.125 C5.05347656 10.03507812 5.04445312 10.94515625 5.03515625 11.8828125 C5.02355469 12.58148438 5.01195312 13.28015625 5 14 C3.35 14.33 1.7 14.66 0 15 C-0.06058594 14.39671875 -0.12117187 13.7934375 -0.18359375 13.171875 C-0.30927734 11.97304687 -0.30927734 11.97304687 -0.4375 10.75 C-0.51871094 9.96109375 -0.59992188 9.1721875 -0.68359375 8.359375 C-0.97634993 6.17635361 -1.42064419 4.1226818 -2 2 C-1.34 2 -0.68 2 0 2 C0 1.34 0 0.68 0 0 Z " fill="#173C53" transform="translate(160,100)"/>
<path d="M0 0 C3.625 0.375 3.625 0.375 7 1 C5.89191046 5.80172134 4.95313492 8.91161335 1 12 C0.34 12 -0.32 12 -1 12 C-2.11445498 9.77109005 -2.16480286 8.46944894 -2.1875 6 C-2.20167969 5.29875 -2.21585937 4.5975 -2.23046875 3.875 C-2 2 -2 2 0 0 Z " fill="#E3423E" transform="translate(277,56)"/>
<path d="M0 0 C1.32 0.99 2.64 1.98 4 3 C3.125 8.875 3.125 8.875 2 10 C2.66 10.33 3.32 10.66 4 11 C4 11.66 4 12.32 4 13 C2.68 13 1.36 13 0 13 C0 11.68 0 10.36 0 9 C-1.65 9 -3.3 9 -5 9 C-5 8.34 -5 7.68 -5 7 C-5.66 6.67 -6.32 6.34 -7 6 C-6.34 6 -5.68 6 -5 6 C-4.67 5.01 -4.34 4.02 -4 3 C-2.68 3 -1.36 3 0 3 C0 2.01 0 1.02 0 0 Z " fill="#072C46" transform="translate(241,114)"/>
<path d="M0 0 C0.33 0 0.66 0 1 0 C1.33 2.97 1.66 5.94 2 9 C0.515 9.12375 -0.97 9.2475 -2.5 9.375 C-5.8703729 9.70393314 -9.04336053 10.181145 -12.3125 11.0625 C-15.43231352 11.85567293 -17.81907648 12.19880772 -21 12 C-21 11.34 -21 10.68 -21 10 C-18.44013121 9.15774 -15.87760985 8.32601449 -13.3125 7.5 C-12.59126953 7.26152344 -11.87003906 7.02304688 -11.12695312 6.77734375 C-7.30592343 5.55601006 -4.06557944 4.67924423 0 5 C0 3.35 0 1.7 0 0 Z " fill="#475E6F" transform="translate(223,114)"/>
<path d="M0 0 C0.66 0.33 1.32 0.66 2 1 C2.625 3.0625 2.625 3.0625 3 5 C2.05898437 5.45890625 1.11796875 5.9178125 0.1484375 6.390625 C-1.10948286 7.01019772 -2.36728931 7.63000177 -3.625 8.25 C-4.24246094 8.55035156 -4.85992187 8.85070312 -5.49609375 9.16015625 C-8.62987535 10.71055346 -11.39347762 12.27609169 -14.2734375 14.296875 C-15.17320312 14.85890625 -16.07296875 15.4209375 -17 16 C-17.99 15.67 -18.98 15.34 -20 15 C-4.76595745 3 -4.76595745 3 0 3 C0 2.01 0 1.02 0 0 Z " fill="#345063" transform="translate(225,123)"/>
<path d="M0 0 C0 1.65 0 3.3 0 5 C-1.953125 5.71614583 -3.90625 6.43229167 -5.859375 7.1484375 C-7.95634928 7.9826353 -9.98144861 8.99072431 -12 10 C-12.33 7.03 -12.66 4.06 -13 1 C-12.01 2.485 -12.01 2.485 -11 4 C-9.9275 3.34 -8.855 2.68 -7.75 2 C-4.69019314 0.11704193 -3.8664136 0 0 0 Z " fill="#2B4C60" transform="translate(441,97)"/>
<path d="M0 0 C1.15717541 4.05011394 0.88174925 6.23650151 -1 10 C-2.89488952 11.89488952 -5.57139146 11.18019112 -8.08984375 11.23046875 C-10 11 -10 11 -12 9 C-10.02 8.67 -8.04 8.34 -6 8 C-5.896875 7.236875 -5.79375 6.47375 -5.6875 5.6875 C-4.83195622 2.34310158 -3.70341243 0 0 0 Z " fill="#F79B35" transform="translate(259,109)"/>
<path d="M0 0 C0.66 0 1.32 0 2 0 C2.83857688 2.60258324 3.67103344 5.20685647 4.5 7.8125 C4.73847656 8.55048828 4.97695312 9.28847656 5.22265625 10.04882812 C6.19940136 13.13255196 7 15.74495809 7 19 C8.32 19.33 9.64 19.66 11 20 C7.04 20.495 7.04 20.495 3 21 C2.92652344 20.12988281 2.92652344 20.12988281 2.8515625 19.2421875 C2.50069187 15.5761944 2.10737086 12.32211258 0.9375 8.8125 C-0.09137337 5.72587988 -0.15387923 3.23146375 0 0 Z " fill="#556B7D" transform="translate(240,65)"/>
<path d="M0 0 C0.33 0 0.66 0 1 0 C1 1.65 1 3.3 1 5 C1.92941406 5.19335938 2.85882813 5.38671875 3.81640625 5.5859375 C16.09490334 8.17223199 16.09490334 8.17223199 22 10 C22 10.66 22 11.32 22 12 C14.01790621 11.69121494 7.36897561 10.06446761 0 7 C0 4.69 0 2.38 0 0 Z " fill="#3D5568" transform="translate(281,114)"/>
<path d="M0 0 C0.33 0.66 0.66 1.32 1 2 C-5.27 2 -11.54 2 -18 2 C-17.34 4.97 -16.68 7.94 -16 11 C-16.33 12.32 -16.66 13.64 -17 15 C-18.32 14.34 -19.64 13.68 -21 13 C-21 3 -21 3 -19 1 C-17.58672053 0.84379445 -16.1664541 0.74943827 -14.74609375 0.68359375 C-13.89208984 0.64169922 -13.03808594 0.59980469 -12.15820312 0.55664062 C-11.26037109 0.51732422 -10.36253906 0.47800781 -9.4375 0.4375 C-8.08495117 0.37272461 -8.08495117 0.37272461 -6.70507812 0.30664062 C-4.47021515 0.20021858 -2.23523692 0.09820012 0 0 Z " fill="#476476" transform="translate(164,114)"/>
<path d="M0 0 C0 0.66 0 1.32 0 2 C-2.36874756 3.59704238 -4.72322203 5.0649879 -7.1875 6.5 C-7.86103516 6.90347656 -8.53457031 7.30695313 -9.22851562 7.72265625 C-16.27424664 11.8882299 -16.27424664 11.8882299 -20 13 C-20.99 12.67 -21.98 12.34 -23 12 C-22.67 11.34 -22.34 10.68 -22 10 C-21.12730469 9.71382812 -20.25460937 9.42765625 -19.35546875 9.1328125 C-14.98285568 7.65661018 -11.41570971 5.25485836 -7.59179688 2.74609375 C-3.30165408 0 -3.30165408 0 0 0 Z " fill="#3E5567" transform="translate(300,87)"/>
<path d="M0 0 C0.33 0.66 0.66 1.32 1 2 C3.31 2 5.62 2 8 2 C8 2.33 8 2.66 8 3 C6.68128906 2.98259766 6.68128906 2.98259766 5.3359375 2.96484375 C0.27587717 4.53500299 -0.97835975 8.0552234 -3.375 12.5625 C-3.82488281 13.36880859 -4.27476562 14.17511719 -4.73828125 15.00585938 C-5.84437949 16.99448281 -6.93027475 18.99164639 -8 21 C-8.99 20.34 -9.98 19.68 -11 19 C-10.70230713 18.53102295 -10.40461426 18.0620459 -10.09790039 17.57885742 C-8.7494617 15.4504782 -7.40593774 13.31903901 -6.0625 11.1875 C-5.59392578 10.44951172 -5.12535156 9.71152344 -4.64257812 8.95117188 C-3.9706543 7.88286133 -3.9706543 7.88286133 -3.28515625 6.79296875 C-2.87144775 6.1383667 -2.45773926 5.48376465 -2.03149414 4.80932617 C-0.84873899 2.87143744 -0.84873899 2.87143744 0 0 Z " fill="#E7AC6E" transform="translate(275,67)"/>
<path d="M0 0 C0.33 0 0.66 0 1 0 C1.08710289 3.10398978 1.14042309 6.20766548 1.1875 9.3125 C1.21263672 10.19357422 1.23777344 11.07464844 1.26367188 11.98242188 C1.27333984 12.82998047 1.28300781 13.67753906 1.29296875 14.55078125 C1.3086792 15.33106689 1.32438965 16.11135254 1.34057617 16.9152832 C0.91847304 19.49903853 -0.01489942 20.36292167 -2 22 C-2.05790353 18.70840684 -2.09356261 15.41694397 -2.125 12.125 C-2.14175781 11.18785156 -2.15851563 10.25070313 -2.17578125 9.28515625 C-2.18544922 7.94130859 -2.18544922 7.94130859 -2.1953125 6.5703125 C-2.20578613 5.74289551 -2.21625977 4.91547852 -2.22705078 4.06298828 C-2 2 -2 2 0 0 Z " fill="#05304B" transform="translate(121,102)"/>
<path d="M0 0 C0.66 0.33 1.32 0.66 2 1 C2.103125 1.825 2.20625 2.65 2.3125 3.5 C3.45836934 9.33351662 6.73238479 14.09857719 10 19 C9.625 21.1875 9.625 21.1875 9 23 C7.51713229 20.77569844 6.19213652 18.60991613 4.90625 16.27734375 C4.51566406 15.57416016 4.12507813 14.87097656 3.72265625 14.14648438 C2.90589652 12.670837 2.09079803 11.19426895 1.27734375 9.71679688 C0.88675781 9.01490234 0.49617188 8.31300781 0.09375 7.58984375 C-0.26009766 6.94909912 -0.61394531 6.30835449 -0.97851562 5.64819336 C-2.01981133 3.82782993 -2.01981133 3.82782993 -4 2 C-2.125 0.9375 -2.125 0.9375 0 0 Z " fill="#F0AC6B" transform="translate(267,137)"/>
<path d="M0 0 C0 1.65 0 3.3 0 5 C-1.4562545 5.67119549 -2.91507867 6.33681807 -4.375 7 C-5.59316406 7.556875 -5.59316406 7.556875 -6.8359375 8.125 C-9 9 -9 9 -11 9 C-11.33 7.68 -11.66 6.36 -12 5 C-4.88610478 -0.74031891 -4.88610478 -0.74031891 0 0 Z " fill="#25465B" transform="translate(73,97)"/>
<path d="M0 0 C4.31530959 1.56696603 8.18199304 3.74235169 12.125 6.0625 C16.89033897 8.88515439 16.89033897 8.88515439 22 11 C22.33 10.34 22.66 9.68 23 9 C23.33 9.99 23.66 10.98 24 12 C20.00785975 13.22400527 17.63497946 13.10785895 13.984375 11.26953125 C12.56306773 10.46773431 11.15168795 9.64812167 9.75 8.8125 C9.03070313 8.41224609 8.31140625 8.01199219 7.5703125 7.59960938 C3.80961933 5.42699918 1.73615364 4.10683783 0 0 Z " fill="#334A5D" transform="translate(206,87)"/>
<path d="M0 0 C0.67804688 0.43570313 1.35609375 0.87140625 2.0546875 1.3203125 C7.69805456 4.93144212 13.37206089 8.43048558 19.19921875 11.73828125 C19.79347656 12.15464844 20.38773437 12.57101563 21 13 C21 13.66 21 14.32 21 15 C16.25184297 14.45735348 12.7464699 12.29043197 8.8125 9.75 C8.18408203 9.36714844 7.55566406 8.98429688 6.90820312 8.58984375 C3.14573525 6.18347392 1.13943364 4.37170456 0 0 Z " fill="#315263" transform="translate(279,124)"/>
<path d="M0 0 C1.32 0 2.64 0 4 0 C5.68637231 5.03892085 4.11883569 8.96469718 2.5625 13.8125 C2.31951172 14.60076172 2.07652344 15.38902344 1.82617188 16.20117188 C1.22772569 18.13732129 0.61524123 20.06912181 0 22 C-0.66 22 -1.32 22 -2 22 C-1.5003731 14.50559651 0.43764478 8.04349737 3 1 C2.01 0.67 1.02 0.34 0 0 Z " fill="#445D70" transform="translate(242,139)"/>
<path d="M0 0 C0.33 0 0.66 0 1 0 C1.83732743 3.12394391 2.66917982 6.24931974 3.5 9.375 C3.73847656 10.26445312 3.97695313 11.15390625 4.22265625 12.0703125 C4.56103516 13.34648437 4.56103516 13.34648437 4.90625 14.6484375 C5.11572266 15.43395996 5.32519531 16.21948242 5.54101562 17.02880859 C6 19 6 19 6 21 C5.01 21 4.02 21 3 21 C2.3516711 18.77155786 1.70643631 16.5422154 1.0625 14.3125 C0.70285156 13.07113281 0.34320313 11.82976562 -0.02734375 10.55078125 C-0.80726431 7.70360138 -1.47287216 4.90197746 -2 2 C-1.34 2 -0.68 2 0 2 C0 1.34 0 0.68 0 0 Z " fill="#455C6E" transform="translate(260,140)"/>
<path d="M0 0 C0.33 0.99 0.66 1.98 1 3 C0.360625 3.37125 -0.27875 3.7425 -0.9375 4.125 C-3.67377267 6.22370773 -3.67377267 6.22370773 -4 12 C0.62 12 5.24 12 10 12 C10 12.33 10 12.66 10 13 C5.05 13 0.1 13 -5 13 C-5 10.36 -5 7.72 -5 5 C-5.99 5 -6.98 5 -8 5 C-7.1875 3.0625 -7.1875 3.0625 -6 1 C-3 0 -3 0 0 0 Z " fill="#274A5F" transform="translate(485,99)"/>
<path d="M0 0 C2.94139884 3.69340696 5.28578782 7.69735009 7.6875 11.75 C8.10322266 12.44738281 8.51894531 13.14476563 8.94726562 13.86328125 C9.96685837 15.57432195 10.98370451 17.2869988 12 19 C11.01 19.66 10.02 20.32 9 21 C8.67 19.68 8.34 18.36 8 17 C7.34 17 6.68 17 6 17 C5.01836578 15.06374902 4.03977546 13.12595461 3.0625 11.1875 C2.51722656 10.10855469 1.97195312 9.02960938 1.41015625 7.91796875 C0 5 0 5 -1 2 C-0.67 1.34 -0.34 0.68 0 0 Z " fill="#EFB26E" transform="translate(229,67)"/>
<path d="M0 0 C1.32 0.33 2.64 0.66 4 1 C4 2.32 4 3.64 4 5 C4.66 5.33 5.32 5.66 6 6 C6 6.66 6 7.32 6 8 C3 10 3 10 -1 10 C-1 9.34 -1 8.68 -1 8 C-2.32 7.67 -3.64 7.34 -5 7 C-4.67 6.01 -4.34 5.02 -4 4 C-3.01 4 -2.02 4 -1 4 C-0.67 2.68 -0.34 1.36 0 0 Z " fill="#C3D0D8" transform="translate(395,108)"/>
<path d="M0 0 C7.76783437 0.79263616 15.3629639 2.41889487 23 4 C22.01 5.485 22.01 5.485 21 7 C13.80684375 5.83760783 6.93025566 4.25496388 0 2 C0 1.34 0 0.68 0 0 Z " fill="#4C6475" transform="translate(202,100)"/>
<path d="M0 0 C1.32 0.66 2.64 1.32 4 2 C3.54713623 2.42128174 3.09427246 2.84256348 2.62768555 3.27661133 C1.01609486 4.98295881 0.03741611 6.50200518 -1.04296875 8.57421875 C-1.39423828 9.24130859 -1.74550781 9.90839844 -2.10742188 10.59570312 C-2.46384766 11.28599609 -2.82027344 11.97628906 -3.1875 12.6875 C-3.55552734 13.38939453 -3.92355469 14.09128906 -4.30273438 14.81445312 C-5.2067894 16.54037635 -6.10406601 18.26984719 -7 20 C-7.99 19.34 -8.98 18.68 -10 18 C-6.7 12.06 -3.4 6.12 0 0 Z " fill="#EFAF6D" transform="translate(238,138)"/>
<path d="M0 0 C0 0.99 0 1.98 0 3 C-2.3501719 3.7047491 -4.70341833 4.3887943 -7.0625 5.0625 C-7.71927734 5.26166016 -8.37605469 5.46082031 -9.05273438 5.66601562 C-13.773514 6.99155473 -17.19371794 6.99375663 -22 6 C-22 5.67 -22 5.34 -22 5 C-18.70929159 4.16285091 -15.41728353 3.33093104 -12.125 2.5 C-11.18785156 2.26152344 -10.25070312 2.02304688 -9.28515625 1.77734375 C-7.94130859 1.43896484 -7.94130859 1.43896484 -6.5703125 1.09375 C-5.74289551 0.88427734 -4.91547852 0.67480469 -4.06298828 0.45898438 C-2 0 -2 0 0 0 Z " fill="#435A6D" transform="translate(303,99)"/>
<path d="M0 0 C3.90285767 1.58667578 6.33520982 4.13350481 9.25 7.125 C10.14203125 8.03507812 11.0340625 8.94515625 11.953125 9.8828125 C12.62859375 10.58148438 13.3040625 11.28015625 14 12 C13.01 12.66 12.02 13.32 11 14 C9.15730989 12.23807715 7.32609243 10.46648194 5.5 8.6875 C4.97535156 8.18798828 4.45070312 7.68847656 3.91015625 7.17382812 C2.5489154 5.83910496 1.26860484 4.4230616 0 3 C0 2.01 0 1.02 0 0 Z " fill="#4B6273" transform="translate(210,67)"/>
<path d="M0 0 C0.66 0 1.32 0 2 0 C2 2.64 2 5.28 2 8 C0.02 8.99 0.02 8.99 -2 10 C-2.33 16.93 -2.66 23.86 -3 31 C-3.33 31 -3.66 31 -4 31 C-4.08741124 27.43765572 -4.14052896 23.87558892 -4.1875 20.3125 C-4.21263672 19.30509766 -4.23777344 18.29769531 -4.26367188 17.25976562 C-4.35295163 8.24251023 -4.35295163 8.24251023 -1 4 C-0.30420546 1.80869466 -0.30420546 1.80869466 0 0 Z " fill="#50697A" transform="translate(257,53)"/>
<path d="M0 0 C0 2.70254461 -0.03430669 4.50529228 -1 7 C-4.37116604 9.59320464 -7.90181884 9.15762235 -12 9 C-10.67708855 5.03126566 -9.08850262 4.70094963 -5.4375 2.8125 C-4.42558594 2.28269531 -3.41367188 1.75289063 -2.37109375 1.20703125 C-1.58863281 0.80871094 -0.80617188 0.41039063 0 0 Z " fill="#0D364F" transform="translate(99,121)"/>
<path d="M0 0 C0.66 0 1.32 0 2 0 C1.55325707 3.64840062 0.98969446 7.03455387 -0.0625 10.5625 C-0.97051692 13.89189539 -1.16721405 16.57211192 -1 20 C-1.66 20.33 -2.32 20.66 -3 21 C-4.37029575 18.63693896 -5.13235431 16.8334917 -4.69628906 14.08740234 C-4.07629566 11.92353375 -3.37592845 9.80944175 -2.625 7.6875 C-2.3775 6.94693359 -2.13 6.20636719 -1.875 5.44335938 C-1.26461353 3.62393817 -0.63425305 1.81123941 0 0 Z " fill="#375165" transform="translate(263,66)"/>
<path d="M0 0 C0.99 0 1.98 0 3 0 C2.34 1.65 1.68 3.3 1 5 C-3.29 5 -7.58 5 -12 5 C-12 4.01 -12 3.02 -12 2 C-11.21753906 1.93941406 -10.43507813 1.87882812 -9.62890625 1.81640625 C-8.61699219 1.73261719 -7.60507812 1.64882812 -6.5625 1.5625 C-5.55316406 1.48128906 -4.54382812 1.40007812 -3.50390625 1.31640625 C-1.06359221 1.26788532 -1.06359221 1.26788532 0 0 Z " fill="#053049" transform="translate(37,104)"/>
<path d="M0 0 C1.32 0.33 2.64 0.66 4 1 C3.9131724 3.12577907 3.8050049 5.25069581 3.6875 7.375 C3.62949219 8.55835937 3.57148438 9.74171875 3.51171875 10.9609375 C3.34285156 11.96382812 3.17398437 12.96671875 3 14 C2.01 14.66 1.02 15.32 0 16 C0 10.72 0 5.44 0 0 Z " fill="#043048" transform="translate(346,87)"/>
<path d="M0 0 C2.8203125 -0.29296875 2.8203125 -0.29296875 6.125 -0.1875 C7.76855469 -0.14689453 7.76855469 -0.14689453 9.4453125 -0.10546875 C10.28835937 -0.07066406 11.13140625 -0.03585938 12 0 C12 1.32 12 2.64 12 4 C5.07 3.505 5.07 3.505 -2 3 C-1.34 2.01 -0.68 1.02 0 0 Z " fill="#073049" transform="translate(27,87)"/>
<path d="M0 0 C2.625 0.1875 2.625 0.1875 5.625 2.1875 C5.625 2.8475 5.625 3.5075 5.625 4.1875 C2.1897952 6.47763653 0.639669 6.36592973 -3.375 6.1875 C-3.417721 4.52138095 -3.41563832 2.85367115 -3.375 1.1875 C-2.375 0.1875 -2.375 0.1875 0 0 Z " fill="#735E42" transform="translate(238.375,96.8125)"/>
<path d="M0 0 C3.15649355 1.3905258 5.23989506 3.02033143 7.625 5.5 C8.21539062 6.1084375 8.80578125 6.716875 9.4140625 7.34375 C10.19910156 8.16359375 10.19910156 8.16359375 11 9 C11.66 9.66 12.32 10.32 13 11 C12.34 11 11.68 11 11 11 C10.67 12.32 10.34 13.64 10 15 C9.01 15 8.02 15 7 15 C7.66 13.68 8.32 12.36 9 11 C8.3503125 10.37351562 7.700625 9.74703125 7.03125 9.1015625 C6.1959375 8.28429687 5.360625 7.46703125 4.5 6.625 C3.6646875 5.81289062 2.829375 5.00078125 1.96875 4.1640625 C0 2 0 2 0 0 Z " fill="#2C475C" transform="translate(222,80)"/>
<path d="M0 0 C4.29 0 8.58 0 13 0 C13 0.99 13 1.98 13 3 C8.71 3 4.42 3 0 3 C0 2.01 0 1.02 0 0 Z " fill="#062F49" transform="translate(353,107)"/>
<path d="M0 0 C1.99954746 -0.04254356 4.00041636 -0.04080783 6 0 C7 1 7 1 7.0625 4.5625 C7.041875 5.696875 7.02125 6.83125 7 8 C5.68 8 4.36 8 3 8 C3 6.68 3 5.36 3 4 C2.34 4 1.68 4 1 4 C0.67 2.68 0.34 1.36 0 0 Z " fill="#C4CFD6" transform="translate(391,98)"/>
<path d="M0 0 C1.41623216 -0.05447047 2.83308191 -0.09300508 4.25 -0.125 C5.03890625 -0.14820312 5.8278125 -0.17140625 6.640625 -0.1953125 C9.20731941 0.0171622 10.7916067 0.71345895 13 2 C8.82262526 3.59138085 5.46839215 4.21278058 1 4 C0.67 2.68 0.34 1.36 0 0 Z " fill="#193F57" transform="translate(455,127)"/>
<path d="M0 0 C-0.33 0.99 -0.66 1.98 -1 3 C-4.96 3 -8.92 3 -13 3 C-12.67 2.01 -12.34 1.02 -12 0 C-10.56359829 -0.19573608 -9.12580496 -0.38127816 -7.6875 -0.5625 C-6.88699219 -0.66691406 -6.08648437 -0.77132812 -5.26171875 -0.87890625 C-3 -1 -3 -1 0 0 Z " fill="#06304A" transform="translate(39,126)"/>
<path d="M0 0 C0.66 0 1.32 0 2 0 C3.01351664 1.65848177 4.01120795 3.32665961 5 5 C5.721875 5.70125 6.44375 6.4025 7.1875 7.125 C9 9 9 9 9 12 C5.73324004 10.91108001 5.04206152 10.15148744 2.9375 7.5625 C1.33921326 5.61446095 -0.21573944 3.78426056 -2 2 C-1.34 2 -0.68 2 0 2 C0 1.34 0 0.68 0 0 Z " fill="#304A5F" transform="translate(271,133)"/>
<path d="M0 0 C0 0.66 0 1.32 0 2 C-3.50776784 3.60355101 -6.14354879 4.22036864 -10 4 C-9.67 2.68 -9.34 1.36 -9 0 C-3.375 -1.125 -3.375 -1.125 0 0 Z " fill="#183D55" transform="translate(134,127)"/>
<path d="M0 0 C2.12472576 -0.05386629 4.24983652 -0.09273071 6.375 -0.125 C7.55835938 -0.14820312 8.74171875 -0.17140625 9.9609375 -0.1953125 C13 0 13 0 15 2 C14.625 4.125 14.625 4.125 14 6 C12.68 5.67 11.36 5.34 10 5 C10 4.01 10 3.02 10 2 C6.37 2 2.74 2 -1 2 C-0.67 1.34 -0.34 0.68 0 0 Z " fill="#466373" transform="translate(453,97)"/>
<path d="M0 0 C-1.34680915 2.91271644 -2.87448745 5.29328277 -4.9375 7.75 C-5.69353516 8.67039063 -5.69353516 8.67039063 -6.46484375 9.609375 C-8 11 -8 11 -11 11 C-9.60249952 7.84164893 -7.94801766 5.67727175 -5.5 3.25 C-4.8915625 2.63640625 -4.283125 2.0228125 -3.65625 1.390625 C-2 0 -2 0 0 0 Z " fill="#304A5C" transform="translate(221,149)"/>
<path d="M0 0 C0.66 0 1.32 0 2 0 C1.67854004 0.55719727 1.35708008 1.11439453 1.02587891 1.68847656 C-0.1218 4.27444132 -0.31095759 6.16617406 -0.4140625 8.984375 C-0.45273437 9.91894531 -0.49140625 10.85351562 -0.53125 11.81640625 C-0.5621875 12.78449219 -0.593125 13.75257812 -0.625 14.75 C-0.66367187 15.73355469 -0.70234375 16.71710938 -0.7421875 17.73046875 C-0.83628426 20.15346037 -0.92192328 22.57644796 -1 25 C-1.33 25 -1.66 25 -2 25 C-2.05786668 21.20839703 -2.09355054 17.41690689 -2.125 13.625 C-2.14175781 12.54476562 -2.15851563 11.46453125 -2.17578125 10.3515625 C-2.18222656 9.3203125 -2.18867188 8.2890625 -2.1953125 7.2265625 C-2.20578613 6.27346191 -2.21625977 5.32036133 -2.22705078 4.33837891 C-2 2 -2 2 0 0 Z " fill="#D8E5EC" transform="translate(431,105)"/>
<path d="M0 0 C0.33 0.66 0.66 1.32 1 2 C3.31 2 5.62 2 8 2 C8 2.33 8 2.66 8 3 C7.0925 3.020625 6.185 3.04125 5.25 3.0625 C1.62276269 4.10881846 1.36742851 4.45370668 -0.375 7.5625 C-0.91125 8.696875 -1.4475 9.83125 -2 11 C-3.25 9.4375 -3.25 9.4375 -4 7 C-2.93237266 4.42998985 -1.53455057 2.3469597 0 0 Z " fill="#F4B380" transform="translate(275,67)"/>
<path d="M0 0 C0.66 0 1.32 0 2 0 C3.75747614 4.50353262 4.19294408 8.17639811 4 13 C2 12 2 12 0.875 9.3125 C0.01110926 6.0420565 -0.16013991 3.36293818 0 0 Z " fill="#355166" transform="translate(240,65)"/>
<path d="M0 0 C5.28 0 10.56 0 16 0 C16 0.66 16 1.32 16 2 C14.02 2.99 14.02 2.99 12 4 C12 3.34 12 2.68 12 2 C10.56208484 2.14168137 9.1246763 2.28851043 7.6875 2.4375 C6.88699219 2.51871094 6.08648437 2.59992188 5.26171875 2.68359375 C2.83912821 2.95265693 2.83912821 2.95265693 0 4 C0 2.68 0 1.36 0 0 Z " fill="#0F3349" transform="translate(147,125)"/>
<path d="M0 0 C0.66 0.33 1.32 0.66 2 1 C2.38133299 2.9914056 2.71325582 4.99279077 3 7 C3.33 7.66 3.66 8.32 4 9 C3.01 9.33 2.02 9.66 1 10 C0.54625 9.05125 0.0925 8.1025 -0.375 7.125 C-1.80238254 3.99686321 -1.80238254 3.99686321 -4 2 C-2.125 0.9375 -2.125 0.9375 0 0 Z " fill="#E3B581" transform="translate(267,137)"/>
<path d="M0 0 C3.3 1.98 6.6 3.96 10 6 C9.01 7.485 9.01 7.485 8 9 C6.8450079 8.26418258 5.70125815 7.51069961 4.5625 6.75 C3.60537109 6.12351563 3.60537109 6.12351563 2.62890625 5.484375 C1 4 1 4 0 0 Z " fill="#3E5567" transform="translate(279,124)"/>
<path d="M0 0 C0.33 0 0.66 0 1 0 C0.6875 3.375 0.6875 3.375 0 7 C-3.4352048 9.29013653 -4.985331 9.17842973 -9 9 C-9.33 8.34 -9.66 7.68 -10 7 C-7.03 7.495 -7.03 7.495 -4 8 C-3.34 6.68 -2.68 5.36 -2 4 C-1.34 4 -0.68 4 0 4 C0 2.68 0 1.36 0 0 Z " fill="#415969" transform="translate(258,167)"/>
<path d="M0 0 C3.81936528 1.55603771 6.26044438 3.95604931 9 7 C9 7.66 9 8.32 9 9 C5.18063472 7.44396229 2.73955562 5.04395069 0 2 C0 1.34 0 0.68 0 0 Z " fill="#2F4858" transform="translate(286,151)"/>
<path d="M0 0 C1.32 0 2.64 0 4 0 C5.6442351 4.93270529 4.18615592 7.54024193 2 12 C0.39919849 7.99799622 1.70720308 4.95443764 3 1 C2.01 0.67 1.02 0.34 0 0 Z " fill="#304B62" transform="translate(242,139)"/>
<path d="M0 0 C0 1.32 0 2.64 0 4 C-0.99 3.7834375 -0.99 3.7834375 -2 3.5625 C-5.65599551 2.87700084 -9.30622195 2.43824485 -13 2 C-13 1.67 -13 1.34 -13 1 C-11.39602723 0.83147753 -9.7918131 0.66525114 -8.1875 0.5 C-7.29417969 0.4071875 -6.40085937 0.314375 -5.48046875 0.21875 C-3 0 -3 0 0 0 Z " fill="#486476" transform="translate(468,124)"/>
<path d="M0 0 C1.65 1.65 3.3 3.3 5 5 C4.01 5 3.02 5 2 5 C1.67 5.99 1.34 6.98 1 8 C0.01 7.01 -0.98 6.02 -2 5 C-1.34 3.35 -0.68 1.7 0 0 Z " fill="#EEECEF" transform="translate(287,154)"/>
<path d="M0 0 C1.32 0 2.64 0 4 0 C4.33 1.98 4.66 3.96 5 6 C3.35 6 1.7 6 0 6 C0 4.02 0 2.04 0 0 Z " fill="#0D374E" transform="translate(57,98)"/>
<path d="M0 0 C0.66 0 1.32 0 2 0 C2.33 2.31 2.66 4.62 3 7 C0.36 7 -2.28 7 -5 7 C-5 6.34 -5 5.68 -5 5 C-3.35 5 -1.7 5 0 5 C0 3.35 0 1.7 0 0 Z " fill="#ACC1CF" transform="translate(409,88)"/>
<path d="M0 0 C0.33 0.66 0.66 1.32 1 2 C1.99 2 2.98 2 4 2 C3.34 3.98 2.68 5.96 2 8 C1.01 7.67 0.02 7.34 -1 7 C-1.04254356 5.00045254 -1.04080783 2.99958364 -1 1 C-0.67 0.67 -0.34 0.34 0 0 Z " fill="#0DD4C4" transform="translate(195,140)"/>
<path d="M0 0 C-2.02243866 1.58905894 -3.81460406 2.9205446 -6.1875 3.9375 C-8.20746992 4.85973865 -8.20746992 4.85973865 -8.75 7.125 C-8.8325 7.74375 -8.915 8.3625 -9 9 C-9.36 3.6 -9.36 3.6 -7.875 1.125 C-5.21965017 -0.4682099 -3.03210482 -0.20214032 0 0 Z " fill="#324A5D" transform="translate(200,107)"/>
<path d="M0 0 C0.66 0 1.32 0 2 0 C1.25 6.75 1.25 6.75 -1 9 C-1.66 9.99 -2.32 10.98 -3 12 C-2.49202991 7.6822542 -1.80317221 3.96697886 0 0 Z " fill="#465F71" transform="translate(263,66)"/>
<path d="M0 0 C0 0.99 0 1.98 0 3 C-3.3 3.33 -6.6 3.66 -10 4 C-9.67 3.34 -9.34 2.68 -9 2 C-2.88888889 0 -2.88888889 0 0 0 Z " fill="#364E62" transform="translate(303,99)"/>
<path d="M0 0 C2.64 0 5.28 0 8 0 C8 0.99 8 1.98 8 3 C7.67 2.34 7.34 1.68 7 1 C2.545 2.485 2.545 2.485 -2 4 C-1.34 2.68 -0.68 1.36 0 0 Z " fill="#DA625F" transform="translate(195,76)"/>
<path d="M0 0 C1.5 1.0625 1.5 1.0625 3 3 C3.375 6.5 3.375 6.5 3 10 C1.4765625 11.71875 1.4765625 11.71875 0 13 C0.08378906 12.39671875 0.16757813 11.7934375 0.25390625 11.171875 C0.35574219 10.37265625 0.45757812 9.5734375 0.5625 8.75 C0.66691406 7.96109375 0.77132812 7.1721875 0.87890625 6.359375 C1.00027349 3.99467126 0.69633257 2.2488963 0 0 Z " fill="#F6AC5B" transform="translate(229,158)"/>
<path d="M0 0 C0.99 0.33 1.98 0.66 3 1 C0.33333333 3.66666667 -2.33333333 6.33333333 -5 9 C-5.66 8.67 -6.32 8.34 -7 8 C-4.69 5.36 -2.38 2.72 0 0 Z " fill="#DCE5EB" transform="translate(234,136)"/>
<path d="M0 0 C2.29633824 3.44450737 2.54016485 5.93812283 3 10 C2.01 9.34 1.02 8.68 0 8 C0 6.68 0 5.36 0 4 C-0.66 4 -1.32 4 -2 4 C-1.34 2.68 -0.68 1.36 0 0 Z " fill="#1B323E" transform="translate(242,107)"/>
<path d="M0 0 C3.46941546 0.45822468 6.67395049 0.89131683 10 2 C10.33 1.34 10.66 0.68 11 0 C11.33 0.99 11.66 1.98 12 3 C8.10885099 4.01911045 6.39403493 4.16782969 2.625 2.5625 C1.75875 2.046875 0.8925 1.53125 0 1 C0 0.67 0 0.34 0 0 Z " fill="#3A5367" transform="translate(218,96)"/>
<path d="M0 0 C1.64826111 2.96687001 2.44271087 5.65626525 3 9 C2.01 9 1.02 9 0 9 C-1.125 3.375 -1.125 3.375 0 0 Z " fill="#4D6575" transform="translate(263,152)"/>
<path d="M0 0 C0.66 0.99 1.32 1.98 2 3 C1.01 4.98 0.02 6.96 -1 9 C-1.99 8.34 -2.98 7.68 -4 7 C-2.68 4.69 -1.36 2.38 0 0 Z " fill="#F3B773" transform="translate(232,149)"/>
<path d="M0 0 C0.33 1.65 0.66 3.3 1 5 C-0.65 5.33 -2.3 5.66 -4 6 C-4 5.01 -4 4.02 -4 3 C-3.01 3 -2.02 3 -1 3 C-2.65 2.67 -4.3 2.34 -6 2 C-3 0 -3 0 0 0 Z " fill="#435E71" transform="translate(164,124)"/>
<path d="M0 0 C0 2.62113708 -0.31292445 4.50935112 -1 7 C-1.66 7 -2.32 7 -3 7 C-3 6.34 -3 5.68 -3 5 C-4.32 4.67 -5.64 4.34 -7 4 C-4.69 2.68 -2.38 1.36 0 0 Z " fill="#355467" transform="translate(99,121)"/>
<path d="M0 0 C-2.76223278 2.76223278 -5.20706617 2.57856291 -9 3 C-9 2.34 -9 1.68 -9 1 C-5.64919071 -1.10976881 -3.77897651 -1.0497157 0 0 Z " fill="#3ED1C2" transform="translate(309,136)"/>
<path d="M0 0 C1.32 0 2.64 0 4 0 C4 1.32 4 2.64 4 4 C2.35 4 0.7 4 -1 4 C-0.67 2.68 -0.34 1.36 0 0 Z " fill="#21B3AE" transform="translate(266,124)"/>
<path d="M0 0 C0.66 0.33 1.32 0.66 2 1 C1.67 2.65 1.34 4.3 1 6 C-0.98 6.33 -2.96 6.66 -5 7 C-4.67 6.34 -4.34 5.68 -4 5 C-3.01 5 -2.02 5 -1 5 C-1 4.34 -1 3.68 -1 3 C-1.66 2.67 -2.32 2.34 -3 2 C-2.01 1.34 -1.02 0.68 0 0 Z " fill="#B6C8D0" transform="translate(411,120)"/>
<path d="M0 0 C7.75 0.75 7.75 0.75 10 3 C3.375 3.125 3.375 3.125 0 2 C0 1.34 0 0.68 0 0 Z " fill="#294355" transform="translate(202,100)"/>
<path d="M0 0 C1.32 0 2.64 0 4 0 C4 1.32 4 2.64 4 4 C2.35 3.67 0.7 3.34 -1 3 C-0.67 2.01 -0.34 1.02 0 0 Z " fill="#1BB6B1" transform="translate(236,124)"/>
<path d="M0 0 C1.98 0 3.96 0 6 0 C6.33 0.99 6.66 1.98 7 3 C4.69 2.67 2.38 2.34 0 2 C0 1.34 0 0.68 0 0 Z " fill="#DDE8EF" transform="translate(391,98)"/>
<path d="M0 0 C0.99 0 1.98 0 3 0 C3 0.99 3 1.98 3 3 C2.34 3 1.68 3 1 3 C1.33 3.99 1.66 4.98 2 6 C1.01 6.33 0.02 6.66 -1 7 C-0.67 4.69 -0.34 2.38 0 0 Z " fill="#FD9B31" transform="translate(301,78)"/>
<path d="M0 0 C0.66 0.33 1.32 0.66 2 1 C2.625 3.0625 2.625 3.0625 3 5 C1.1875 5.625 1.1875 5.625 -1 6 C-1.99 5.34 -2.98 4.68 -4 4 C-2.68 3.67 -1.36 3.34 0 3 C0 2.01 0 1.02 0 0 Z " fill="#455E6F" transform="translate(225,123)"/>
<path d="M0 0 C2.475 0.99 2.475 0.99 5 2 C5 4.64 5 7.28 5 10 C4.67 10 4.34 10 4 10 C3.566875 8.3603125 3.566875 8.3603125 3.125 6.6875 C2.18106796 2.95986155 2.18106796 2.95986155 0 0 Z " fill="#3B3F3D" transform="translate(257,105)"/>
<path d="M0 0 C0.66 0.66 1.32 1.32 2 2 C1.625 5.125 1.625 5.125 1 8 C-2 4.25 -2 4.25 -2 2 C-1.34 2 -0.68 2 0 2 C0 1.34 0 0.68 0 0 Z " fill="#11374D" transform="translate(160,100)"/>
<path d="M0 0 C2.475 0.495 2.475 0.495 5 1 C4.67 1.99 4.34 2.98 4 4 C2.68 3.67 1.36 3.34 0 3 C0 2.01 0 1.02 0 0 Z " fill="#D3914C" transform="translate(265,98)"/>
<path d="M0 0 C0.99 0.495 0.99 0.495 2 1 C2 1.99 2 2.98 2 4 C2.99 4 3.98 4 5 4 C4.67 5.32 4.34 6.64 4 8 C1 6 1 6 0.3125 2.875 C0.209375 1.92625 0.10625 0.9775 0 0 Z " fill="#18384F" transform="translate(275,95)"/>
<path d="M0 0 C0.33 0 0.66 0 1 0 C1.125 6.75 1.125 6.75 0 9 C-0.66 9 -1.32 9 -2 9 C-2.33 7.68 -2.66 6.36 -3 5 C-2.34 4.67 -1.68 4.34 -1 4 C-0.34786708 1.97536745 -0.34786708 1.97536745 0 0 Z " fill="#CB605F" transform="translate(206,80)"/>
</svg>
