<?xml version="1.0" encoding="UTF-8"?>
<svg version="1.1" xmlns="http://www.w3.org/2000/svg" width="100" height="100">
<path d="M0 0 C33 0 66 0 100 0 C100 33 100 66 100 100 C67 100 34 100 0 100 C0 67 0 34 0 0 Z " fill="#FAFBFB" transform="translate(0,0)"/>
<path d="M0 0 C1.67542976 0.28604898 3.34385343 0.61781233 5 1 C5.625 3.375 5.625 3.375 6 6 C5.34 6.66 4.68 7.32 4 8 C3.69400937 10.56916657 3.48912913 13.04758384 3.375 15.625 C3.33632813 16.33140625 3.29765625 17.0378125 3.2578125 17.765625 C3.16352276 19.50998524 3.08067109 21.25495691 3 23 C3.66 23 4.32 23 5 23 C5.66 19.04 6.32 15.08 7 11 C7.99 10.67 8.98 10.34 10 10 C9.01 14.62 8.02 19.24 7 24 C12.18516065 18.81483935 13.3354589 14.29082205 13.69140625 7.171875 C14 5 14 5 16 3 C20.55555556 3.55555556 20.55555556 3.55555556 22 5 C22.1875 7.9375 22.1875 7.9375 22 11 C21.34 11.66 20.68 12.32 20 13 C18.68 13 17.36 13 16 13 C15.731875 13.845625 15.46375 14.69125 15.1875 15.5625 C13.9521405 19.13854067 12.523012 22.53860908 11 26 C16.18419194 21.67106815 20.72706118 17.23435005 25 12 C25 16.62638579 21.50307189 19.20755158 18.46679688 22.44140625 C16.88177083 24.16479471 16.88177083 24.16479471 15 27 C15.04462956 29.80987042 15.04462956 29.80987042 16 32 C16.77085938 31.48308594 17.54171875 30.96617188 18.3359375 30.43359375 C19.33882812 29.77488281 20.34171875 29.11617187 21.375 28.4375 C22.87160156 27.44556641 22.87160156 27.44556641 24.3984375 26.43359375 C25.25695312 25.96050781 26.11546875 25.48742187 27 25 C27.66 25.33 28.32 25.66 29 26 C27.54634731 27.17249353 26.08692581 28.33783816 24.625 29.5 C23.40683594 30.47453125 23.40683594 30.47453125 22.1640625 31.46875 C20 33 20 33 18 33 C18 33.99 18 34.98 18 36 C18.68707031 35.7834375 19.37414062 35.566875 20.08203125 35.34375 C20.98308594 35.0653125 21.88414063 34.786875 22.8125 34.5 C23.70582031 34.2215625 24.59914062 33.943125 25.51953125 33.65625 C28 33 28 33 31 33 C31 33.66 31 34.32 31 35 C27.04 35.99 23.08 36.98 19 38 C19 38.99 19 39.98 19 41 C22.96 41 26.92 41 31 41 C31.33 40.01 31.66 39.02 32 38 C33.65 38.33 35.3 38.66 37 39 C37 40.98 37 42.96 37 45 C35.35 45.33 33.7 45.66 32 46 C31.67 45.01 31.34 44.02 31 43 C27.04 43 23.08 43 19 43 C19.33 43.99 19.66 44.98 20 46 C22.56042066 47.03038956 22.56042066 47.03038956 25.5625 47.6875 C26.57441406 47.93886719 27.58632812 48.19023438 28.62890625 48.44921875 C29.41136719 48.63097656 30.19382812 48.81273437 31 49 C31 49.66 31 50.32 31 51 C29.58318366 50.68817931 28.16655349 50.37551263 26.75 50.0625 C25.96109375 49.88847656 25.1721875 49.71445312 24.359375 49.53515625 C22.23121297 49.052444 20.11467158 48.53836822 18 48 C18 48.99 18 49.98 18 51 C18.721875 51.2475 19.44375 51.495 20.1875 51.75 C23 53 23 53 25.375 55.125 C28.75258289 57.53755921 30.93893554 57.15324772 35 57 C37 59 37 59 37.25 61.4375 C37 64 37 64 35 67 C30.25 66.25 30.25 66.25 28 64 C27.88527344 63.20207031 27.77054688 62.40414062 27.65234375 61.58203125 C26.79362591 58.18315406 25.49737395 57.50477395 22.5625 55.6875 C21.35787109 54.91986328 21.35787109 54.91986328 20.12890625 54.13671875 C18.10818597 52.84299726 18.10818597 52.84299726 16 53 C15.15579382 55.27030118 15.15579382 55.27030118 15 58 C16.51300301 60.42106239 16.51300301 60.42106239 18.75 62.5625 C21.36612442 65.27743487 23.80182541 67.93229432 26 71 C25.67 71.66 25.34 72.32 25 73 C24.32453125 72.25234375 23.6490625 71.5046875 22.953125 70.734375 C22.05213732 69.73953444 21.15109262 68.74474551 20.25 67.75 C19.36828125 66.77546875 18.4865625 65.8009375 17.578125 64.796875 C15.43501033 62.4719203 13.25634562 60.21417093 11 58 C11.27714844 58.67546875 11.55429687 59.3509375 11.83984375 60.046875 C12.20207031 60.93890625 12.56429687 61.8309375 12.9375 62.75 C13.29714844 63.63171875 13.65679687 64.5134375 14.02734375 65.421875 C14.85356576 67.61186104 15.49369943 69.71898271 16 72 C16.804375 72.144375 17.60875 72.28875 18.4375 72.4375 C21 73 21 73 22 74 C22.1875 76.9375 22.1875 76.9375 22 80 C21.34 80.66 20.68 81.32 20 82 C15.44444444 81.44444444 15.44444444 81.44444444 14 80 C14.0825 78.88625 14.165 77.7725 14.25 76.625 C14.35434107 70.87580706 11.83924756 65.8955511 9 61 C8.01 60.505 8.01 60.505 7 60 C7.495 61.794375 7.495 61.794375 8 63.625 C8.89265823 67.15791497 9.18296045 70.34079109 9 74 C6.47519307 71.47519307 6.44261367 69.86176966 5.875 66.375 C5.70742188 65.37210937 5.53984375 64.36921875 5.3671875 63.3359375 C5.24601562 62.56507812 5.12484375 61.79421875 5 61 C4.34 61 3.68 61 3 61 C3.11369211 63.45933991 3.24042651 65.9167909 3.375 68.375 C3.4059375 69.07367188 3.436875 69.77234375 3.46875 70.4921875 C3.59499498 74.70185827 3.59499498 74.70185827 6 78 C5.625 80.625 5.625 80.625 5 83 C2.625 83.625 2.625 83.625 0 84 C-0.99 83.01 -0.99 83.01 -2 82 C-1.44444444 77.44444444 -1.44444444 77.44444444 0 76 C0.23653523 73.47403741 0.42173692 70.96892793 0.5625 68.4375 C0.60568359 67.72658203 0.64886719 67.01566406 0.69335938 66.28320312 C0.79971777 64.52238088 0.90038846 62.7612168 1 61 C0.01 61.495 0.01 61.495 -1 62 C-1.91485573 64.80478195 -1.91485573 64.80478195 -2.625 68.0625 C-2.88539062 69.16722656 -3.14578125 70.27195312 -3.4140625 71.41015625 C-3.60742188 72.26480469 -3.80078125 73.11945313 -4 74 C-4.33 74 -4.66 74 -5 74 C-5.09764874 69.21521178 -4.77112541 64.72314313 -4 60 C-5.65 59.67 -7.3 59.34 -9 59 C-14.94 65.93 -14.94 65.93 -21 73 C-21 68.86116457 -19.2470113 67.6490598 -16.5625 64.5625 C-12.63298573 60.33228814 -12.63298573 60.33228814 -11 55 C-11.33 54.01 -11.66 53.02 -12 52 C-13.80421683 53.01977473 -15.59303823 54.06681705 -17.375 55.125 C-18.37273438 55.70507812 -19.37046875 56.28515625 -20.3984375 56.8828125 C-23.4925887 59.40087549 -23.98438266 61.21451719 -25 65 C-25.99 65.99 -25.99 65.99 -27 67 C-28.32 67 -29.64 67 -31 67 C-33.14915785 63.77626323 -33.38286803 62.73296326 -33 59 C-32.34 58.34 -31.68 57.68 -31 57 C-29.96875 57.0825 -28.9375 57.165 -27.875 57.25 C-23.08498091 56.94096651 -21.26300573 55.33716793 -17.69921875 52.3125 C-16 51 -16 51 -14 51 C-14 50.01 -14 49.02 -14 48 C-18.29 48.99 -22.58 49.98 -27 51 C-27 50.34 -27 49.68 -27 49 C-25.56445975 48.49440092 -24.1264798 47.9957251 -22.6875 47.5 C-21.88699219 47.2215625 -21.08648437 46.943125 -20.26171875 46.65625 C-18 46 -18 46 -15 46 C-15 45.01 -15 44.02 -15 43 C-18.96 43 -22.92 43 -27 43 C-27.33 43.99 -27.66 44.98 -28 46 C-29.65 45.67 -31.3 45.34 -33 45 C-33.625 42.625 -33.625 42.625 -34 40 C-33.34 39.34 -32.68 38.68 -32 38 C-29.375 38.375 -29.375 38.375 -27 39 C-27 39.66 -27 40.32 -27 41 C-23.04 41 -19.08 41 -15 41 C-15 40.01 -15 39.02 -15 38 C-16.04800781 37.80083984 -16.04800781 37.80083984 -17.1171875 37.59765625 C-18.02726562 37.42105469 -18.93734375 37.24445312 -19.875 37.0625 C-20.77992187 36.88847656 -21.68484375 36.71445312 -22.6171875 36.53515625 C-25 36 -25 36 -27 35 C-27 34.34 -27 33.68 -27 33 C-25.58318366 33.31182069 -24.16655349 33.62448737 -22.75 33.9375 C-21.96109375 34.11152344 -21.1721875 34.28554688 -20.359375 34.46484375 C-18.23121297 34.947556 -16.11467158 35.46163178 -14 36 C-14 35.01 -14 34.02 -14 33 C-14.721875 32.7525 -15.44375 32.505 -16.1875 32.25 C-19 31 -19 31 -21.375 28.875 C-24.75258289 26.46244079 -26.93893554 26.84675228 -31 27 C-33 25 -33 25 -33.25 22 C-33 19 -33 19 -31 17 C-27.70285207 17.32971479 -26.3773161 17.6226839 -24 20 C-23.814375 20.928125 -23.62875 21.85625 -23.4375 22.8125 C-21.3052784 27.54046964 -17.56292095 28.87814787 -13 31 C-12.34 29.68 -11.68 28.36 -11 27 C-11.61488281 26.33613281 -12.22976562 25.67226563 -12.86328125 24.98828125 C-14.07564453 23.66376953 -14.07564453 23.66376953 -15.3125 22.3125 C-16.11300781 21.44238281 -16.91351562 20.57226562 -17.73828125 19.67578125 C-19.81548337 17.21829688 -21.43831576 14.80496684 -23 12 C-17.86405965 13.91293489 -15.56321362 18.45018111 -12.51171875 22.76171875 C-10.08775153 25.44579606 -10.08775153 25.44579606 -6.20703125 24.83203125 C-4.61955078 24.42017578 -4.61955078 24.42017578 -3 24 C-3.2165625 23.24074219 -3.433125 22.48148438 -3.65625 21.69921875 C-3.9346875 20.70535156 -4.213125 19.71148438 -4.5 18.6875 C-4.7784375 17.70136719 -5.056875 16.71523438 -5.34375 15.69921875 C-6 13 -6 13 -6 10 C-5.34 10 -4.68 10 -4 10 C-3.80664062 10.85464844 -3.61328125 11.70929687 -3.4140625 12.58984375 C-3.02347656 14.24693359 -3.02347656 14.24693359 -2.625 15.9375 C-2.36976562 17.03964844 -2.11453125 18.14179688 -1.8515625 19.27734375 C-1.57054687 20.17582031 -1.28953125 21.07429688 -1 22 C-0.34 22.33 0.32 22.66 1 23 C0.88630789 20.54066009 0.75957349 18.0832091 0.625 15.625 C0.5940625 14.92632812 0.563125 14.22765625 0.53125 13.5078125 C0.40500502 9.29814173 0.40500502 9.29814173 -2 6 C-1.44444444 1.44444444 -1.44444444 1.44444444 0 0 Z " fill="#1C3C53" transform="translate(47,12)"/>
<path d="M0 0 C0.66 0.33 1.32 0.66 2 1 C0.54634731 2.17249353 -0.91307419 3.33783816 -2.375 4.5 C-3.59316406 5.47453125 -3.59316406 5.47453125 -4.8359375 6.46875 C-7 8 -7 8 -9 8 C-9 8.99 -9 9.98 -9 11 C-7.96939453 10.67515625 -7.96939453 10.67515625 -6.91796875 10.34375 C-6.01691406 10.0653125 -5.11585937 9.786875 -4.1875 9.5 C-3.29417969 9.2215625 -2.40085938 8.943125 -1.48046875 8.65625 C1 8 1 8 4 8 C4 8.66 4 9.32 4 10 C0.04 10.99 -3.92 11.98 -8 13 C-8 13.99 -8 14.98 -8 16 C-4.04 16 -0.08 16 4 16 C4.33 15.01 4.66 14.02 5 13 C7.475 13.495 7.475 13.495 10 14 C10 15.98 10 17.96 10 20 C8.35 20.33 6.7 20.66 5 21 C4.505 19.515 4.505 19.515 4 18 C0.04 18 -3.92 18 -8 18 C-7.67 18.99 -7.34 19.98 -7 21 C-4.43957934 22.03038956 -4.43957934 22.03038956 -1.4375 22.6875 C-0.42558594 22.93886719 0.58632812 23.19023438 1.62890625 23.44921875 C2.41136719 23.63097656 3.19382813 23.81273438 4 24 C4 24.66 4 25.32 4 26 C2.58318366 25.68817931 1.16655349 25.37551263 -0.25 25.0625 C-1.03890625 24.88847656 -1.8278125 24.71445312 -2.640625 24.53515625 C-4.76878703 24.052444 -6.88532842 23.53836822 -9 23 C-9 23.99 -9 24.98 -9 26 C-8.278125 26.2475 -7.55625 26.495 -6.8125 26.75 C-4 28 -4 28 -1.625 30.125 C1.75258289 32.53755921 3.93893554 32.15324772 8 32 C10 34 10 34 10.25 36.4375 C10 39 10 39 8 42 C3.25 41.25 3.25 41.25 1 39 C0.88527344 38.20207031 0.77054688 37.40414062 0.65234375 36.58203125 C-0.20637409 33.18315406 -1.50262605 32.50477395 -4.4375 30.6875 C-5.64212891 29.91986328 -5.64212891 29.91986328 -6.87109375 29.13671875 C-8.89181403 27.84299726 -8.89181403 27.84299726 -11 28 C-11.84420618 30.27030118 -11.84420618 30.27030118 -12 33 C-10.48699699 35.42106239 -10.48699699 35.42106239 -8.25 37.5625 C-5.63387558 40.27743487 -3.19817459 42.93229432 -1 46 C-1.495 46.99 -1.495 46.99 -2 48 C-2.67546875 47.25234375 -3.3509375 46.5046875 -4.046875 45.734375 C-4.94786268 44.73953444 -5.84890738 43.74474551 -6.75 42.75 C-7.63171875 41.77546875 -8.5134375 40.8009375 -9.421875 39.796875 C-11.56498967 37.4719203 -13.74365438 35.21417093 -16 33 C-15.58427734 34.01320313 -15.58427734 34.01320313 -15.16015625 35.046875 C-14.79792969 35.93890625 -14.43570313 36.8309375 -14.0625 37.75 C-13.70285156 38.63171875 -13.34320313 39.5134375 -12.97265625 40.421875 C-12.14643424 42.61186104 -11.50630057 44.71898271 -11 47 C-10.195625 47.144375 -9.39125 47.28875 -8.5625 47.4375 C-6 48 -6 48 -5 49 C-4.8125 51.9375 -4.8125 51.9375 -5 55 C-5.66 55.66 -6.32 56.32 -7 57 C-11.55555556 56.44444444 -11.55555556 56.44444444 -13 55 C-12.9175 53.88625 -12.835 52.7725 -12.75 51.625 C-12.64565893 45.87580706 -15.16075244 40.8955511 -18 36 C-18.66 35.67 -19.32 35.34 -20 35 C-19.67 36.19625 -19.34 37.3925 -19 38.625 C-18.10734177 42.15791497 -17.81703955 45.34079109 -18 49 C-20.52480693 46.47519307 -20.55738633 44.86176966 -21.125 41.375 C-21.29257812 40.37210938 -21.46015625 39.36921875 -21.6328125 38.3359375 C-21.75398438 37.56507812 -21.87515625 36.79421875 -22 36 C-22.66 36 -23.32 36 -24 36 C-23.88630789 38.45933991 -23.75957349 40.9167909 -23.625 43.375 C-23.5940625 44.07367188 -23.563125 44.77234375 -23.53125 45.4921875 C-23.40500502 49.70185827 -23.40500502 49.70185827 -21 53 C-21.375 55.625 -21.375 55.625 -22 58 C-24.375 58.625 -24.375 58.625 -27 59 C-27.66 58.34 -28.32 57.68 -29 57 C-28.44444444 52.44444444 -28.44444444 52.44444444 -27 51 C-26.76346477 48.47403741 -26.57826308 45.96892793 -26.4375 43.4375 C-26.39431641 42.72658203 -26.35113281 42.01566406 -26.30664062 41.28320312 C-26.20028223 39.52238088 -26.09961154 37.7612168 -26 36 C-26.99 36.495 -26.99 36.495 -28 37 C-28.91485573 39.80478195 -28.91485573 39.80478195 -29.625 43.0625 C-29.88539062 44.16722656 -30.14578125 45.27195313 -30.4140625 46.41015625 C-30.60742188 47.26480469 -30.80078125 48.11945313 -31 49 C-31.33 49 -31.66 49 -32 49 C-32.09764874 44.21521178 -31.77112541 39.72314313 -31 35 C-32.65 34.01 -34.3 33.02 -36 32 C-35.34 30.68 -34.68 29.36 -34 28 C-33.34 28 -32.68 28 -32 28 C-32 27.01 -32 26.02 -32 25 C-30.9375 23.3125 -30.9375 23.3125 -29 22 C-25.3125 21.8125 -25.3125 21.8125 -22 22 C-21.855625 20.80375 -21.71125 19.6075 -21.5625 18.375 C-21.12960657 14.8994842 -20.60383744 11.45049966 -20 8 C-18.35 8.66 -16.7 9.32 -15 10 C-14.896875 9.360625 -14.79375 8.72125 -14.6875 8.0625 C-14.460625 7.381875 -14.23375 6.70125 -14 6 C-13.01 5.67 -12.02 5.34 -11 5 C-11 5.66 -11 6.32 -11 7 C-9.84371094 6.22462891 -9.84371094 6.22462891 -8.6640625 5.43359375 C-7.66117188 4.77488281 -6.65828125 4.11617187 -5.625 3.4375 C-4.62726563 2.77621094 -3.62953125 2.11492188 -2.6015625 1.43359375 C-1.74304688 0.96050781 -0.88453125 0.48742188 0 0 Z " fill="#10344D" transform="translate(74,37)"/>
<path d="M0 0 C1.67542976 0.28604898 3.34385343 0.61781233 5 1 C5.625 3.375 5.625 3.375 6 6 C5.34 6.66 4.68 7.32 4 8 C3.69400937 10.56916657 3.48912913 13.04758384 3.375 15.625 C3.31699219 16.68460938 3.31699219 16.68460938 3.2578125 17.765625 C3.16352276 19.50998524 3.08067109 21.25495691 3 23 C3.66 23 4.32 23 5 23 C5.66 19.04 6.32 15.08 7 11 C7.99 10.67 8.98 10.34 10 10 C9.01 14.62 8.02 19.24 7 24 C12.18516065 18.81483935 13.3354589 14.29082205 13.69140625 7.171875 C14 5 14 5 16 3 C20.55555556 3.55555556 20.55555556 3.55555556 22 5 C22.1875 7.9375 22.1875 7.9375 22 11 C21.34 11.66 20.68 12.32 20 13 C18.68 13 17.36 13 16 13 C15.731875 13.845625 15.46375 14.69125 15.1875 15.5625 C13.9521405 19.13854067 12.523012 22.53860908 11 26 C16.18419194 21.67106815 20.72706118 17.23435005 25 12 C25 16.15885005 22.69744539 17.98621737 20.0625 20.9375 C15.93499427 25.37973844 15.93499427 25.37973844 14 31 C13.36345658 32.3479743 12.70394612 33.68596724 12 35 C10.68 34.67 9.36 34.34 8 34 C8 34.66 8 35.32 8 36 C7.34 36 6.68 36 6 36 C5.67 36.66 5.34 37.32 5 38 C4.2575 37.79375 3.515 37.5875 2.75 37.375 C-0.32330841 36.95591249 -1.42786866 37.38050989 -4 39 C-5 36 -5 36 -5 35 C-5.99 35 -6.98 35 -8 35 C-8 33.02 -8 31.04 -8 29 C-6.68 29 -5.36 29 -4 29 C-4.99 28.01 -5.98 27.02 -7 26 C-6.67 25.34 -6.34 24.68 -6 24 C-5.01 24 -4.02 24 -3 24 C-3.2165625 23.24074219 -3.433125 22.48148438 -3.65625 21.69921875 C-3.9346875 20.70535156 -4.213125 19.71148438 -4.5 18.6875 C-4.7784375 17.70136719 -5.056875 16.71523438 -5.34375 15.69921875 C-6 13 -6 13 -6 10 C-5.34 10 -4.68 10 -4 10 C-3.80664062 10.85464844 -3.61328125 11.70929687 -3.4140625 12.58984375 C-3.15367188 13.69457031 -2.89328125 14.79929687 -2.625 15.9375 C-2.36976562 17.03964844 -2.11453125 18.14179688 -1.8515625 19.27734375 C-1.57054687 20.17582031 -1.28953125 21.07429688 -1 22 C-0.34 22.33 0.32 22.66 1 23 C0.88630789 20.54066009 0.75957349 18.0832091 0.625 15.625 C0.5940625 14.92632812 0.563125 14.22765625 0.53125 13.5078125 C0.40500502 9.29814173 0.40500502 9.29814173 -2 6 C-1.44444444 1.44444444 -1.44444444 1.44444444 0 0 Z " fill="#1A3446" transform="translate(47,12)"/>
<path d="M0 0 C4.55555556 0.55555556 4.55555556 0.55555556 6 2 C6.1875 4.9375 6.1875 4.9375 6 8 C5.34 8.66 4.68 9.32 4 10 C2.68 10 1.36 10 0 10 C-0.4021875 11.2684375 -0.4021875 11.2684375 -0.8125 12.5625 C-2.0478595 16.13854067 -3.476988 19.53860908 -5 23 C-5.99 22.34 -6.98 21.68 -8 21 C-7.65066406 20.46632813 -7.30132812 19.93265625 -6.94140625 19.3828125 C-3.77031022 14.19047963 -2.41941267 10.1581419 -2.23828125 4.06640625 C-2 2 -2 2 0 0 Z " fill="#E26B59" transform="translate(63,15)"/>
<path d="M0 0 C0.99 0.66 1.98 1.32 3 2 C2.566875 2.68964844 2.13375 3.37929687 1.6875 4.08984375 C-2.14710567 10.56074083 -3.4741969 14.53139887 -3 22 C-3.66 22.66 -4.32 23.32 -5 24 C-9.55555556 23.44444444 -9.55555556 23.44444444 -11 22 C-11.1875 19.0625 -11.1875 19.0625 -11 16 C-10.34 15.34 -9.68 14.68 -9 14 C-7.68 14 -6.36 14 -5 14 C-4.70996094 13.11248047 -4.70996094 13.11248047 -4.4140625 12.20703125 C-3.05585281 8.0853355 -1.67949415 4.0049476 0 0 Z " fill="#F6A650" transform="translate(40,70)"/>
<path d="M0 0 C4.55555556 0.55555556 4.55555556 0.55555556 6 2 C5.9175 3.299375 5.835 4.59875 5.75 5.9375 C5.63720367 11.78410994 8.10996768 16.05598042 11 21 C10.34 21.33 9.68 21.66 9 22 C8.16180842 20.37750059 7.3295884 18.75191503 6.5 17.125 C6.0359375 16.22007813 5.571875 15.31515625 5.09375 14.3828125 C4 12 4 12 4 10 C3.21625 9.87625 2.4325 9.7525 1.625 9.625 C-1 9 -1 9 -3 7 C-2.67028521 3.70285207 -2.3773161 2.3773161 0 0 Z " fill="#F9A951" transform="translate(31,15)"/>
<path d="M0 0 C0.28617188 0.57492188 0.57234375 1.14984375 0.8671875 1.7421875 C1.59316658 3.1891389 2.3268655 4.63225808 3.0703125 6.0703125 C3.59238281 7.08738281 3.59238281 7.08738281 4.125 8.125 C4.47820313 8.80820313 4.83140625 9.49140625 5.1953125 10.1953125 C6 12 6 12 6 14 C6.804375 14.144375 7.60875 14.28875 8.4375 14.4375 C11 15 11 15 12 16 C12.1875 18.9375 12.1875 18.9375 12 22 C11.34 22.66 10.68 23.32 10 24 C5.44444444 23.44444444 5.44444444 23.44444444 4 22 C4.0825 20.88625 4.165 19.7725 4.25 18.625 C4.35477166 12.84160419 1.75852816 7.96535069 -1 3 C-1.66 2.34 -2.32 1.68 -3 1 C-2.01 0.67 -1.02 0.34 0 0 Z " fill="#E16756" transform="translate(57,70)"/>
<path d="M0 0 C2.4375 0.8125 2.4375 0.8125 4.4375 2.8125 C4.82036803 6.54546326 4.58665785 7.58876323 2.4375 10.8125 C-0.5625 11.1875 -0.5625 11.1875 -3.5625 10.8125 C-5.71752531 7.57996204 -6.03106135 6.56099077 -5.5625 2.8125 C-3.86282344 0.12880016 -3.19877434 -0.23405666 0 0 Z " fill="#E09239" transform="translate(49.5625,48.1875)"/>
<path d="M0 0 C1.98 0 3.96 0 6 0 C5.01 0.495 5.01 0.495 4 1 C4.11369211 3.45933991 4.24042651 5.9167909 4.375 8.375 C4.4059375 9.07367188 4.436875 9.77234375 4.46875 10.4921875 C4.59499498 14.70185827 4.59499498 14.70185827 7 18 C6.625 20.625 6.625 20.625 6 23 C3.625 23.625 3.625 23.625 1 24 C0.34 23.34 -0.32 22.68 -1 22 C-0.44444444 17.44444444 -0.44444444 17.44444444 1 16 C1.23653523 13.47403741 1.42173692 10.96892793 1.5625 8.4375 C1.60568359 7.72658203 1.64886719 7.01566406 1.69335938 6.28320312 C1.79971777 4.52238088 1.90038846 2.7612168 2 1 C1.34 0.67 0.68 0.34 0 0 Z " fill="#365267" transform="translate(46,72)"/>
<path d="M0 0 C1.67542976 0.28604898 3.34385343 0.61781233 5 1 C5.625 3.375 5.625 3.375 6 6 C5.34 6.66 4.68 7.32 4 8 C3.69400937 10.56916657 3.48912913 13.04758384 3.375 15.625 C3.33632813 16.33140625 3.29765625 17.0378125 3.2578125 17.765625 C3.16352276 19.50998524 3.08067109 21.25495691 3 23 C2.34 23 1.68 23 1 23 C0.95101562 21.94039062 0.90203125 20.88078125 0.8515625 19.7890625 C0.77653291 18.40101503 0.70098515 17.01299549 0.625 15.625 C0.5940625 14.92632812 0.563125 14.22765625 0.53125 13.5078125 C0.40500502 9.29814173 0.40500502 9.29814173 -2 6 C-1.44444444 1.44444444 -1.44444444 1.44444444 0 0 Z " fill="#365267" transform="translate(47,12)"/>
<path d="M0 0 C3.29714793 0.32971479 4.6226839 0.6226839 7 3 C7.3125 5.5 7.3125 5.5 7 8 C4 10 4 10 1.375 9.6875 C-1 9 -1 9 -2 8 C-2.1875 5.0625 -2.1875 5.0625 -2 2 C-1.34 1.34 -0.68 0.68 0 0 Z " fill="#DE534F" transform="translate(16,29)"/>
<path d="M0 0 C2.375 0.75 2.375 0.75 3.375 1.75 C3.08769945 4.08944736 2.75563221 6.4239143 2.375 8.75 C0.0625 9.375 0.0625 9.375 -2.625 9.75 C-3.615 9.09 -4.605 8.43 -5.625 7.75 C-6.06961083 4.8600296 -6.01251234 3.36186159 -4.4375 0.875 C-2.625 -0.25 -2.625 -0.25 0 0 Z " fill="#F8A343" transform="translate(80.625,29.25)"/>
<path d="M0 0 C5.56818182 0.56818182 5.56818182 0.56818182 7 2 C7.29978682 4.84797478 7.40071289 6.41896632 5.75 8.8125 C4 10 4 10 0 10 C-2.14915785 6.77626323 -2.38286803 5.73296326 -2 2 C-1.34 1.34 -0.68 0.68 0 0 Z " fill="#23D3C4" transform="translate(16,69)"/>
<path d="M0 0 C2.375 0.6875 2.375 0.6875 3.375 1.6875 C3.66886153 5.40974599 3.52309171 6.46536243 1.375 9.6875 C-3.375 8.9375 -3.375 8.9375 -5.625 6.6875 C-5.9375 4.1875 -5.9375 4.1875 -5.625 1.6875 C-2.625 -0.3125 -2.625 -0.3125 0 0 Z " fill="#24D4C2" transform="translate(80.625,69.3125)"/>
<path d="M0 0 C1.65 0.33 3.3 0.66 5 1 C5 2.98 5 4.96 5 7 C3.35 7.33 1.7 7.66 0 8 C-0.33 7.01 -0.66 6.02 -1 5 C-4.96 5 -8.92 5 -13 5 C-13 4.34 -13 3.68 -13 3 C-9.04 3 -5.08 3 -1 3 C-0.67 2.01 -0.34 1.02 0 0 Z " fill="#29455B" transform="translate(79,50)"/>
<path d="M0 0 C0.66 0.99 1.32 1.98 2 3 C4.64047252 4.01752555 4.64047252 4.01752555 7.625 4.6875 C8.62789062 4.93886719 9.63078125 5.19023438 10.6640625 5.44921875 C11.43492188 5.63097656 12.20578125 5.81273437 13 6 C13 6.66 13 7.32 13 8 C11.58318366 7.68817931 10.16655349 7.37551263 8.75 7.0625 C7.96109375 6.88847656 7.1721875 6.71445312 6.359375 6.53515625 C4.23121297 6.052444 2.11467158 5.53836822 0 5 C0 5.99 0 6.98 0 8 C0.70125 8.226875 1.4025 8.45375 2.125 8.6875 C5.69343613 10.31656867 8.06514511 12.40640731 11 15 C10.01 15.495 10.01 15.495 9 16 C6.3984375 14.77734375 6.3984375 14.77734375 3.375 12.9375 C2.37210937 12.34839844 1.36921875 11.75929688 0.3359375 11.15234375 C-2 9 -2 9 -2.3359375 5.75390625 C-2.22507813 4.84511719 -2.11421875 3.93632813 -2 3 C-1.34 3 -0.68 3 0 3 C0 2.01 0 1.02 0 0 Z " fill="#395368" transform="translate(65,55)"/>
<path d="M0 0 C0.99 0.33 1.98 0.66 3 1 C3 4 3 4 1 6.1875 C0.34 6.785625 -0.32 7.38375 -1 8 C-0.34 8.33 0.32 8.66 1 9 C0.360625 9.61875 -0.27875 10.2375 -0.9375 10.875 C-5.14668062 15.07201536 -9.04656399 19.56422757 -13 24 C-13 19.93333161 -11.42798332 18.93943291 -8.75 15.9375 C-4.5061177 10.92504059 -1.93846268 6.24916991 0 0 Z " fill="#3B5567" transform="translate(39,61)"/>
<path d="M0 0 C0.84304687 1.05767578 0.84304687 1.05767578 1.703125 2.13671875 C4.03469097 5.04324571 6.38858553 7.93018528 8.75 10.8125 C9.54921875 11.78832031 10.3484375 12.76414062 11.171875 13.76953125 C11.77515625 14.50558594 12.3784375 15.24164063 13 16 C12.67 16.66 12.34 17.32 12 18 C10.4147483 16.2725597 8.83177374 14.54312043 7.25 12.8125 C6.36828125 11.84957031 5.4865625 10.88664062 4.578125 9.89453125 C2.29020637 7.32582261 0.11918393 4.70839628 -2 2 C-1.34 2 -0.68 2 0 2 C0 1.34 0 0.68 0 0 Z " fill="#3B5567" transform="translate(60,67)"/>
<path d="M0 0 C4.0352998 1.54426052 5.9494858 4.13977869 8.5625 7.5 C10.97713155 10.5946374 12.72421308 12.81614205 16 15 C13.35963216 14.88415205 11.55711734 14.4958853 9.55615234 12.71484375 C8.03866087 11.01909427 6.60371876 9.28114562 5.1875 7.5 C4.68541016 6.89285156 4.18332031 6.28570312 3.66601562 5.66015625 C0 1.18113308 0 1.18113308 0 0 Z " fill="#455D6F" transform="translate(24,24)"/>
<path d="M0 0 C0 4.20547571 -2.36738124 6.16710361 -5 9.1875 C-5.47695312 9.74630859 -5.95390625 10.30511719 -6.4453125 10.88085938 C-7.62366206 12.25952836 -8.81098952 13.63051472 -10 15 C-10.99 14.67 -11.98 14.34 -13 14 C-12.56429687 13.57589844 -12.12859375 13.15179688 -11.6796875 12.71484375 C-7.54991517 8.64764373 -3.71958871 4.44536212 0 0 Z " fill="#3E586B" transform="translate(72,24)"/>
<path d="M0 0 C2 1 2 1 4 4 C2.35 3.67 0.7 3.34 -1 3 C-1.33 4.65 -1.66 6.3 -2 8 C-2.99 7.34 -3.98 6.68 -5 6 C-4.1875 3.5625 -4.1875 3.5625 -3 1 C-2.01 0.67 -1.02 0.34 0 0 Z " fill="#072A45" transform="translate(40,38)"/>
<path d="M0 0 C0 0.66 0 1.32 0 2 C-3.96 2.99 -7.92 3.98 -12 5 C-12.33 4.34 -12.66 3.68 -13 3 C-11.39743892 2.49487756 -9.79288208 1.99608373 -8.1875 1.5 C-7.29417969 1.2215625 -6.40085937 0.943125 -5.48046875 0.65625 C-3 0 -3 0 0 0 Z " fill="#53697B" transform="translate(78,45)"/>
<path d="M0 0 C0.33 0.66 0.66 1.32 1 2 C2.0828125 2.4021875 2.0828125 2.4021875 3.1875 2.8125 C6.7868931 4.33224375 9.07750315 6.41732837 12 9 C11.01 9.495 11.01 9.495 10 10 C7.3984375 8.56640625 7.3984375 8.56640625 4.375 6.5625 C3.37210937 5.90378906 2.36921875 5.24507813 1.3359375 4.56640625 C0.56507812 4.04949219 -0.20578125 3.53257813 -1 3 C-0.67 2.01 -0.34 1.02 0 0 Z " fill="#415B6D" transform="translate(64,61)"/>
<path d="M0 0 C1.41805831 0.28482368 2.83440379 0.57818144 4.25 0.875 C5.03890625 1.03742187 5.8278125 1.19984375 6.640625 1.3671875 C8.96831144 1.99150075 10.89031952 2.84838542 13 4 C9.57056481 5.18771723 7.62215325 4.80226223 4.25 3.5625 C3.45078125 3.27503906 2.6515625 2.98757812 1.828125 2.69140625 C1.22484375 2.46324219 0.6215625 2.23507813 0 2 C0 1.34 0 0.68 0 0 Z " fill="#506777" transform="translate(20,45)"/>
<path d="M0 0 C0.66 0 1.32 0 2 0 C2.55582752 1.95436127 3.09428713 3.91366982 3.625 5.875 C3.92664062 6.96554688 4.22828125 8.05609375 4.5390625 9.1796875 C4.69117188 10.11039063 4.84328125 11.04109375 5 12 C4.34 12.66 3.68 13.32 3 14 C2.49528803 12.23050388 1.99639315 10.45934777 1.5 8.6875 C1.2215625 7.70136719 0.943125 6.71523438 0.65625 5.69921875 C0 3 0 3 0 0 Z " fill="#576E81" transform="translate(41,22)"/>
<path d="M0 0 C1.79275866 3.11910856 2.34290718 5.67682428 2.625 9.25 C2.69976562 10.14203125 2.77453125 11.0340625 2.8515625 11.953125 C2.92503906 12.96632813 2.92503906 12.96632813 3 14 C0.49360113 11.49360113 0.4120229 9.89489895 -0.1875 6.4375 C-0.36667969 5.44621094 -0.54585937 4.45492187 -0.73046875 3.43359375 C-0.81941406 2.63050781 -0.90835938 1.82742187 -1 1 C-0.67 0.67 -0.34 0.34 0 0 Z " fill="#576D7E" transform="translate(53,72)"/>
<path d="M0 0 C0.66 0 1.32 0 2 0 C2 4.95 2 9.9 2 15 C1.67 15 1.34 15 1 15 C0.67 12.03 0.34 9.06 0 6 C-0.33 6 -0.66 6 -1 6 C-1.042721 4.33388095 -1.04063832 2.66617115 -1 1 C-0.67 0.67 -0.34 0.34 0 0 Z " fill="#EDF1F3" transform="translate(46,73)"/>
<path d="M0 0 C0.66 0 1.32 0 2 0 C1.01 4.62 0.02 9.24 -1 14 C-1.66 13.67 -2.32 13.34 -3 13 C-2.69240822 11.02006459 -2.3787932 9.04106401 -2.0625 7.0625 C-1.88847656 5.96035156 -1.71445312 4.85820312 -1.53515625 3.72265625 C-1 1 -1 1 0 0 Z " fill="#556C7D" transform="translate(55,22)"/>
<path d="M0 0 C0.99 0.33 1.98 0.66 3 1 C2.67 2.65 2.34 4.3 2 6 C0.35 6 -1.3 6 -3 6 C-2.34 5.67 -1.68 5.34 -1 5 C-0.34444881 2.47266765 -0.34444881 2.47266765 0 0 Z " fill="#FB9E33" transform="translate(50,52)"/>
<path d="M0 0 C0.99 0.33 1.98 0.66 3 1 C3 4 3 4 1 6.1875 C0.34 6.785625 -0.32 7.38375 -1 8 C-0.34 8.33 0.32 8.66 1 9 C0.01 9 -0.98 9 -2 9 C-1.41196203 5.97580475 -0.77321882 2.98241547 0 0 Z " fill="#1D707C" transform="translate(39,61)"/>
<path d="M0 0 C2.12038635 2.61514317 4.13091744 5.19637616 6 8 C3 8 3 8 1.61328125 6.6875 C0.40885417 5.125 -0.79557292 3.5625 -2 2 C-1.34 2 -0.68 2 0 2 C0 1.34 0 0.68 0 0 Z " fill="#4E667A" transform="translate(60,67)"/>
<path d="M0 0 C1.32 0 2.64 0 4 0 C4 0.66 4 1.32 4 2 C3.01 2.33 2.02 2.66 1 3 C-0.20882096 5.00016466 -0.20882096 5.00016466 -1 7 C-1.625 5.1875 -1.625 5.1875 -2 3 C-1.34 2.01 -0.68 1.02 0 0 Z " fill="#1E3C53" transform="translate(79,50)"/>
</svg>
