<?xml version="1.0" encoding="UTF-8"?>
<svg version="1.1" xmlns="http://www.w3.org/2000/svg" width="173" height="240">
<path d="M0 0 C2.5 1.5625 2.5 1.5625 4 4 C3.9375 7.625 3.9375 7.625 3 11 C2.01 11.66 1.02 12.32 0 13 C-0.41527124 15.12694665 -0.41527124 15.12694665 -0.29296875 17.5703125 C-0.28330078 18.46621094 -0.27363281 19.36210938 -0.26367188 20.28515625 C-0.23853516 21.22230469 -0.21339844 22.15945312 -0.1875 23.125 C-0.17396484 24.06988281 -0.16042969 25.01476562 -0.14648438 25.98828125 C-0.11106306 28.32608779 -0.06167271 30.66276237 0 33 C2.35193241 28.48922705 3.54510134 23.7889061 4.90234375 18.8984375 C6 16 6 16 9 14 C10.52018673 18.84738787 9.36863709 22.58250839 8.0625 27.3125 C7.86720703 28.05306641 7.67191406 28.79363281 7.47070312 29.55664062 C6.9900719 31.37366113 6.49633486 33.18720614 6 35 C6.99 35 7.98 35 9 35 C9.26425781 34.27941406 9.52851562 33.55882812 9.80078125 32.81640625 C11.40249751 29.05472082 13.61338386 25.81010276 15.85546875 22.40234375 C17.21242159 20.11277622 17.21242159 20.11277622 16.72265625 17.84375 C16.36494141 16.93109375 16.36494141 16.93109375 16 16 C14.97093683 12.6555447 14.74670933 11.5186428 16.3125 8.3125 C18 6 18 6 20 4 C22.05859375 3.69921875 22.05859375 3.69921875 24.4375 3.6875 C25.61119141 3.66236328 25.61119141 3.66236328 26.80859375 3.63671875 C29.52778948 4.08749451 30.3658325 4.81102255 32 7 C32.81024071 10.42794145 33.34856361 12.92526221 32.25 16.3125 C31 18 31 18 28 20 C24.8125 20.125 24.8125 20.125 22 20 C21.61714844 21.04220703 21.61714844 21.04220703 21.2265625 22.10546875 C19.85034172 25.35317449 18.17460687 28.27982916 16.375 31.3125 C15.42753906 32.91544922 15.42753906 32.91544922 14.4609375 34.55078125 C13.97882813 35.35902344 13.49671875 36.16726562 13 37 C13.66 37.33 14.32 37.66 15 38 C16.0828125 36.9171875 16.0828125 36.9171875 17.1875 35.8125 C18.89843948 34.10156052 20.61143451 32.39266908 22.328125 30.6875 C24.15758813 28.84733826 25.96532041 26.98538663 27.75390625 25.10546875 C28.69005336 24.1327636 29.62625155 23.16010761 30.5625 22.1875 C31.03107422 21.68541016 31.49964844 21.18332031 31.98242188 20.66601562 C33.37890625 19.23046875 33.37890625 19.23046875 36 17 C37.32 17 38.64 17 40 17 C39.47113167 21.08335544 37.40370962 22.94353018 34.52734375 25.765625 C33.62822266 26.65507813 32.72910156 27.54453125 31.80273438 28.4609375 C30.38444336 29.84152344 30.38444336 29.84152344 28.9375 31.25 C27.97783027 32.19461673 27.01883771 33.13992195 26.06054688 34.0859375 C23.71361172 36.39749172 21.35996609 38.7017634 19 41 C19.99 42.65 20.98 44.3 22 46 C28.56238963 43.97626907 34.55550308 41.23185897 40 37 C41.42246076 34.23238613 41.58652346 32.15275861 42 29 C43.625 26.5 43.625 26.5 46 25 C50.01954939 24.20601493 52.96597323 24.37958394 56.5 26.5 C58.30293091 29.50488484 58.47744877 31.55672118 58.53125 35 C57.74649086 37.95438736 56.42050195 39.18050703 54 41 C51.546875 41.0390625 51.546875 41.0390625 48.75 40.625 C39.71482921 40.2000786 33.05067446 45.9893684 26 51 C26.33 51.66 26.66 52.32 27 53 C28.18078125 52.71125 29.3615625 52.4225 30.578125 52.125 C32.13535952 51.74976277 33.69265438 51.37477586 35.25 51 C36.02730469 50.80921875 36.80460937 50.6184375 37.60546875 50.421875 C38.35957031 50.24140625 39.11367187 50.0609375 39.890625 49.875 C40.58188477 49.70742187 41.27314453 49.53984375 41.98535156 49.3671875 C44 49 44 49 48 49 C47.67 50.32 47.34 51.64 47 53 C46.42967041 53.13575439 45.85934082 53.27150879 45.27172852 53.41137695 C42.69855839 54.03176273 40.13069099 54.67182905 37.5625 55.3125 C36.66466797 55.52583984 35.76683594 55.73917969 34.84179688 55.95898438 C33.56079102 56.28286133 33.56079102 56.28286133 32.25390625 56.61328125 C31.06776733 56.90392456 31.06776733 56.90392456 29.85766602 57.20043945 C29.24463623 57.46429443 28.63160645 57.72814941 28 58 C27.67 58.99 27.34 59.98 27 61 C29.91884528 60.93994146 32.83261639 60.85291384 35.75 60.75 C36.9875 60.72873047 36.9875 60.72873047 38.25 60.70703125 C43.24865569 60.5824787 43.24865569 60.5824787 47.35546875 57.953125 C48.16951172 56.98632812 48.16951172 56.98632812 49 56 C52.82389746 56 55.05611336 56.14745723 57.9375 58.75 C59.23370853 61.49491218 59.52487013 63.00074212 59 66 C57.375 68.3125 57.375 68.3125 55 70 C52 70.5 52 70.5 49 70 C48.20335937 69.01773438 48.20335937 69.01773438 47.390625 68.015625 C43.79694752 64.98566163 40.31600798 65.32847826 35.75 65.25 C34.48929688 65.20552734 34.48929688 65.20552734 33.203125 65.16015625 C31.1359285 65.08968364 29.06795967 65.04255061 27 65 C27.33 65.99 27.66 66.98 28 68 C29.90796894 68.88190182 29.90796894 68.88190182 32.25390625 69.38671875 C33.10791016 69.60263672 33.96191406 69.81855469 34.84179688 70.04101562 C35.73962891 70.25435547 36.63746094 70.46769531 37.5625 70.6875 C38.46419922 70.91244141 39.36589844 71.13738281 40.29492188 71.36914062 C42.5273736 71.92430058 44.76209786 72.4673167 47 73 C47.33 74.32 47.66 75.64 48 77 C39.97229811 76.44636539 32.66145933 74.34312056 25 72 C26.46707469 76.40122407 29.50425996 77.7576867 33.3125 80.1875 C34.03147461 80.64656738 34.75044922 81.10563477 35.49121094 81.57861328 C40.97383731 84.85772515 45.103909 85.91478442 51.546875 84.9609375 C54 85 54 85 56.29296875 86.7265625 C58.54657766 89.72793639 58.64927023 91.44970516 58.4453125 95.09375 C58 97 58 97 55.9375 99.5 C52.29233869 101.36135897 50.0459428 101.51493817 46 101 C43.625 100 43.625 100 42 98 C41.979375 96.7625 41.95875 95.525 41.9375 94.25 C41.88122079 92.0814654 41.88122079 92.0814654 41 90 C37.64008087 87.11175063 33.89371344 85.08686134 30 83 C28.60258821 82.19021778 27.206435 81.37825251 25.8125 80.5625 C24.884375 80.046875 23.95625 79.53125 23 79 C20.85432087 80.72855926 20.85432087 80.72855926 19 83 C19.33996098 86.18648807 20.429473 87.78322134 22.72265625 89.9453125 C23.26083984 90.46480469 23.79902344 90.98429687 24.35351562 91.51953125 C24.91748047 92.04933594 25.48144531 92.57914062 26.0625 93.125 C28.09264864 95.04684332 30.05555231 96.98809787 32 99 C32 99.66 32 100.32 32 101 C33.485 101.495 33.485 101.495 35 102 C40 107.34883721 40 107.34883721 40 111 C36.7822479 110.42123945 35.17294633 109.53739079 32.90625 107.19921875 C32.35066406 106.63396484 31.79507813 106.06871094 31.22265625 105.48632812 C30.65417969 104.89271484 30.08570312 104.29910156 29.5 103.6875 C28.64728516 102.81448242 28.64728516 102.81448242 27.77734375 101.92382812 C26.67539181 100.79503049 25.57755648 99.66219582 24.484375 98.52490234 C23.21698645 97.22291075 21.90914649 95.9605016 20.59375 94.70703125 C19 93 19 93 19 91 C17.02 90.01 17.02 90.01 15 89 C15 88.34 15 87.68 15 87 C14.01 87.495 14.01 87.495 13 88 C15.04060655 94.62701836 17.94084548 103.5243618 24.1328125 107.30078125 C26.06620025 107.93929861 28.03265155 108.47537375 30 109 C32.0625 110.75 32.0625 110.75 33 113 C32.93146246 116.90663966 32.87650389 119.12349611 30.0625 121.9375 C28 123 28 123 26 123 C25.67 123.66 25.34 124.32 25 125 C23.68397477 124.38245741 22.37226444 123.75571258 21.0625 123.125 C20.33160156 122.77695313 19.60070312 122.42890625 18.84765625 122.0703125 C17 121 17 121 16 119 C15.76890595 112.76046065 15.76890595 112.76046065 16.60888672 109.99633789 C17.30986425 106.41837707 14.86630759 103.45712537 13.125 100.4375 C9.07832168 93.23496503 9.07832168 93.23496503 8 90 C7.34 90.66 6.68 91.32 6 92 C6.51665546 94.70204869 7.12369322 97.23842651 7.875 99.875 C9.01992845 104.00412906 10 107.66747941 10 112 C8.02 111.505 8.02 111.505 6 111 C5.85900879 110.45996338 5.71801758 109.91992676 5.57275391 109.36352539 C4.93181099 106.92757486 4.27858573 104.49508733 3.625 102.0625 C3.40328125 101.21236328 3.1815625 100.36222656 2.953125 99.48632812 C2.73398438 98.67744141 2.51484375 97.86855469 2.2890625 97.03515625 C2.09006348 96.2862915 1.89106445 95.53742676 1.68603516 94.76586914 C1.14745029 92.79382033 1.14745029 92.79382033 -1 92 C-1 99.26 -1 106.52 -1 114 C0.98 114.99 0.98 114.99 3 116 C3.33 116.33 3.66 116.66 4 117 C3.6559633 123.19266055 3.6559633 123.19266055 1.375 126 C-2.11581787 127.46981805 -4.39148956 126.98413921 -8 126 C-10 124.3125 -10 124.3125 -11 122 C-10.9375 118.875 -10.9375 118.875 -10 116 C-7.94140625 114.8203125 -7.94140625 114.8203125 -6 114 C-6.00523682 113.40461426 -6.01047363 112.80922852 -6.01586914 112.19580078 C-6.03661999 109.50554453 -6.04965407 106.81530511 -6.0625 104.125 C-6.07087891 103.18785156 -6.07925781 102.25070313 -6.08789062 101.28515625 C-6.09111328 100.38925781 -6.09433594 99.49335938 -6.09765625 98.5703125 C-6.10289307 97.74289551 -6.10812988 96.91547852 -6.11352539 96.06298828 C-6 94 -6 94 -5 92 C-5.99 92.33 -6.98 92.66 -8 93 C-8.87977381 94.80898216 -8.87977381 94.80898216 -9.38671875 97.03515625 C-9.60263672 97.84404297 -9.81855469 98.65292969 -10.04101562 99.48632812 C-10.25435547 100.33646484 -10.46769531 101.18660156 -10.6875 102.0625 C-10.91244141 102.91650391 -11.13738281 103.77050781 -11.36914062 104.65039062 C-11.92417305 106.76423753 -12.46719069 108.88046244 -13 111 C-14.32 111 -15.64 111 -17 111 C-16.51205116 106.2018364 -15.83183253 102.46509178 -14 98 C-13.6186926 95.67402489 -13.27539746 93.34087842 -13 91 C-13.99 90.505 -13.99 90.505 -15 90 C-15.37898438 91.29744141 -15.37898438 91.29744141 -15.765625 92.62109375 C-17.44618717 97.22136678 -20.06411876 101.01342573 -22.734375 105.09765625 C-24.33777422 107.91744195 -24.33777422 107.91744195 -23.1953125 110.64453125 C-22.80085938 111.42183594 -22.40640625 112.19914062 -22 113 C-22.21115538 119.12350598 -22.21115538 119.12350598 -24.6875 121.875 C-27.58163748 123.28295877 -29.77298936 123.86828528 -33 124 C-36.52906067 122.39588152 -37.82772908 121.25840638 -40 118 C-39.92347654 113.79120962 -39.68166064 111.71953068 -36.75 108.625 C-34 107 -34 107 -31.6328125 106.89453125 C-27.36650429 105.44499923 -26.14335932 101.90335812 -24.125 98.0625 C-23.70992187 97.32064453 -23.29484375 96.57878906 -22.8671875 95.81445312 C-21.29654258 92.97026749 -21.29654258 92.97026749 -20 90 C-20.33 89.34 -20.66 88.68 -21 88 C-23.54595106 90.51653641 -26.08594455 93.03900794 -28.625 95.5625 C-29.33785156 96.26697266 -30.05070312 96.97144531 -30.78515625 97.69726562 C-35.07914281 101.971555 -39.12162594 106.34472767 -43 111 C-44.32 110.67 -45.64 110.34 -47 110 C-45.58261511 106.74792908 -43.87473588 104.68638933 -41.3125 102.25 C-35.77740131 96.85553902 -30.75811238 91.09038384 -26 85 C-27.15173355 82.53199953 -28.04783565 80.95216435 -30 79 C-30.7113208 79.45439453 -30.7113208 79.45439453 -31.43701172 79.91796875 C-33.58007621 81.28331246 -35.72745138 82.64172139 -37.875 84 C-38.62136719 84.47695312 -39.36773437 84.95390625 -40.13671875 85.4453125 C-40.85214844 85.89648438 -41.56757812 86.34765625 -42.3046875 86.8125 C-42.96452637 87.23144531 -43.62436523 87.65039062 -44.30419922 88.08203125 C-46 89 -46 89 -48 89 C-47.896875 90.051875 -47.79375 91.10375 -47.6875 92.1875 C-48 96 -48 96 -50.0625 98.9375 C-53 101 -53 101 -56.5 101.625 C-60.9297642 100.83397068 -62.39210172 99.63525215 -65 96 C-65.625 93 -65.625 93 -65 90 C-62.9375 87.125 -62.9375 87.125 -60 85 C-56.17735999 84.60455448 -53.63782632 84.78739123 -50 86 C-47.95459916 85.00349784 -47.95459916 85.00349784 -45.875 83.4375 C-45.08996094 82.88449219 -44.30492188 82.33148438 -43.49609375 81.76171875 C-42.67238281 81.18035156 -41.84867188 80.59898437 -41 80 C-38.55509801 78.42537986 -36.10630155 76.85734047 -33.65234375 75.296875 C-33.10707031 74.86890625 -32.56179687 74.4409375 -32 74 C-32 73.34 -32 72.68 -32 72 C-32.73863281 72.27714844 -33.47726563 72.55429688 -34.23828125 72.83984375 C-41.21577147 75.33117126 -47.59734613 76.70855693 -55 77 C-54.67 75.68 -54.34 74.36 -54 73 C-47.4 71.35 -40.8 69.7 -34 68 C-34 67.01 -34 66.02 -34 65 C-36.91884528 65.06005854 -39.83261639 65.14708616 -42.75 65.25 C-43.575 65.26417969 -44.4 65.27835937 -45.25 65.29296875 C-50.24706756 65.42961186 -50.24706756 65.42961186 -54.390625 68.015625 C-55.18726563 68.99789062 -55.18726563 68.99789062 -56 70 C-59.6717087 70.61195145 -61.28813568 70.48706506 -64.375 68.375 C-66 66 -66 66 -66.5625 63 C-66 60 -66 60 -63.8125 57.625 C-60.75367423 55.85767844 -59.44653179 55.29301912 -56 56 C-55.48050781 56.65484375 -54.96101563 57.3096875 -54.42578125 57.984375 C-50.79954593 60.99747874 -47.33290044 60.6712314 -42.75 60.75 C-41.48929688 60.79447266 -41.48929688 60.79447266 -40.203125 60.83984375 C-38.1359285 60.91031636 -36.06795967 60.95744939 -34 61 C-34 59.68 -34 58.36 -34 57 C-35.0725 56.896875 -36.145 56.79375 -37.25 56.6875 C-42.95287077 55.9900266 -48.45572761 54.46923218 -54 53 C-54.33 51.68 -54.66 50.36 -55 49 C-47.47407567 49.6377902 -40.32901118 51.19889833 -33 53 C-32.505 52.01 -32.505 52.01 -32 51 C-34.55781875 49.51219708 -37.12070266 48.03466662 -39.6875 46.5625 C-40.40873047 46.14162109 -41.12996094 45.72074219 -41.87304688 45.28710938 C-46.91585205 42.40879592 -50.58649214 40.82760658 -56.5 41.25 C-60 41 -60 41 -62.9375 38.875 C-65 36 -65 36 -65.625 33 C-64.76936783 28.89296559 -63.38121991 27.44598887 -60 25 C-56.36732318 24.49015062 -54.03196341 24.59264602 -50.625 25.9375 C-48.03972967 29.21880464 -48.17081544 32.92605169 -48 37 C-47.360625 37.226875 -46.72125 37.45375 -46.0625 37.6875 C-34.72727273 42.54545455 -34.72727273 42.54545455 -33 46 C-30.55519921 45.81171228 -30.55519921 45.81171228 -28 45 C-26.81531734 43.00613134 -26.81531734 43.00613134 -26 41 C-26.63615234 40.37955811 -27.27230469 39.75911621 -27.92773438 39.11987305 C-30.28191531 36.8167856 -32.6292171 34.50711632 -34.97216797 32.19262695 C-35.98804107 31.19185072 -37.00658897 30.19378218 -38.02783203 29.19848633 C-39.49440941 27.7682527 -40.95112563 26.32859157 -42.40625 24.88671875 C-43.28603516 24.02264404 -44.16582031 23.15856934 -45.07226562 22.26831055 C-47 20 -47 20 -47 17 C-43.05287019 17.51675988 -41.12853421 18.38069629 -38.37109375 21.23828125 C-37.72849609 21.89376953 -37.08589844 22.54925781 -36.42382812 23.22460938 C-35.76833984 23.91361328 -35.11285156 24.60261719 -34.4375 25.3125 C-33.77814453 25.98990234 -33.11878906 26.66730469 -32.43945312 27.36523438 C-31.17284795 28.66748271 -29.91134307 29.97471729 -28.65576172 31.28759766 C-27.3141277 32.67512656 -25.93053881 34.02200491 -24.53515625 35.35546875 C-23 37 -23 37 -23 39 C-21.02 38.505 -21.02 38.505 -19 38 C-20.45708069 35.18387676 -21.97233902 32.40337758 -23.5 29.625 C-23.90992188 28.8309375 -24.31984375 28.036875 -24.7421875 27.21875 C-27.10160952 22.84052115 -27.10160952 22.84052115 -31.05859375 20.07617188 C-33.01827207 19.61725986 -35.00981513 19.30017251 -37 19 C-39.594761 16.72958413 -39.93030392 15.46795942 -40.4375 12.0625 C-39.88875892 8.22131244 -38.80483983 6.65322687 -36 4 C-32.48412205 2.47962035 -31.0051383 2.99834529 -27.3125 4.1875 C-24 6 -24 6 -22.5 7.8125 C-21.59389911 11.77669138 -22.7409879 15.22296369 -24 19 C-22.86715607 21.72917034 -22.86715607 21.72917034 -21.1875 24.5625 C-20.64480469 25.53316406 -20.10210937 26.50382812 -19.54296875 27.50390625 C-18.0979664 30.05514616 -18.0979664 30.05514616 -16 32 C-16 32.99 -16 33.98 -16 35 C-15.01 34.67 -14.02 34.34 -13 34 C-13.433125 32.57107422 -13.433125 32.57107422 -13.875 31.11328125 C-14.24625 29.85902344 -14.6175 28.60476562 -15 27.3125 C-15.37125 26.07113281 -15.7425 24.82976562 -16.125 23.55078125 C-16.87703457 20.4989981 -17.19034899 18.11101638 -17 15 C-15.140625 15.10546875 -15.140625 15.10546875 -13 16 C-11.734375 18.80078125 -11.734375 18.80078125 -10.75 22.3125 C-10.41484375 23.46363281 -10.0796875 24.61476563 -9.734375 25.80078125 C-9 29 -9 29 -9 33 C-8.01 33 -7.02 33 -6 33 C-6.05194909 29.74870364 -6.147037 26.50004935 -6.25 23.25 C-6.26417969 22.32960938 -6.27835938 21.40921875 -6.29296875 20.4609375 C-6.38628776 15.05864458 -6.38628776 15.05864458 -9.015625 10.515625 C-9.67046875 10.01546875 -10.3253125 9.5153125 -11 9 C-11.5 6.5 -11.5 6.5 -11 4 C-8.00375133 -0.43444803 -5.14731601 -0.73533086 0 0 Z " fill="#0B2B44" transform="translate(88,58)"/>
<path d="M0 0 C1.20825195 1.67504883 1.20825195 1.67504883 1.20825195 3.67504883 C1.86825195 3.67504883 2.52825195 3.67504883 3.20825195 3.67504883 C4.52825195 5.98504883 5.84825195 8.29504883 7.20825195 10.67504883 C7.86825195 10.67504883 8.52825195 10.67504883 9.20825195 10.67504883 C9.18762695 9.87067383 9.16700195 9.06629883 9.14575195 8.23754883 C9.20825195 5.67504883 9.20825195 5.67504883 10.20825195 4.67504883 C12.20783559 4.634241 14.20870449 4.63250527 16.20825195 4.67504883 C15.71325195 3.19004883 15.71325195 3.19004883 15.20825195 1.67504883 C16.52825195 1.01504883 17.84825195 0.35504883 19.20825195 -0.32495117 C20.03583008 0.34020508 20.8634082 1.00536133 21.71606445 1.69067383 C25.42679127 4.16449171 28.78403543 3.94995317 33.08325195 3.42504883 C33.77161133 3.35930664 34.4599707 3.29356445 35.16918945 3.22583008 C36.85095133 3.06232545 38.53001769 2.87148337 40.20825195 2.67504883 C40.20825195 3.33504883 40.20825195 3.99504883 40.20825195 4.67504883 C42.18825195 4.67504883 44.16825195 4.67504883 46.20825195 4.67504883 C45.87825195 6.98504883 45.54825195 9.29504883 45.20825195 11.67504883 C46.19825195 12.17004883 46.19825195 12.17004883 47.20825195 12.67504883 C47.20825195 12.01504883 47.20825195 11.35504883 47.20825195 10.67504883 C48.19825195 11.00504883 49.18825195 11.33504883 50.20825195 11.67504883 C49.87825195 12.33504883 49.54825195 12.99504883 49.20825195 13.67504883 C48.54825195 13.67504883 47.88825195 13.67504883 47.20825195 13.67504883 C47.20825195 14.33504883 47.20825195 14.99504883 47.20825195 15.67504883 C45.55825195 15.67504883 43.90825195 15.67504883 42.20825195 15.67504883 C42.20825195 16.66504883 42.20825195 17.65504883 42.20825195 18.67504883 C38.90340488 19.56481535 35.58229221 20.11270878 32.20825195 20.67504883 C30.87088102 20.99179458 29.53536388 21.31774946 28.20825195 21.67504883 C27.71325195 20.68504883 27.71325195 20.68504883 27.20825195 19.67504883 C24.34100509 20.2484982 23.34680045 20.53650033 21.20825195 22.67504883 C19.88825195 22.01504883 18.56825195 21.35504883 17.20825195 20.67504883 C16.82926758 21.97249023 16.82926758 21.97249023 16.44262695 23.29614258 C14.76206478 27.89641561 12.1441332 31.68847456 9.47387695 35.77270508 C7.87047773 38.59249078 7.87047773 38.59249078 9.01293945 41.31958008 C9.60461914 42.48553711 9.60461914 42.48553711 10.20825195 43.67504883 C9.99709657 49.7985548 9.99709657 49.7985548 7.52075195 52.55004883 C4.62661448 53.9580076 2.4352626 54.54333411 -0.79174805 54.67504883 C-4.32080871 53.07093034 -5.61947712 51.93345521 -7.79174805 48.67504883 C-7.71522459 44.46625844 -7.47340869 42.39457951 -4.54174805 39.30004883 C-1.79174805 37.67504883 -1.79174805 37.67504883 0.57543945 37.56958008 C4.84174766 36.12004806 6.06489263 32.57840694 8.08325195 28.73754883 C8.70586914 27.62476563 8.70586914 27.62476563 9.34106445 26.48950195 C10.91170937 23.64531631 10.91170937 23.64531631 12.20825195 20.67504883 C11.71325195 19.68504883 11.71325195 19.68504883 11.20825195 18.67504883 C8.66230089 21.19158524 6.1223074 23.71405677 3.58325195 26.23754883 C2.87040039 26.94202148 2.15754883 27.64649414 1.4230957 28.37231445 C-2.87089086 32.64660383 -6.91337399 37.0197765 -10.79174805 41.67504883 C-12.11174805 41.34504883 -13.43174805 41.01504883 -14.79174805 40.67504883 C-13.37436316 37.42297791 -11.66648393 35.36143816 -9.10424805 32.92504883 C-3.56914935 27.53058785 1.45013958 21.76543267 6.20825195 15.67504883 C5.0565184 13.20704836 4.1604163 11.62721317 2.20825195 9.67504883 C1.73403809 9.97797852 1.25982422 10.2809082 0.77124023 10.59301758 C-1.37182426 11.95836129 -3.51919943 13.31677021 -5.66674805 14.67504883 C-6.41311523 15.15200195 -7.15948242 15.62895508 -7.9284668 16.12036133 C-8.64389648 16.5715332 -9.35932617 17.02270508 -10.09643555 17.48754883 C-10.75627441 17.90649414 -11.41611328 18.32543945 -12.09594727 18.75708008 C-13.79174805 19.67504883 -13.79174805 19.67504883 -15.79174805 19.67504883 C-15.68862305 20.72692383 -15.58549805 21.77879883 -15.47924805 22.86254883 C-15.79174805 26.67504883 -15.79174805 26.67504883 -17.85424805 29.61254883 C-20.79174805 31.67504883 -20.79174805 31.67504883 -24.29174805 32.30004883 C-28.72151225 31.50901951 -30.18384977 30.31030097 -32.79174805 26.67504883 C-33.41674805 23.67504883 -33.41674805 23.67504883 -32.79174805 20.67504883 C-30.72924805 17.80004883 -30.72924805 17.80004883 -27.79174805 15.67504883 C-23.96910804 15.27960331 -21.42957437 15.46244006 -17.79174805 16.67504883 C-15.74634721 15.67854667 -15.74634721 15.67854667 -13.66674805 14.11254883 C-12.48918945 13.28303711 -12.48918945 13.28303711 -11.2878418 12.43676758 C-10.46413086 11.85540039 -9.64041992 11.2740332 -8.79174805 10.67504883 C-6.34684606 9.10042869 -3.8980496 7.5323893 -1.4440918 5.97192383 C-0.89881836 5.54395508 -0.35354492 5.11598633 0.20825195 4.67504883 C0.20825195 4.01504883 0.20825195 3.35504883 0.20825195 2.67504883 C-0.53038086 2.95219727 -1.26901367 3.2293457 -2.0300293 3.51489258 C-9.00751952 6.00622009 -15.38909417 7.38360576 -22.79174805 7.67504883 C-22.46174805 6.35504883 -22.13174805 5.03504883 -21.79174805 3.67504883 C-18.52831359 2.7505947 -15.25545897 1.86554641 -11.97924805 0.98754883 C-10.58609375 0.59212891 -10.58609375 0.59212891 -9.16479492 0.1887207 C-8.27211914 -0.0465332 -7.37944336 -0.28178711 -6.4597168 -0.52416992 C-5.63753662 -0.74935303 -4.81535645 -0.97453613 -3.96826172 -1.20654297 C-1.79174805 -1.32495117 -1.79174805 -1.32495117 0 0 Z " fill="#092E48" transform="translate(55.791748046875,127.324951171875)"/>
<path d="M0 0 C1.65 0 3.3 0 5 0 C5.70074844 3.153368 6 5.72724974 6 9 C7.65 9 9.3 9 11 9 C10.34 9.99 9.68 10.98 9 12 C8.4161804 14.9149255 8.4161804 14.9149255 9 18 C11.48122379 21.35694984 12.94365169 22.78441871 17.0625 23.625 C20.13840991 23.21257308 20.13840991 23.21257308 22.4375 20.9375 C24.46795741 17.12024006 24.0703178 15.12836868 23 11 C22.01 9.515 22.01 9.515 21 8 C22.65 8.66 24.3 9.32 26 10 C25.98839844 10.91523437 25.97679688 11.83046875 25.96484375 12.7734375 C25.95582031 13.96195313 25.94679688 15.15046875 25.9375 16.375 C25.92589844 17.55835937 25.91429688 18.74171875 25.90234375 19.9609375 C25.78533407 22.91921521 25.78533407 22.91921521 27 25 C14.47124338 27.54007668 14.47124338 27.54007668 10.83984375 26.20703125 C9.3125 25.0625 9.3125 25.0625 7 23 C6.01 23.33 5.02 23.66 4 24 C4 24.99 4 25.98 4 27 C1.03 27.495 1.03 27.495 -2 28 C-2 30.31 -2 32.62 -2 35 C-5.35435922 33.61198929 -7.11290303 32.11371 -9 29 C-9 28.01 -9 27.02 -9 26 C-9.66 26 -10.32 26 -11 26 C-11 25.34 -11 24.68 -11 24 C-11.66 23.67 -12.32 23.34 -13 23 C-13.625 20.4375 -13.625 20.4375 -14 18 C-16.91884528 18.06005854 -19.83261639 18.14708616 -22.75 18.25 C-23.9875 18.27126953 -23.9875 18.27126953 -25.25 18.29296875 C-30.24706756 18.42961186 -30.24706756 18.42961186 -34.390625 21.015625 C-34.92171875 21.67046875 -35.4528125 22.3253125 -36 23 C-39.6717087 23.61195145 -41.28813568 23.48706506 -44.375 21.375 C-46 19 -46 19 -46.5625 16 C-46 13 -46 13 -43.8125 10.625 C-40.75367423 8.85767844 -39.44653179 8.29301912 -36 9 C-35.22076172 9.98226562 -35.22076172 9.98226562 -34.42578125 10.984375 C-30.79954593 13.99747874 -27.33290044 13.6712314 -22.75 13.75 C-21.90953125 13.77964844 -21.0690625 13.80929688 -20.203125 13.83984375 C-18.1359285 13.91031636 -16.06795967 13.95744939 -14 14 C-14 12.68 -14 11.36 -14 10 C-15.0725 9.896875 -16.145 9.79375 -17.25 9.6875 C-22.95287077 8.9900266 -28.45572761 7.46923218 -34 6 C-34.33 4.68 -34.66 3.36 -35 2 C-28.37838723 2.56115362 -22.24082587 3.85145689 -15.8203125 5.57421875 C-12.80134687 6.35339747 -12.80134687 6.35339747 -10 4 C-6.88772805 4 -4.05847848 4.45627049 -1 5 C-0.67 3.35 -0.34 1.7 0 0 Z " fill="#0C2B45" transform="translate(68,105)"/>
<path d="M0 0 C2.62526276 1.75017517 2.94398718 2.80180078 3.8125 5.875 C4 9 4 9 2.83984375 11.33984375 C1.68727076 14.04276529 1.68727076 14.04276529 3.046875 16.82421875 C3.60890625 17.76910156 4.1709375 18.71398437 4.75 19.6875 C5.57757813 21.11642578 5.57757813 21.11642578 6.421875 22.57421875 C7.91601232 25.05409013 7.91601232 25.05409013 10 27 C10.4375 29.375 10.4375 29.375 10 32 C5.89189189 36 5.89189189 36 3 36 C2.896875 36.598125 2.79375 37.19625 2.6875 37.8125 C1.89505679 40.33391022 0.88056492 41.19465768 -1 43 C-1.69216095 44.32027855 -2.36220264 45.65261856 -3 47 C-14.60978275 41.36925537 -14.60978275 41.36925537 -19.0625 38.125 C-23.16308196 35.39699777 -26.72645446 35.90739507 -31.5 36.1328125 C-34 36 -34 36 -37.1875 33.875 C-39.34663968 30.45015775 -39.82630866 28.96628159 -39 25 C-36.9375 22.125 -36.9375 22.125 -34 20 C-30.36732318 19.49015062 -28.03196341 19.59264602 -24.625 20.9375 C-22.03972967 24.21880464 -22.17081544 27.92605169 -22 32 C-21.360625 32.226875 -20.72125 32.45375 -20.0625 32.6875 C-8.72727273 37.54545455 -8.72727273 37.54545455 -7 41 C-4.55519921 40.81171228 -4.55519921 40.81171228 -2 40 C-0.81531734 38.00613134 -0.81531734 38.00613134 0 36 C-0.63615234 35.37955811 -1.27230469 34.75911621 -1.92773438 34.11987305 C-4.28191531 31.8167856 -6.6292171 29.50711632 -8.97216797 27.19262695 C-9.98804107 26.19185072 -11.00658897 25.19378218 -12.02783203 24.19848633 C-13.49440941 22.7682527 -14.95112563 21.32859157 -16.40625 19.88671875 C-17.28603516 19.02264404 -18.16582031 18.15856934 -19.07226562 17.26831055 C-21 15 -21 15 -21 12 C-17.05287019 12.51675988 -15.12853421 13.38069629 -12.37109375 16.23828125 C-11.72849609 16.89376953 -11.08589844 17.54925781 -10.42382812 18.22460938 C-9.76833984 18.91361328 -9.11285156 19.60261719 -8.4375 20.3125 C-7.77814453 20.98990234 -7.11878906 21.66730469 -6.43945312 22.36523438 C-5.17284795 23.66748271 -3.91134307 24.97471729 -2.65576172 26.28759766 C-1.3141277 27.67512656 0.06946119 29.02200491 1.46484375 30.35546875 C3 32 3 32 3 34 C4.98 33.505 4.98 33.505 7 33 C5.54291931 30.18387676 4.02766098 27.40337758 2.5 24.625 C2.09007812 23.8309375 1.68015625 23.036875 1.2578125 22.21875 C-1.10160952 17.84052115 -1.10160952 17.84052115 -5.05859375 15.07617188 C-7.01827207 14.61725986 -9.00981513 14.30017251 -11 14 C-13.594761 11.72958413 -13.93030392 10.46795942 -14.4375 7.0625 C-13.89613959 3.27297711 -12.68326641 1.68326641 -10 -1 C-5.99788181 -2.3340394 -3.92036356 -1.40012984 0 0 Z " fill="#213647" transform="translate(62,63)"/>
<path d="M0 0 C1.20825195 1.67504883 1.20825195 1.67504883 1.20825195 3.67504883 C1.86825195 3.67504883 2.52825195 3.67504883 3.20825195 3.67504883 C4.52825195 5.98504883 5.84825195 8.29504883 7.20825195 10.67504883 C7.86825195 10.67504883 8.52825195 10.67504883 9.20825195 10.67504883 C10.19825195 10.67504883 11.18825195 10.67504883 12.20825195 10.67504883 C12.86825195 11.33504883 13.52825195 11.99504883 14.20825195 12.67504883 C13.21825195 13.33504883 12.22825195 13.99504883 11.20825195 14.67504883 C11.86825195 15.33504883 12.52825195 15.99504883 13.20825195 16.67504883 C12.54825195 16.67504883 11.88825195 16.67504883 11.20825195 16.67504883 C10.94109375 17.26890381 10.67393555 17.86275879 10.39868164 18.47460938 C9.18989566 20.70897936 7.97774798 22.12257267 6.16137695 23.88208008 C5.56325195 24.46924805 4.96512695 25.05641602 4.34887695 25.66137695 C3.7249707 26.26401367 3.10106445 26.86665039 2.45825195 27.48754883 C-2.22137251 32.0333281 -6.60867105 36.6643385 -10.79174805 41.67504883 C-12.11174805 41.34504883 -13.43174805 41.01504883 -14.79174805 40.67504883 C-13.37436316 37.42297791 -11.66648393 35.36143816 -9.10424805 32.92504883 C-3.56914935 27.53058785 1.45013958 21.76543267 6.20825195 15.67504883 C5.0565184 13.20704836 4.1604163 11.62721317 2.20825195 9.67504883 C1.73403809 9.97797852 1.25982422 10.2809082 0.77124023 10.59301758 C-1.37182426 11.95836129 -3.51919943 13.31677021 -5.66674805 14.67504883 C-6.41311523 15.15200195 -7.15948242 15.62895508 -7.9284668 16.12036133 C-8.64389648 16.5715332 -9.35932617 17.02270508 -10.09643555 17.48754883 C-10.75627441 17.90649414 -11.41611328 18.32543945 -12.09594727 18.75708008 C-13.79174805 19.67504883 -13.79174805 19.67504883 -15.79174805 19.67504883 C-15.68862305 20.72692383 -15.58549805 21.77879883 -15.47924805 22.86254883 C-15.79174805 26.67504883 -15.79174805 26.67504883 -17.85424805 29.61254883 C-20.79174805 31.67504883 -20.79174805 31.67504883 -24.29174805 32.30004883 C-28.72151225 31.50901951 -30.18384977 30.31030097 -32.79174805 26.67504883 C-33.41674805 23.67504883 -33.41674805 23.67504883 -32.79174805 20.67504883 C-30.72924805 17.80004883 -30.72924805 17.80004883 -27.79174805 15.67504883 C-23.96910804 15.27960331 -21.42957437 15.46244006 -17.79174805 16.67504883 C-15.74634721 15.67854667 -15.74634721 15.67854667 -13.66674805 14.11254883 C-12.48918945 13.28303711 -12.48918945 13.28303711 -11.2878418 12.43676758 C-10.46413086 11.85540039 -9.64041992 11.2740332 -8.79174805 10.67504883 C-6.34684606 9.10042869 -3.8980496 7.5323893 -1.4440918 5.97192383 C-0.89881836 5.54395508 -0.35354492 5.11598633 0.20825195 4.67504883 C0.20825195 4.01504883 0.20825195 3.35504883 0.20825195 2.67504883 C-0.53038086 2.95219727 -1.26901367 3.2293457 -2.0300293 3.51489258 C-9.00751952 6.00622009 -15.38909417 7.38360576 -22.79174805 7.67504883 C-22.46174805 6.35504883 -22.13174805 5.03504883 -21.79174805 3.67504883 C-18.52831359 2.7505947 -15.25545897 1.86554641 -11.97924805 0.98754883 C-10.58609375 0.59212891 -10.58609375 0.59212891 -9.16479492 0.1887207 C-8.27211914 -0.0465332 -7.37944336 -0.28178711 -6.4597168 -0.52416992 C-5.63753662 -0.74935303 -4.81535645 -0.97453613 -3.96826172 -1.20654297 C-1.79174805 -1.32495117 -1.79174805 -1.32495117 0 0 Z " fill="#132D3F" transform="translate(55.791748046875,127.324951171875)"/>
<path d="M0 0 C0.99 0.66 1.98 1.32 3 2 C2.20142578 2.49693359 2.20142578 2.49693359 1.38671875 3.00390625 C-0.4154368 5.10619454 -0.4154368 5.10619454 0.58203125 8.65234375 C0.97462808 10.08565487 1.38558731 11.5140329 1.8125 12.9375 C2.98667676 17.0526747 4 20.66971906 4 25 C2.68 24.67 1.36 24.34 0 24 C-0.14099121 23.45996338 -0.28198242 22.91992676 -0.42724609 22.36352539 C-1.06818901 19.92757486 -1.72141427 17.49508733 -2.375 15.0625 C-2.59671875 14.21236328 -2.8184375 13.36222656 -3.046875 12.48632812 C-3.26601562 11.67744141 -3.48515625 10.86855469 -3.7109375 10.03515625 C-3.90993652 9.2862915 -4.10893555 8.53742676 -4.31396484 7.76586914 C-4.85254971 5.79382033 -4.85254971 5.79382033 -7 5 C-7 12.26 -7 19.52 -7 27 C-5.68 27.66 -4.36 28.32 -3 29 C-2.67 29.33 -2.34 29.66 -2 30 C-2.3440367 36.19266055 -2.3440367 36.19266055 -4.625 39 C-8.11581787 40.46981805 -10.39148956 39.98413921 -14 39 C-16 37.3125 -16 37.3125 -17 35 C-16.9375 31.875 -16.9375 31.875 -16 29 C-13.94140625 27.8203125 -13.94140625 27.8203125 -12 27 C-12.00523682 26.40461426 -12.01047363 25.80922852 -12.01586914 25.19580078 C-12.03661999 22.50554453 -12.04965407 19.81530511 -12.0625 17.125 C-12.07506836 15.71927734 -12.07506836 15.71927734 -12.08789062 14.28515625 C-12.09111328 13.38925781 -12.09433594 12.49335938 -12.09765625 11.5703125 C-12.10289307 10.74289551 -12.10812988 9.91547852 -12.11352539 9.06298828 C-12 7 -12 7 -11 5 C-11.99 5.33 -12.98 5.66 -14 6 C-14.87977381 7.80898216 -14.87977381 7.80898216 -15.38671875 10.03515625 C-15.60263672 10.84404297 -15.81855469 11.65292969 -16.04101562 12.48632812 C-16.25435547 13.33646484 -16.46769531 14.18660156 -16.6875 15.0625 C-16.91244141 15.91650391 -17.13738281 16.77050781 -17.36914062 17.65039062 C-17.92417305 19.76423753 -18.46719069 21.88046244 -19 24 C-20.32 24 -21.64 24 -23 24 C-22.51518083 19.23261148 -21.92239914 15.41020978 -20 11 C-19.71125 9.80375 -19.4225 8.6075 -19.125 7.375 C-18 4 -18 4 -16.125 2.0625 C-14 1 -14 1 -10 1 C-9.67 1.66 -9.34 2.32 -9 3 C-8.01 2.67 -7.02 2.34 -6 2 C-4.00038436 1.96079185 -1.99950636 1.95556653 0 2 C0 1.34 0 0.68 0 0 Z " fill="#142D43" transform="translate(94,145)"/>
<path d="M0 0 C2.5 1.5625 2.5 1.5625 4 4 C3.9375 7.625 3.9375 7.625 3 11 C2.01 11.66 1.02 12.32 0 13 C-0.41527124 15.12694665 -0.41527124 15.12694665 -0.29296875 17.5703125 C-0.2784668 18.91416016 -0.2784668 18.91416016 -0.26367188 20.28515625 C-0.2259668 21.69087891 -0.2259668 21.69087891 -0.1875 23.125 C-0.17396484 24.06988281 -0.16042969 25.01476562 -0.14648438 25.98828125 C-0.11106306 28.32608779 -0.06167271 30.66276237 0 33 C2.35193241 28.48922705 3.54510134 23.7889061 4.90234375 18.8984375 C6 16 6 16 9 14 C10.68637231 19.03892085 9.11883569 22.96469718 7.5625 27.8125 C7.31951172 28.60076172 7.07652344 29.38902344 6.82617188 30.20117188 C6.22772569 32.13732129 5.61524123 34.06912181 5 36 C4.34 35.67 3.68 35.34 3 35 C2.071875 35.2475 2.071875 35.2475 1.125 35.5 C-1.30962448 36.07285282 -2.6585126 35.80740945 -5 35 C-6.60172584 33.39827416 -6.14657067 31.66396918 -6.17578125 29.44921875 C-6.19962891 28.52302734 -6.22347656 27.59683594 -6.24804688 26.64257812 C-6.29075531 24.68446117 -6.32214653 22.7260622 -6.34179688 20.76757812 C-6.37774105 15.19655601 -6.37774105 15.19655601 -9.01171875 10.48828125 C-9.66785156 9.99714844 -10.32398437 9.50601563 -11 9 C-11.5 6.5 -11.5 6.5 -11 4 C-8.00375133 -0.43444803 -5.14731601 -0.73533086 0 0 Z " fill="#1F3648" transform="translate(88,58)"/>
<path d="M0 0 C-0.50645655 6.752754 -4.09264145 11.35430911 -7.9375 16.6875 C-9.32275092 18.98531917 -9.32275092 18.98531917 -8.125 21.375 C-7.568125 22.674375 -7.568125 22.674375 -7 24 C-7.21115538 30.12350598 -7.21115538 30.12350598 -9.6875 32.875 C-12.58163748 34.28295877 -14.77298936 34.86828528 -18 35 C-21.52906067 33.39588152 -22.82772908 32.25840638 -25 29 C-24.92347654 24.79120962 -24.68166064 22.71953068 -21.75 19.625 C-19 18 -19 18 -16.62109375 17.8984375 C-12.37667674 16.44357027 -11.25542983 12.85276035 -9.3125 9 C-8.54242434 7.51839988 -7.76789571 6.03910311 -6.98828125 4.5625 C-6.65352783 3.90378906 -6.31877441 3.24507812 -5.97387695 2.56640625 C-4.3263913 -0.08344783 -3.07869704 0 0 0 Z " fill="#F79E3D" transform="translate(73,147)"/>
<path d="M0 0 C2.62526276 1.75017517 2.94398718 2.80180078 3.8125 5.875 C4 9 4 9 2.83984375 11.33984375 C1.68727076 14.04276529 1.68727076 14.04276529 3.046875 16.82421875 C3.60890625 17.76910156 4.1709375 18.71398437 4.75 19.6875 C5.57757813 21.11642578 5.57757813 21.11642578 6.421875 22.57421875 C7.91601232 25.05409013 7.91601232 25.05409013 10 27 C10.125 29.625 10.125 29.625 10 32 C8.12988281 31.70678711 8.12988281 31.70678711 6 31 C4.04292312 27.8841276 2.33952219 24.75148015 0.70703125 21.45898438 C-1.38442381 17.51882966 -1.38442381 17.51882966 -5.00976562 15.14306641 C-6.9889876 14.67954943 -8.99477419 14.33352225 -11 14 C-13.594761 11.72958413 -13.93030392 10.46795942 -14.4375 7.0625 C-13.89613959 3.27297711 -12.68326641 1.68326641 -10 -1 C-5.99788181 -2.3340394 -3.92036356 -1.40012984 0 0 Z " fill="#EEB376" transform="translate(62,63)"/>
<path d="M0 0 C0.99 0 1.98 0 3 0 C4.2930106 2.24923704 5.58444977 4.49935185 6.875 6.75 C7.23980469 7.38421875 7.60460937 8.0184375 7.98046875 8.671875 C10.90168554 13.77072612 10.90168554 13.77072612 12.01171875 16.359375 C13.33845478 18.5618617 14.49937258 18.80987827 16.9375 19.5 C19.51327278 20.38044597 20.95802996 20.96438906 23.0625 22.75 C24.48674178 26.16818028 23.96005462 28.47979972 23 32 C21.0625 33.9375 21.0625 33.9375 19 35 C18.34 35 17.68 35 17 35 C16.67 35.66 16.34 36.32 16 37 C14.68397477 36.38245741 13.37226444 35.75571258 12.0625 35.125 C10.96615234 34.60292969 10.96615234 34.60292969 9.84765625 34.0703125 C8 33 8 33 7 31 C6.76893348 24.76120391 6.76893348 24.76120391 7.60888672 21.99414062 C8.307464 18.43235583 5.86681127 15.5001097 4.125 12.5 C3.37363167 11.17933552 2.62610364 9.85647727 1.8828125 8.53125 C1.54652832 7.94923828 1.21024414 7.36722656 0.86376953 6.76757812 C-0.07321504 4.85017612 -0.63500124 3.10194708 -1 1 C-0.67 0.67 -0.34 0.34 0 0 Z " fill="#E3423E" transform="translate(97,146)"/>
<path d="M0 0 C1.17369141 -0.02513672 1.17369141 -0.02513672 2.37109375 -0.05078125 C5.09028948 0.39999451 5.9283325 1.12352255 7.5625 3.3125 C8.37274071 6.74044145 8.91106361 9.23776221 7.8125 12.625 C6.5625 14.3125 6.5625 14.3125 3.5625 16.3125 C0.375 16.4375 0.375 16.4375 -2.4375 16.3125 C-2.69917969 17.01890625 -2.96085937 17.7253125 -3.23046875 18.453125 C-4.51877934 21.50504524 -6.02623114 24.23414312 -7.75 27.0625 C-8.32363281 28.02671875 -8.89726563 28.9909375 -9.48828125 29.984375 C-11.4375 32.3125 -11.4375 32.3125 -14.16796875 33.140625 C-14.91691406 33.19734375 -15.66585937 33.2540625 -16.4375 33.3125 C-14.56696558 28.15666147 -11.71060624 23.77657465 -8.80078125 19.15234375 C-7.21860546 16.49890695 -7.21860546 16.49890695 -7.68359375 14.09375 C-7.93238281 13.5059375 -8.18117188 12.918125 -8.4375 12.3125 C-9.46656317 8.9680447 -9.69079067 7.8311428 -8.125 4.625 C-5.50009968 1.02791437 -4.42273312 0.02178686 0 0 Z " fill="#EAA05C" transform="translate(112.4375,61.6875)"/>
<path d="M0 0 C2.5 1.5 2.5 1.5 4 4 C4.791013 8.02098277 4.62153384 10.96411027 2.5 14.5 C-1.18629954 16.71177972 -3.73176192 16.34421275 -8 16 C-8.66 15.67 -9.32 15.34 -10 15 C-10 14.01 -10 13.02 -10 12 C-10.99 12 -11.98 12 -13 12 C-13.32469403 7.34605219 -12.79790518 4.76641082 -10 1 C-6.79158965 -0.60420518 -3.4806013 -0.47462745 0 0 Z " fill="#F99D35" transform="translate(142,83)"/>
<path d="M0 0 C3.80470451 0.7133821 5.41196019 1.67868421 8 4.5625 C9.10524218 7.87822655 9.70157067 10.09849179 8.14453125 13.34765625 C6.05711395 16.20518867 4.46151082 17.46635191 1 18.1875 C-2.62532374 17.43222422 -4.36306228 16.12409665 -7 13.5625 C-8.44430855 10.67388291 -8.37688506 8.76602299 -8 5.5625 C-5.53959272 2.23371368 -4.10389613 0.76948052 0 0 Z " fill="#EF9937" transform="translate(84,111.4375)"/>
<path d="M0 0 C0.99 0.66 1.98 1.32 3 2 C3 2.66 3 3.32 3 4 C3.66 4 4.32 4 5 4 C5.4206933 8.29107165 5.45543836 10.35134537 2.9375 13.9375 C0 16 0 16 -3.5 16.625 C-7.9297642 15.83397068 -9.39210172 14.63525215 -12 11 C-12.625 8 -12.625 8 -12 5 C-8.50657733 0.13038052 -5.88961778 -0.76346897 0 0 Z " fill="#26C4B6" transform="translate(35,143)"/>
<path d="M0 0 C7.2 -0.48 7.2 -0.48 10.5 1.5 C12.61385602 5.02309336 12.9352036 7.99667231 12 12 C9.277607 15.2998703 7.67804009 15.91673192 3.4375 16.4375 C-1.81873852 15.76852419 -1.81873852 15.76852419 -4 13 C-4.62606327 10.00762978 -4.87206945 7.05114366 -5 4 C-4.01 4 -3.02 4 -2 4 C-1.34 2.68 -0.68 1.36 0 0 Z " fill="#0FD3C0" transform="translate(134,143)"/>
<path d="M0 0 C2.375 0.9375 2.375 0.9375 4 3 C4.62606327 5.99237022 4.87206945 8.94885634 5 12 C4.01 12 3.02 12 2 12 C1.34 13.32 0.68 14.64 0 16 C-4.3322929 16.4247346 -6.34962488 16.47048413 -9.9375 13.875 C-12 11 -12 11 -12.625 8 C-11.17223512 1.02672858 -6.69048354 -0.97316124 0 0 Z " fill="#DF433E" transform="translate(35,83)"/>
<path d="M0 0 C0.33 0 0.66 0 1 0 C1.33 3.63 1.66 7.26 2 11 C2.66 11 3.32 11 4 11 C3.67 13.64 3.34 16.28 3 19 C3.78375 19.28875 4.5675 19.5775 5.375 19.875 C8 21 8 21 10 23 C9.8668165 26.66254638 9.72325007 29.10984607 7.375 32 C3.88418213 33.46981805 1.60851044 32.98413921 -2 32 C-4 30.3125 -4 30.3125 -5 28 C-4.9375 24.875 -4.9375 24.875 -4 22 C-2.68 21.34 -1.36 20.68 0 20 C0 13.4 0 6.8 0 0 Z " fill="#10273C" transform="translate(82,152)"/>
<path d="M0 0 C-0.52864225 4.06219831 -2.54164522 5.85112351 -5.4375 8.625 C-6.33210938 9.49640625 -7.22671875 10.3678125 -8.1484375 11.265625 C-10.04947917 13.08854167 -11.95052083 14.91145833 -13.8515625 16.734375 C-14.74617188 17.60578125 -15.64078125 18.4771875 -16.5625 19.375 C-17.38878906 20.16648437 -18.21507813 20.95796875 -19.06640625 21.7734375 C-20.96733024 23.96238027 -21.63157091 25.16891329 -22 28 C-22.165 27.360625 -22.33 26.72125 -22.5 26.0625 C-23.781786 23.83880759 -23.781786 23.83880759 -25.9140625 23.51171875 C-27.93575155 23.2724022 -29.96841939 23.13106972 -32 23 C-32.33 21.68 -32.66 20.36 -33 19 C-31.783125 19.433125 -30.56625 19.86625 -29.3125 20.3125 C-27.13493824 20.92786207 -27.13493824 20.92786207 -25 21 C-22.16744884 19.00179441 -22.16744884 19.00179441 -20 16 C-18.34181493 14.32489468 -16.67390769 12.65939404 -15 11 C-14.09121094 10.04480469 -13.18242188 9.08960937 -12.24609375 8.10546875 C-11.30994664 7.1327636 -10.37374845 6.16010761 -9.4375 5.1875 C-8.96892578 4.68541016 -8.50035156 4.18332031 -8.01757812 3.66601562 C-4.45131803 0 -4.45131803 0 0 0 Z " fill="#203544" transform="translate(128,75)"/>
<path d="M0 0 C-0.50645655 6.752754 -4.09264145 11.35430911 -7.9375 16.6875 C-9.32275092 18.98531917 -9.32275092 18.98531917 -8.125 21.375 C-7.568125 22.674375 -7.568125 22.674375 -7 24 C-7.21115538 30.12350598 -7.21115538 30.12350598 -9.6875 32.875 C-12.53561749 34.26057067 -14.83625563 34.80226598 -18 35 C-20.375 34.0625 -20.375 34.0625 -22 33 C-18.57067929 31.28533964 -14.78283935 31.94595944 -11 32 C-11 28.37 -11 24.74 -11 21 C-13.31 20.67 -15.62 20.34 -18 20 C-18 19.34 -18 18.68 -18 18 C-17.38721191 17.90847656 -16.77442383 17.81695312 -16.14306641 17.72265625 C-13.43009951 16.80782576 -13.0153757 15.93986667 -11.7109375 13.4375 C-11.32679687 12.72335938 -10.94265625 12.00921875 -10.546875 11.2734375 C-10.16015625 10.52320313 -9.7734375 9.77296875 -9.375 9 C-8.59595823 7.51829311 -7.81232062 6.03899071 -7.0234375 4.5625 C-6.68231934 3.90378906 -6.34120117 3.24507812 -5.98974609 2.56640625 C-4.32112663 -0.07440837 -3.08676621 0 0 0 Z " fill="#E4AC6B" transform="translate(73,147)"/>
<path d="M0 0 C2.31 0 4.62 0 7 0 C7 0.66 7 1.32 7 2 C7.99 2.33 8.98 2.66 10 3 C11.32296047 9.37426409 11.32296047 9.37426409 10 11.9375 C6.80559506 13.63452763 4.55180724 13.48990445 1 13 C-1.9375 10.5 -1.9375 10.5 -4 8 C-3.34 6.02 -2.68 4.04 -2 2 C-1.34 2 -0.68 2 0 2 C0 1.34 0 0.68 0 0 Z " fill="#FA9D36" transform="translate(53,63)"/>
<path d="M0 0 C1.875 1 1.875 1 3 3 C3.36095911 5.80173027 3.22716238 8.13775402 3 11 C-0.00617269 14.00617269 -2.82381598 13.59585316 -7 14 C-8.5625 12.4375 -8.5625 12.4375 -10 10 C-9.87890756 6.54886548 -9.63213135 4.03137221 -7.8125 1.0625 C-5.08912093 -0.5339636 -3.09046979 -0.38630872 0 0 Z " fill="#DC4944" transform="translate(115,63)"/>
<path d="M0 0 C2.00412242 1.82020836 3.9178826 3.63752825 5.8125 5.5625 C6.31458984 6.05685547 6.81667969 6.55121094 7.33398438 7.06054688 C11 10.74651361 11 10.74651361 11 13 C11.99 13.33 12.98 13.66 14 14 C19 19.34883721 19 19.34883721 19 23 C15.7822479 22.42123945 14.17294633 21.53739079 11.90625 19.19921875 C11.35066406 18.63396484 10.79507813 18.06871094 10.22265625 17.48632812 C9.65417969 16.89271484 9.08570312 16.29910156 8.5 15.6875 C7.93152344 15.10548828 7.36304687 14.52347656 6.77734375 13.92382812 C5.67539181 12.79503049 4.57755648 11.66219582 3.484375 10.52490234 C2.21698645 9.22291075 0.90914649 7.9605016 -0.40625 6.70703125 C-2 5 -2 5 -2 3 C-3.32 2.34 -4.64 1.68 -6 1 C-6 0.34 -6 -0.32 -6 -1 C-7.65 -0.67 -9.3 -0.34 -11 0 C-11 -0.66 -11 -1.32 -11 -2 C-6.03022182 -3.2713386 -4.15635702 -2.9216745 0 0 Z " fill="#1E3342" transform="translate(109,146)"/>
<path d="M0 0 C0.66 0.66 1.32 1.32 2 2 C2.99 2.33 3.98 2.66 5 3 C4.5467334 3.44802979 4.0934668 3.89605957 3.62646484 4.35766602 C1.53991414 6.4232076 -0.54255497 8.49281952 -2.625 10.5625 C-3.69427734 11.61920898 -3.69427734 11.61920898 -4.78515625 12.69726562 C-9.07914281 16.971555 -13.12162594 21.34472767 -17 26 C-18.32 25.67 -19.64 25.34 -21 25 C-19.58261511 21.74792908 -17.87473588 19.68638933 -15.3125 17.25 C-9.77740131 11.85553902 -4.75811238 6.09038384 0 0 Z " fill="#1F3844" transform="translate(62,143)"/>
<path d="M0 0 C0.99 0.66 1.98 1.32 3 2 C2.20142578 2.49693359 2.20142578 2.49693359 1.38671875 3.00390625 C-0.4154368 5.10619454 -0.4154368 5.10619454 0.58203125 8.65234375 C0.97462808 10.08565487 1.38558731 11.5140329 1.8125 12.9375 C2.98667676 17.0526747 4 20.66971906 4 25 C2.68 24.67 1.36 24.34 0 24 C-0.14099121 23.45996338 -0.28198242 22.91992676 -0.42724609 22.36352539 C-1.06818901 19.92757486 -1.72141427 17.49508733 -2.375 15.0625 C-2.59671875 14.21236328 -2.8184375 13.36222656 -3.046875 12.48632812 C-3.37558594 11.27299805 -3.37558594 11.27299805 -3.7109375 10.03515625 C-4.00943604 8.91185913 -4.00943604 8.91185913 -4.31396484 7.76586914 C-4.85254971 5.79382033 -4.85254971 5.79382033 -7 5 C-7 8.96 -7 12.92 -7 17 C-7.66 16.67 -8.32 16.34 -9 16 C-9 12.37 -9 8.74 -9 5 C-6.03 4.01 -3.06 3.02 0 2 C0 1.34 0 0.68 0 0 Z " fill="#1B2E3B" transform="translate(94,145)"/>
<path d="M0 0 C2.64 0 5.28 0 8 0 C8.33 2.31 8.66 4.62 9 7 C8.4225 7.2475 7.845 7.495 7.25 7.75 C4.6997003 9.16683317 2.98214299 10.87627537 1 13 C-3.92307692 7.70769231 -3.92307692 7.70769231 -4.3125 4.125 C-4.209375 3.42375 -4.10625 2.7225 -4 2 C-3.01 2 -2.02 2 -1 2 C-0.67 1.34 -0.34 0.68 0 0 Z " fill="#0A2945" transform="translate(81,60)"/>
<path d="M0 0 C7.2 -0.48 7.2 -0.48 10.5 1.5 C12.61136591 5.01894318 12.94237143 8.00106731 12 12 C9.875 14.5 9.875 14.5 7 16 C3.6875 16.25 3.6875 16.25 1 16 C1 15.34 1 14.68 1 14 C4.465 13.505 4.465 13.505 8 13 C9.15837626 8.94568308 8.83691257 6.78187881 7 3 C4.36 3.33 1.72 3.66 -1 4 C-1 4.66 -1 5.32 -1 6 C-1.66 6 -2.32 6 -3 6 C-2.67 6.5775 -2.34 7.155 -2 7.75 C-1 10 -1 10 -1 14 C-1.99 13.67 -2.98 13.34 -4 13 C-4.33 10.03 -4.66 7.06 -5 4 C-4.01 4 -3.02 4 -2 4 C-1.34 2.68 -0.68 1.36 0 0 Z " fill="#35C2B5" transform="translate(134,143)"/>
<path d="M0 0 C6.62161277 0.56115362 12.75917413 1.85145689 19.1796875 3.57421875 C22.19865313 4.35339747 22.19865313 4.35339747 25 2 C25 5.38023517 24.12544378 7.83468937 23 11 C22.34 11 21.68 11 21 11 C21 10.01 21 9.02 21 8 C19.9275 7.896875 18.855 7.79375 17.75 7.6875 C12.04712923 6.9900266 6.54427239 5.46923218 1 4 C0.67 2.68 0.34 1.36 0 0 Z " fill="#13293C" transform="translate(33,107)"/>
<path d="M0 0 C0.99 0 1.98 0 3 0 C4.27289905 2.20716463 5.5433605 4.41567485 6.8125 6.625 C7.34713867 7.55119141 7.34713867 7.55119141 7.89257812 8.49609375 C10.05913172 12.27265506 12.0904299 16.08447772 14 20 C12.02 21.32 10.04 22.64 8 24 C7.92007813 23.15695313 7.84015625 22.31390625 7.7578125 21.4453125 C6.71512427 16.70484333 4.2702104 13.07280636 1.70703125 9.03515625 C-1.05254603 4.49520653 -1.05254603 4.49520653 -0.7421875 1.5703125 C-0.49726562 1.05210937 -0.25234375 0.53390625 0 0 Z " fill="#E5A15E" transform="translate(97,146)"/>
<path d="M0 0 C1.32 0 2.64 0 4 0 C4.33 0.33 4.66 0.66 5 1 C4.28 7.72 4.28 7.72 3 9 C-0.47256915 9.30867281 -2.3872288 9.38701339 -5.375 7.5 C-5.91125 7.005 -6.4475 6.51 -7 6 C-6.67 4.02 -6.34 2.04 -6 0 C-3 -1 -3 -1 0 0 Z " fill="#072B46" transform="translate(87,174)"/>
<path d="M0 0 C2.4375 1.5 2.4375 1.5 4 3 C3.67 3.66 3.34 4.32 3 5 C2.01 4.34 1.02 3.68 0 3 C-2.5254223 2.9744911 -2.5254223 2.9744911 -5.1875 3.375 C-6.08855469 3.48585938 -6.98960938 3.59671875 -7.91796875 3.7109375 C-8.60503906 3.80632812 -9.29210937 3.90171875 -10 4 C-9.34 6.64 -8.68 9.28 -8 12 C-3.51866426 12.72256829 -3.51866426 12.72256829 1 13 C1 11.68 1 10.36 1 9 C1.99 9 2.98 9 4 9 C4.33 8.01 4.66 7.02 5 6 C5 7.98 5 9.96 5 12 C4.01 12 3.02 12 2 12 C1.34 13.32 0.68 14.64 0 16 C-4.3322929 16.4247346 -6.34962488 16.47048413 -9.9375 13.875 C-12 11 -12 11 -12.625 8 C-11.17223512 1.02672858 -6.69048354 -0.97316124 0 0 Z " fill="#C24F4E" transform="translate(35,83)"/>
<path d="M0 0 C6.8359375 0.48828125 6.8359375 0.48828125 9 1 C11 4 11 4 10.625 7.1875 C10.41875 8.115625 10.2125 9.04375 10 10 C6.7 9.67 3.4 9.34 0 9 C0 6.03 0 3.06 0 0 Z " fill="#0BD4C2" transform="translate(26,145)"/>
<path d="M0 0 C1.85546875 0.109375 1.85546875 0.109375 4 1 C5.30078125 3.765625 5.30078125 3.765625 6.3125 7.25 C6.83263672 8.95929688 6.83263672 8.95929688 7.36328125 10.703125 C7.98785352 13.93710659 7.9109709 15.87331278 7 19 C7.66 19.33 8.32 19.66 9 20 C7.35 19.67 5.7 19.34 4 19 C3.32506659 16.77332235 2.66036956 14.54354023 2 12.3125 C1.62875 11.07113281 1.2575 9.82976562 0.875 8.55078125 C0.12296543 5.4989981 -0.19034899 3.11101638 0 0 Z M1 20 C2.32 20.33 3.64 20.66 5 21 C3.68 21.33 2.36 21.66 1 22 C1 21.34 1 20.68 1 20 Z " fill="#223544" transform="translate(71,73)"/>
<path d="M0 0 C1.4783226 2.95664519 1.06032783 5.74229737 1 9 C3.475 9.99 3.475 9.99 6 11 C6 10.34 6 9.68 6 9 C7.32 8.34 8.64 7.68 10 7 C10 7.66 10 8.32 10 9 C10.66 9 11.32 9 12 9 C12 6.03 12 3.06 12 0 C12.99 0.99 13.98 1.98 15 3 C14.92959373 6.87234494 14.52899129 9.23590146 12.3125 12.4375 C9.24421404 14.51066619 7.64026866 14.59432958 4 14 C1.30009338 12.20006226 -0.5418865 10.916227 -2 8 C-2.1875 5 -2.1875 5 -2 2 C-1.34 1.34 -0.68 0.68 0 0 Z " fill="#D5954A" transform="translate(78,115)"/>
<path d="M0 0 C4.56994601 -0.44198383 6.95407172 0.83488735 10.75 3.3125 C11.71421875 3.92738281 12.6784375 4.54226562 13.671875 5.17578125 C16 7 16 7 17 10 C17.66 10.33 18.32 10.66 19 11 C19 11.66 19 12.32 19 13 C14.61631654 11.70496796 11.12583402 10.01031194 7.3125 7.5 C6.38050781 6.8915625 5.44851562 6.283125 4.48828125 5.65625 C2.65837128 4.43822515 0.82902654 3.21935103 -1 2 C-0.67 1.34 -0.34 0.68 0 0 Z " fill="#183045" transform="translate(37,95)"/>
<path d="M0 0 C2.5 1.5 2.5 1.5 4 4 C4.791013 8.02098277 4.62153384 10.96411027 2.5 14.5 C-1.18629954 16.71177972 -3.73176192 16.34421275 -8 16 C-8.66 15.67 -9.32 15.34 -10 15 C-10 14.01 -10 13.02 -10 12 C-10.99 12 -11.98 12 -13 12 C-13 10.35 -13 8.7 -13 7 C-12.34 7 -11.68 7 -11 7 C-10.34 8.98 -9.68 10.96 -9 13 C-6.03 13 -3.06 13 0 13 C0 12.34 0 11.68 0 11 C0.99 11 1.98 11 3 11 C3 9.02 3 7.04 3 5 C2.34 5 1.68 5 1 5 C0.608125 4.484375 0.21625 3.96875 -0.1875 3.4375 C-2.07201995 1.62352752 -2.07201995 1.62352752 -5.5 2.125 C-8.81165975 2.95291494 -10.02528784 3.32833061 -12 6 C-9.70451846 -0.39455573 -6.63431094 -0.90467876 0 0 Z " fill="#ECA964" transform="translate(142,83)"/>
<path d="M0 0 C6.32760267 1.43266476 6.32760267 1.43266476 9 3.6875 C10.49302187 7.14011307 9.97563232 9.4226815 9 13 C7.0625 14.9375 7.0625 14.9375 5 16 C4.34 16 3.68 16 3 16 C2.67 16.66 2.34 17.32 2 18 C0.68397477 17.38245741 -0.62773556 16.75571258 -1.9375 16.125 C-2.66839844 15.77695313 -3.39929688 15.42890625 -4.15234375 15.0703125 C-6 14 -6 14 -7 12 C-7.04022391 9.6670134 -7.04320247 7.33293334 -7 5 C-6.67 5.99 -6.34 6.98 -6 8 C-5.34 8.33 -4.68 8.66 -4 9 C-4 9.99 -4 10.98 -4 12 C-0.04 12 3.92 12 8 12 C7.34 9.03 6.68 6.06 6 3 C3.69 2.67 1.38 2.34 -1 2 C-0.67 1.34 -0.34 0.68 0 0 Z " fill="#CD5E5C" transform="translate(111,165)"/>
<path d="M0 0 C0.7734375 -0.00773437 1.546875 -0.01546875 2.34375 -0.0234375 C5.01973125 0.4710373 5.87980698 1.21640438 7.5 3.375 C8.31024071 6.80294145 8.84856361 9.30026221 7.75 12.6875 C6.5 14.375 6.5 14.375 3.5 16.375 C0.3125 16.5 0.3125 16.5 -2.5 16.375 C-0.27810176 14.15310176 1.58482708 13.44901108 4.5 12.375 C4.5 9.075 4.5 5.775 4.5 2.375 C-0.94176756 1.75157019 -0.94176756 1.75157019 -5.5 4.0625 C-6.66803602 6.76358329 -6.87367024 8.46037214 -6.5 11.375 C-5.51 12.86 -5.51 12.86 -4.5 14.375 C-5.49 14.87 -5.49 14.87 -6.5 15.375 C-8.63225002 11.93059612 -9.67033395 10.24370313 -8.875 6.1875 C-6.69166213 1.72158162 -5.08785263 -0.05087853 0 0 Z " fill="#CE7070" transform="translate(112.5,61.625)"/>
<path d="M0 0 C1 2 1 2 0.4375 5.4375 C-0.40507508 9.09870309 -0.40507508 9.09870309 2 12 C1.78099174 18.1322314 1.78099174 18.1322314 -0.6875 20.875 C-3.53561749 22.26057067 -5.83625563 22.80226598 -9 23 C-11.375 22.0625 -11.375 22.0625 -13 21 C-9.57067929 19.28533964 -5.78283935 19.94595944 -2 20 C-2 16.37 -2 12.74 -2 9 C-4.31 8.67 -6.62 8.34 -9 8 C-9 7.34 -9 6.68 -9 6 C-7.88625 5.566875 -6.7725 5.13375 -5.625 4.6875 C-1.82487666 3.30088881 -1.82487666 3.30088881 0 0 Z " fill="#F0A352" transform="translate(64,159)"/>
<path d="M0 0 C0.80050781 0.19335938 1.60101563 0.38671875 2.42578125 0.5859375 C3.29332031 0.7921875 4.16085938 0.9984375 5.0546875 1.2109375 C9.00339873 2.31450745 12.88379468 3.5643844 16.73828125 4.9609375 C16.73828125 5.9509375 16.73828125 6.9409375 16.73828125 7.9609375 C8.71057936 7.40730289 1.39974058 5.30405806 -6.26171875 2.9609375 C-2.92166559 -0.05046055 -2.92166559 -0.05046055 0 0 Z " fill="#132A3C" transform="translate(119.26171875,127.0390625)"/>
<path d="M0 0 C2.475 0.99 2.475 0.99 5 2 C4.98839844 2.91523437 4.97679688 3.83046875 4.96484375 4.7734375 C4.95582031 5.96195312 4.94679688 7.15046875 4.9375 8.375 C4.92589844 9.55835937 4.91429688 10.74171875 4.90234375 11.9609375 C4.78533407 14.91921521 4.78533407 14.91921521 6 17 C3.73161744 17.38955051 1.46015313 17.76119129 -0.8125 18.125 C-2.07707031 18.33382812 -3.34164062 18.54265625 -4.64453125 18.7578125 C-8 19 -8 19 -11 17 C-11.6875 14.375 -11.6875 14.375 -12 12 C-11.29875 12.495 -10.5975 12.99 -9.875 13.5 C-6.50962644 15.25584708 -4.73984509 15.63656938 -1 15 C1.610911 13.04913936 1.610911 13.04913936 3 10 C2.85314612 5.7412375 2.37178287 3.5576743 0 0 Z " fill="#13293B" transform="translate(89,113)"/>
<path d="M0 0 C0.99 0.66 1.98 1.32 3 2 C2.484375 2.37125 1.96875 2.7425 1.4375 3.125 C-0.36319983 5.03173152 -0.36319983 5.03173152 0.3125 8.1875 C0.6528125 9.5796875 0.6528125 9.5796875 1 11 C0.34 10.67 -0.32 10.34 -1 10 C-1 9.01 -1 8.02 -1 7 C-1.66 8.32 -2.32 9.64 -3 11 C-3.28875 10.195625 -3.5775 9.39125 -3.875 8.5625 C-4.73262568 5.8673532 -4.73262568 5.8673532 -7 5 C-7 8.96 -7 12.92 -7 17 C-7.66 16.67 -8.32 16.34 -9 16 C-9 12.37 -9 8.74 -9 5 C-6.03 4.01 -3.06 3.02 0 2 C0 1.34 0 0.68 0 0 Z " fill="#203444" transform="translate(94,145)"/>
<path d="M0 0 C1.63129887 4.06285757 0.29968777 7.20102184 -0.9375 11.25 C-1.31777344 12.51328125 -1.69804688 13.7765625 -2.08984375 15.078125 C-2.54037109 16.52445313 -2.54037109 16.52445313 -3 18 C-4.32 18 -5.64 18 -7 18 C-6.07692308 8.92307692 -6.07692308 8.92307692 -4 5 C-3.01 4.34 -2.02 3.68 -1 3 C-0.67 2.01 -0.34 1.02 0 0 Z " fill="#0D232F" transform="translate(78,151)"/>
<path d="M0 0 C0.33 0.99 0.66 1.98 1 3 C-0.60606348 5.15671382 -2.17930254 7.04707311 -4 9 C-4.680625 9.804375 -5.36125 10.60875 -6.0625 11.4375 C-7.0215625 12.2109375 -7.0215625 12.2109375 -8 13 C-10.25 12.75 -10.25 12.75 -12 12 C-10.64195446 8.8785222 -9.18624145 7.03041771 -6.5625 4.875 C-5.96566406 4.37742188 -5.36882813 3.87984375 -4.75390625 3.3671875 C-3.22237694 2.17334505 -1.6157298 1.0771532 0 0 Z " fill="#2B3C47" transform="translate(53,156)"/>
<path d="M0 0 C5.70709064 0.46588495 9.15939723 1.93757784 14 5 C13.67 5.99 13.34 6.98 13 8 C7.29370646 7.57202798 3.58921384 5.15654048 -1 2 C-0.67 1.34 -0.34 0.68 0 0 Z " fill="#193C4D" transform="translate(119,139)"/>
<path d="M0 0 C1.65 0.33 3.3 0.66 5 1 C5.66 3.31 6.32 5.62 7 8 C4.625 9.0625 4.625 9.0625 2 10 C1.34 9.67 0.68 9.34 0 9 C0 8.01 0 7.02 0 6 C-0.66 5.67 -1.32 5.34 -2 5 C-1.34 4.67 -0.68 4.34 0 4 C0 2.68 0 1.36 0 0 Z " fill="#092C48" transform="translate(27,115)"/>
<path d="M0 0 C0.33 0.99 0.66 1.98 1 3 C1.66 2.67 2.32 2.34 3 2 C3 2.66 3 3.32 3 4 C3.66 4.33 4.32 4.66 5 5 C4.34 5 3.68 5 3 5 C2.67 6.32 2.34 7.64 2 9 C-0.375 8.75 -0.375 8.75 -3 8 C-4.7941758 5.43689172 -5 4.16880694 -5 1 C-3.35 0.67 -1.7 0.34 0 0 Z " fill="#E4403B" transform="translate(113,66)"/>
<path d="M0 0 C0.33 0.99 0.66 1.98 1 3 C-1.43695715 3.22181406 -3.873526 3.42791119 -6.3125 3.625 C-7.34793945 3.72167969 -7.34793945 3.72167969 -8.40429688 3.8203125 C-12.2559972 4.11802847 -13.68854416 4.20763723 -17 2 C-11.35600642 -0.44064587 -6.02248522 -0.19289099 0 0 Z " fill="#203547" transform="translate(132,119)"/>
<path d="M0 0 C0.66 0 1.32 0 2 0 C2.4206933 4.29107165 2.45543836 6.35134537 -0.0625 9.9375 C-3.71152089 12.4995785 -5.62761404 12.64776088 -10 12 C-11.9375 10.5 -11.9375 10.5 -13 9 C-11.14375 9.0309375 -11.14375 9.0309375 -9.25 9.0625 C-6.3359175 9.06766681 -3.79046673 8.93015558 -1 8 C-0.67 5.36 -0.34 2.72 0 0 Z " fill="#3BB6AC" transform="translate(38,147)"/>
<path d="M0 0 C1.32 0.33 2.64 0.66 4 1 C3.34 1.66 2.68 2.32 2 3 C1.97831363 5.90675183 1.97831363 5.90675183 2.375 9.125 C2.48585938 10.22070312 2.59671875 11.31640625 2.7109375 12.4453125 C2.80632812 13.28835937 2.90171875 14.13140625 3 15 C1.078125 14.2890625 1.078125 14.2890625 -1 13 C-1.828125 10.8359375 -1.828125 10.8359375 -2.25 8.375 C-2.39953125 7.55773437 -2.5490625 6.74046875 -2.703125 5.8984375 C-2.85007812 4.95871094 -2.85007812 4.95871094 -3 4 C-2.34 3.67 -1.68 3.34 -1 3 C-0.67 2.01 -0.34 1.02 0 0 Z " fill="#0C2A3E" transform="translate(75,114)"/>
<path d="M0 0 C1.2065625 0.0309375 1.2065625 0.0309375 2.4375 0.0625 C3.0625 2.4375 3.0625 2.4375 3.4375 5.0625 C2.7775 5.7225 2.1175 6.3825 1.4375 7.0625 C-1.1875 6.6875 -1.1875 6.6875 -3.5625 6.0625 C-3.605221 4.39638095 -3.60313832 2.72867115 -3.5625 1.0625 C-2.5625 0.0625 -2.5625 0.0625 0 0 Z " fill="#70604A" transform="translate(70.5625,104.9375)"/>
<path d="M0 0 C1.07735006 3.23205018 0.92640423 4.33577435 0.1875 7.5625 C0.01605469 8.34753906 -0.15539062 9.13257812 -0.33203125 9.94140625 C-1 12 -1 12 -3 14 C-4.32 14 -5.64 14 -7 14 C-5.23570801 9.02790438 -2.6060834 4.56561939 0 0 Z " fill="#C79765" transform="translate(103,81)"/>
<path d="M0 0 C3.625 0.375 3.625 0.375 6.0625 2 C8.02144605 4.977598 7.94285906 6.87855037 7.625 10.375 C5.87401874 7.74852812 4.23768692 5.08724618 2.625 2.375 C0.645 2.705 -1.335 3.035 -3.375 3.375 C-3.705 4.365 -4.035 5.355 -4.375 6.375 C-5.035 6.375 -5.695 6.375 -6.375 6.375 C-5.50003842 2.00019211 -4.71237048 0.52359672 0 0 Z " fill="#DA4943" transform="translate(111.375,166.625)"/>
<path d="M0 0 C1.0828125 1.11375 1.0828125 1.11375 2.1875 2.25 C4.68592573 4.69290515 7.23643202 6.8681047 10 9 C6.86022274 9.98678714 5.32881171 10.11691083 2.1875 9 C0 7 0 7 -0.3125 3.3125 C-0.209375 2.219375 -0.10625 1.12625 0 0 Z " fill="#15293B" transform="translate(112,130)"/>
<path d="M0 0 C1.65 0.33 3.3 0.66 5 1 C3.02 3.31 1.04 5.62 -1 8 C-2.32 7.34 -3.64 6.68 -5 6 C-3.35 4.02 -1.7 2.04 0 0 Z " fill="#1A303E" transform="translate(116,83)"/>
<path d="M0 0 C-0.3125 2.875 -0.3125 2.875 -1 6 C-4 8 -4 8 -8 8 C-5.18918919 0 -5.18918919 0 0 0 Z " fill="#D09861" transform="translate(73,147)"/>
<path d="M0 0 C2.375 0.25 2.375 0.25 5 1 C6.3125 3.0625 6.3125 3.0625 7 5 C3.94736336 5.98120464 2.05263664 5.98120464 -1 5 C-0.67 3.35 -0.34 1.7 0 0 Z " fill="#283337" transform="translate(98,104)"/>
<path d="M0 0 C6.32760267 1.43266476 6.32760267 1.43266476 9 3.6875 C10.48969554 7.13242094 9.9891855 9.43893218 9 13 C6.9375 14.4375 6.9375 14.4375 5 15 C5.33 14.01 5.66 13.02 6 12 C6.66 12 7.32 12 8 12 C7.34 9.03 6.68 6.06 6 3 C3.69 2.67 1.38 2.34 -1 2 C-0.67 1.34 -0.34 0.68 0 0 Z " fill="#BE5A5B" transform="translate(111,165)"/>
<path d="M0 0 C0.66 0 1.32 0 2 0 C2.06058594 0.67546875 2.12117188 1.3509375 2.18359375 2.046875 C2.26738281 2.93890625 2.35117188 3.8309375 2.4375 4.75 C2.55931641 6.07257813 2.55931641 6.07257813 2.68359375 7.421875 C2.96238465 9.69350452 3.38790577 11.79851823 4 14 C3.01 14 2.02 14 1 14 C0 13 0 13 -0.09765625 10.05859375 C-0.08605469 8.86363281 -0.07445313 7.66867188 -0.0625 6.4375 C-0.05347656 5.23996094 -0.04445313 4.04242188 -0.03515625 2.80859375 C-0.02355469 1.88175781 -0.01195313 0.95492187 0 0 Z " fill="#103050" transform="translate(82,79)"/>
<path d="M0 0 C4.875 1.875 4.875 1.875 6 3 C6.04063832 4.66617115 6.042721 6.33388095 6 8 C4.125 7.6875 4.125 7.6875 2 7 C0 4 0 4 0 0 Z " fill="#D6995B" transform="translate(66,87)"/>
<path d="M0 0 C0.33 0 0.66 0 1 0 C1.33 3.63 1.66 7.26 2 11 C2.66 11 3.32 11 4 11 C4 12.65 4 14.3 4 16 C2.68 16.33 1.36 16.66 0 17 C0 11.39 0 5.78 0 0 Z " fill="#091944" transform="translate(82,152)"/>
<path d="M0 0 C2.97 0.33 5.94 0.66 9 1 C8.67 1.66 8.34 2.32 8 3 C8.66 3.66 9.32 4.32 10 5 C7.03 4.67 4.06 4.34 1 4 C0.67 2.68 0.34 1.36 0 0 Z " fill="#122534" transform="translate(33,107)"/>
<path d="M0 0 C0.66 0 1.32 0 2 0 C0.78727634 6.42743539 0.78727634 6.42743539 -2.75 9 C-6.36639616 10.11273728 -8.39767463 10.08907511 -12 9 C-12.33 8.34 -12.66 7.68 -13 7 C-9.37 7 -5.74 7 -2 7 C-1.34 4.69 -0.68 2.38 0 0 Z " fill="#E8AD6D" transform="translate(64,172)"/>
<path d="M0 0 C0.99 0.33 1.98 0.66 3 1 C2.67 1.99 2.34 2.98 2 4 C2.38932856 6.14255793 2.38932856 6.14255793 3 8 C2.01 7.34 1.02 6.68 0 6 C-2.38677076 5.70547416 -4.78626094 5.5071783 -7.1875 5.375 C-9.09595703 5.26285156 -9.09595703 5.26285156 -11.04296875 5.1484375 C-12.01878906 5.09945312 -12.99460937 5.05046875 -14 5 C-14 4.67 -14 4.34 -14 4 C-7.565 3.505 -7.565 3.505 -1 3 C-0.67 2.01 -0.34 1.02 0 0 Z " fill="#172C3F" transform="translate(133,118)"/>
<path d="M0 0 C0.598125 0.350625 1.19625 0.70125 1.8125 1.0625 C1.8125 1.7225 1.8125 2.3825 1.8125 3.0625 C2.4725 3.3925 3.1325 3.7225 3.8125 4.0625 C3.8125 4.7225 3.8125 5.3825 3.8125 6.0625 C0.40937262 5.00374926 -2.20103231 4.05347846 -5.1875 2.0625 C-5.1875 1.4025 -5.1875 0.7425 -5.1875 0.0625 C-2.1875 -0.9375 -2.1875 -0.9375 0 0 Z " fill="#13293B" transform="translate(52.1875,101.9375)"/>
<path d="M0 0 C2.31 0 4.62 0 7 0 C7 0.33 7 0.66 7 1 C5.02 1.66 3.04 2.32 1 3 C0.67 5.31 0.34 7.62 0 10 C-0.99 10 -1.98 10 -3 10 C-4.2077558 6.37673261 -3.54311128 5.35853631 -2 2 C-1.34 2 -0.68 2 0 2 C0 1.34 0 0.68 0 0 Z " fill="#F6A348" transform="translate(53,63)"/>
<path d="M0 0 C0.99 0 1.98 0 3 0 C2.67 1.98 2.34 3.96 2 6 C1.34 6 0.68 6 0 6 C0 6.99 0 7.98 0 9 C-1.32 9.33 -2.64 9.66 -4 10 C-4.33 8.35 -4.66 6.7 -5 5 C-3.515 5.99 -3.515 5.99 -2 7 C-1.34 4.69 -0.68 2.38 0 0 Z " fill="#192C3D" transform="translate(91,84)"/>
<path d="M0 0 C6.625 0.75 6.625 0.75 10 3 C6.37 3.33 2.74 3.66 -1 4 C-0.67 2.68 -0.34 1.36 0 0 Z " fill="#253146" transform="translate(34,131)"/>
<path d="M0 0 C2.475 0.495 2.475 0.495 5 1 C5.66 2.98 6.32 4.96 7 7 C3.76509224 6.44225728 2.02144994 5.62788492 0 3 C0 2.01 0 1.02 0 0 Z " fill="#202F3C" transform="translate(41,75)"/>
<path d="M0 0 C0.66 0 1.32 0 2 0 C2.66 1.98 3.32 3.96 4 6 C4.66 6 5.32 6 6 6 C6 6.66 6 7.32 6 8 C8.31 8 10.62 8 13 8 C13 8.33 13 8.66 13 9 C5.25 9.125 5.25 9.125 3 8 C3 7.01 3 6.02 3 5 C2.01 5 1.02 5 0 5 C0 3.35 0 1.7 0 0 Z " fill="#C69C64" transform="translate(129,90)"/>
<path d="M0 0 C0.33 0 0.66 0 1 0 C1 1.98 1 3.96 1 6 C0.01 6 -0.98 6 -2 6 C-2.66 7.32 -3.32 8.64 -4 10 C-6.31 10 -8.62 10 -11 10 C-11 9.67 -11 9.34 -11 9 C-9.02 9 -7.04 9 -5 9 C-5 8.34 -5 7.68 -5 7 C-4.34 7 -3.68 7 -3 7 C-3 5.68 -3 4.36 -3 3 C-2.01 3 -1.02 3 0 3 C0 2.01 0 1.02 0 0 Z " fill="#B15758" transform="translate(39,89)"/>
<path d="M0 0 C0.99 0 1.98 0 3 0 C3.80967438 2.91482778 4.21845993 4.46113217 3.0625 7.3125 C2.5365625 8.1478125 2.5365625 8.1478125 2 9 C-1.07692308 4.56923077 -1.07692308 4.56923077 -0.6875 1.6875 C-0.460625 1.130625 -0.23375 0.57375 0 0 Z " fill="#C59C69" transform="translate(97,146)"/>
<path d="M0 0 C1.32 0 2.64 0 4 0 C4.33 1.32 4.66 2.64 5 4 C3.125 5.0625 3.125 5.0625 1 6 C0.34 5.67 -0.32 5.34 -1 5 C-0.67 3.35 -0.34 1.7 0 0 Z " fill="#1C333F" transform="translate(145,133)"/>
<path d="M0 0 C0.70125 0.495 1.4025 0.99 2.125 1.5 C5.45800237 3.23895776 7.29065683 3.47353317 11 3 C13.34261608 1.62073227 13.34261608 1.62073227 15 0 C13.125 3.875 13.125 3.875 12 5 C10.14712498 5.07226502 8.29166122 5.0838122 6.4375 5.0625 C5.42558594 5.05347656 4.41367188 5.04445312 3.37109375 5.03515625 C2.58863281 5.02355469 1.80617188 5.01195312 1 5 C0.67 3.35 0.34 1.7 0 0 Z " fill="#3B3C36" transform="translate(77,125)"/>
<path d="M0 0 C2 2 2 2 2.265625 4.53125 C2.25789063 6.00078125 2.25789063 6.00078125 2.25 7.5 C2.25515625 8.4796875 2.2603125 9.459375 2.265625 10.46875 C2 13 2 13 0 15 C-1.14229879 11.57310364 -0.90861076 9.38897782 -0.5625 5.8125 C-0.46066406 4.72582031 -0.35882813 3.63914062 -0.25390625 2.51953125 C-0.17011719 1.68808594 -0.08632812 0.85664062 0 0 Z " fill="#20374A" transform="translate(85,76)"/>
<path d="M0 0 C1.32 0.33 2.64 0.66 4 1 C3.67 1.99 3.34 2.98 3 4 C4.98 4 6.96 4 9 4 C9 4.33 9 4.66 9 5 C7.35 5.33 5.7 5.66 4 6 C4.66 6.66 5.32 7.32 6 8 C4.35 8.33 2.7 8.66 1 9 C1.33 6.69 1.66 4.38 2 2 C1.34 2 0.68 2 0 2 C0 1.34 0 0.68 0 0 Z " fill="#112738" transform="translate(112,115)"/>
<path d="M0 0 C0 0.99 0 1.98 0 3 C-4.455 3.495 -4.455 3.495 -9 4 C-9 3.01 -9 2.02 -9 1 C-5.846632 0.29925156 -3.27275026 0 0 0 Z " fill="#1D2F44" transform="translate(136,107)"/>
<path d="M0 0 C2.31 0.66 4.62 1.32 7 2 C6.34 3.65 5.68 5.3 5 7 C4.01 7 3.02 7 2 7 C1.34 4.69 0.68 2.38 0 0 Z " fill="#16324B" transform="translate(107,103)"/>
<path d="M0 0 C1.32 0.66 2.64 1.32 4 2 C3.67 4.31 3.34 6.62 3 9 C1.35 9.33 -0.3 9.66 -2 10 C-1.484375 9.46375 -0.96875 8.9275 -0.4375 8.375 C1.32605545 5.99503501 1.32605545 5.99503501 0.6875 2.75 C0.460625 1.8425 0.23375 0.935 0 0 Z " fill="#1E3346" transform="translate(88,173)"/>
<path d="M0 0 C1.32 1.65 2.64 3.3 4 5 C2.35 6.65 0.7 8.3 -1 10 C-1.5534764 7.92446352 -2 6.15634036 -2 4 C-1.34 4 -0.68 4 0 4 C0 2.68 0 1.36 0 0 Z " fill="#E7916C" transform="translate(107,160)"/>
<path d="M0 0 C0.33 0.99 0.66 1.98 1 3 C-1.55991624 5.01136276 -4.04590299 6.62845496 -7 8 C-7 7.01 -7 6.02 -7 5 C-5.1875 3.4375 -5.1875 3.4375 -3 2 C-2.01 1.34 -1.02 0.68 0 0 Z " fill="#1E3343" transform="translate(53,156)"/>
<path d="M0 0 C1.32 0 2.64 0 4 0 C4.33 1.32 4.66 2.64 5 4 C3.35 4.33 1.7 4.66 0 5 C-0.5625 3.0625 -0.5625 3.0625 -1 1 C-0.67 0.67 -0.34 0.34 0 0 Z " fill="#1B333E" transform="translate(145,104)"/>
<path d="M0 0 C0 3 0 3 -0.6875 4.8125 C-1.16104802 8.12733613 0.39114102 10.1684082 2 13 C0.68 12.67 -0.64 12.34 -2 12 C-2.24954005 10.56589632 -2.47392642 9.12739928 -2.6875 7.6875 C-2.81511719 6.88699219 -2.94273438 6.08648437 -3.07421875 5.26171875 C-3 3 -3 3 -1.51953125 1.20703125 C-1.01808594 0.80871094 -0.51664063 0.41039062 0 0 Z " fill="#F2A041" transform="translate(53,167)"/>
<path d="M0 0 C0.66 0 1.32 0 2 0 C3.31626692 3.61973402 4 6.09567131 4 10 C3.01 9.67 2.02 9.34 1 9 C0.67 6.03 0.34 3.06 0 0 Z " fill="#3AB5AF" transform="translate(129,147)"/>
<path d="M0 0 C1.32 0 2.64 0 4 0 C4.33 1.65 4.66 3.3 5 5 C3.35 5.33 1.7 5.66 0 6 C0 4.02 0 2.04 0 0 Z " fill="#1BCFC5" transform="translate(26,145)"/>
<path d="M0 0 C1.98 0.495 1.98 0.495 4 1 C4 2.32 4 3.64 4 5 C3.01 5.33 2.02 5.66 1 6 C0.34 5.67 -0.32 5.34 -1 5 C-0.67 3.35 -0.34 1.7 0 0 Z " fill="#0E2B3E" transform="translate(21,133)"/>
<path d="M0 0 C2.475 0.495 2.475 0.495 5 1 C5 2.32 5 3.64 5 5 C3.35 5 1.7 5 0 5 C0 3.35 0 1.7 0 0 Z " fill="#152736" transform="translate(20,104)"/>
<path d="M0 0 C1.23556641 0.01740234 1.23556641 0.01740234 2.49609375 0.03515625 C3.32238281 0.04417969 4.14867188 0.05320312 5 0.0625 C5.63808594 0.07410156 6.27617188 0.08570312 6.93359375 0.09765625 C6.2890625 0.38382812 5.64453125 0.67 4.98046875 0.96484375 C2.73475247 1.91184287 2.73475247 1.91184287 2.18359375 4.22265625 C2.10109375 4.84140625 2.01859375 5.46015625 1.93359375 6.09765625 C1.27359375 6.09765625 0.61359375 6.09765625 -0.06640625 6.09765625 C-0.39640625 5.10765625 -0.72640625 4.11765625 -1.06640625 3.09765625 C-1.72640625 2.43765625 -2.38640625 1.77765625 -3.06640625 1.09765625 C-2.06640625 0.09765625 -2.06640625 0.09765625 0 0 Z " fill="#132B3C" transform="translate(65.06640625,103.90234375)"/>
<path d="M0 0 C0 0.99 0 1.98 0 3 C-1.98 3.99 -3.96 4.98 -6 6 C-6 4.33333333 -6 2.66666667 -6 1 C-4 0 -4 0 0 0 Z " fill="#2E3A46" transform="translate(132,95)"/>
<path d="M0 0 C0.66 0.66 1.32 1.32 2 2 C2.99 2.33 3.98 2.66 5 3 C2.03 5.475 2.03 5.475 -1 8 C-1 7.01 -1 6.02 -1 5 C-1.66 4.67 -2.32 4.34 -3 4 C-2.01 2.68 -1.02 1.36 0 0 Z " fill="#374A58" transform="translate(62,143)"/>
<path d="M0 0 C0.66 0 1.32 0 2 0 C2 0.66 2 1.32 2 2 C3.98 1.34 5.96 0.68 8 0 C4.67692308 3.93846154 4.67692308 3.93846154 1.25 4.25 C0.5075 4.1675 -0.235 4.085 -1 4 C-1 1 -1 1 0 0 Z " fill="#2D3A47" transform="translate(63,95)"/>
<path d="M0 0 C1.65 0 3.3 0 5 0 C5.33 0.99 5.66 1.98 6 3 C5.67 3.66 5.34 4.32 5 5 C3.02 4.34 1.04 3.68 -1 3 C-0.67 2.01 -0.34 1.02 0 0 Z " fill="#342F40" transform="translate(37,95)"/>
<path d="M0 0 C0.680625 0.309375 1.36125 0.61875 2.0625 0.9375 C5.36965912 2.13370649 8.51545878 2.59005397 12 3 C12.33 4.32 12.66 5.64 13 7 C12.34 6.34 11.68 5.68 11 5 C8.69277968 4.69868391 6.41836729 4.62208455 4.09375 4.5390625 C2 4 2 4 0.71875 1.9609375 C0.4815625 1.31382813 0.244375 0.66671875 0 0 Z " fill="#EAA756" transform="translate(49,73)"/>
<path d="M0 0 C1.67542976 0.28604898 3.34385343 0.61781233 5 1 C3.71034824 2.37562854 2.37310707 3.70766393 1 5 C0.34 5 -0.32 5 -1 5 C-1.99 5.495 -1.99 5.495 -3 6 C-1.125 1.125 -1.125 1.125 0 0 Z " fill="#273A4E" transform="translate(53,153)"/>
<path d="M0 0 C1.65 0 3.3 0 5 0 C4.67 1.65 4.34 3.3 4 5 C2.68 4.67 1.36 4.34 0 4 C0 2.68 0 1.36 0 0 Z " fill="#23A4A4" transform="translate(67,132)"/>
<path d="M0 0 C2.56326494 1.28163247 2.82416059 2.42785129 4 5 C4.37125 5.7425 4.7425 6.485 5.125 7.25 C5.41375 7.8275 5.7025 8.405 6 9 C3.525 8.01 3.525 8.01 1 7 C0.67 4.69 0.34 2.38 0 0 Z " fill="#1A3140" transform="translate(77,62)"/>
<path d="M0 0 C1.32 0.33 2.64 0.66 4 1 C4 1.66 4 2.32 4 3 C0.52674819 4.1577506 -2.36067448 4.06866652 -6 4 C-3 2 -3 2 0 2 C0 1.34 0 0.68 0 0 Z " fill="#1E2E3F" transform="translate(119,111)"/>
<path d="M0 0 C0.99 0.33 1.98 0.66 3 1 C2.34 2.32 1.68 3.64 1 5 C-0.65 5 -2.3 5 -4 5 C-3 2 -3 2 0 0 Z " fill="#1A3244" transform="translate(124,97)"/>
<path d="M0 0 C0.66 0 1.32 0 2 0 C2.66 2.31 3.32 4.62 4 7 C3.01 7.33 2.02 7.66 1 8 C-0.35439668 5.29120665 -0.06501451 2.99066732 0 0 Z " fill="#142D42" transform="translate(74,78)"/>
<path d="M0 0 C3.3 0 6.6 0 10 0 C9.67 0.66 9.34 1.32 9 2 C6.69 2 4.38 2 2 2 C1.67 2.66 1.34 3.32 1 4 C0.67 2.68 0.34 1.36 0 0 Z " fill="#1FCEC0" transform="translate(133,155)"/>
<path d="M0 0 C2.475 0.99 2.475 0.99 5 2 C5 4.97 5 7.94 5 11 C4.01 11.495 4.01 11.495 3 12 C3.061875 10.948125 3.12375 9.89625 3.1875 8.8125 C2.9922214 4.84183507 2.29674932 3.15803031 0 0 Z " fill="#4A3F32" transform="translate(89,113)"/>
<path d="M0 0 C1.2380014 3.57644848 0.74926071 6.33694766 0 10 C-0.66 9.67 -1.32 9.34 -2 9 C-2.25 3.375 -2.25 3.375 0 0 Z " fill="#3FB4AC" transform="translate(25,145)"/>
<path d="M0 0 C6.4 -0.36923077 6.4 -0.36923077 9.4375 1.5 C9.953125 1.995 10.46875 2.49 11 3 C10.67 3.66 10.34 4.32 10 5 C9.484375 4.505 8.96875 4.01 8.4375 3.5 C5.19319983 1.50350759 2.73782666 1.78435615 -1 2 C-0.67 1.34 -0.34 0.68 0 0 Z " fill="#C36966" transform="translate(28,83)"/>
<path d="M0 0 C1.32 0.33 2.64 0.66 4 1 C3.34 1.66 2.68 2.32 2 3 C1.75787127 4.98128508 1.75787127 4.98128508 1.875 7.125 C1.91625 8.40375 1.9575 9.6825 2 11 C1.34 10.67 0.68 10.34 0 10 C0 6.7 0 3.4 0 0 Z " fill="#353331" transform="translate(75,114)"/>
<path d="M0 0 C0.66 0.33 1.32 0.66 2 1 C1.67 3.31 1.34 5.62 1 8 C0.34 7.67 -0.32 7.34 -1 7 C-0.67 4.69 -0.34 2.38 0 0 Z " fill="#192D3C" transform="translate(72,162)"/>
<path d="M0 0 C1.32 0 2.64 0 4 0 C3.67 1.32 3.34 2.64 3 4 C1.68 3.67 0.36 3.34 -1 3 C-0.67 2.01 -0.34 1.02 0 0 Z " fill="#32B2AF" transform="translate(98,132)"/>
<path d="M0 0 C2.475 0.495 2.475 0.495 5 1 C4.67 1.99 4.34 2.98 4 4 C2.68 3.67 1.36 3.34 0 3 C0 2.01 0 1.02 0 0 Z " fill="#C79460" transform="translate(97,106)"/>
<path d="" fill="#FFFFFF" transform="translate(0,0)"/>
<path d="" fill="#FFFFFF" transform="translate(0,0)"/>
<path d="" fill="#FFFFFF" transform="translate(0,0)"/>
<path d="" fill="#FFFFFF" transform="translate(0,0)"/>
<path d="" fill="#FFFFFF" transform="translate(0,0)"/>
<path d="" fill="#FFFFFF" transform="translate(0,0)"/>
<path d="" fill="#FFFFFF" transform="translate(0,0)"/>
<path d="" fill="#FFFFFF" transform="translate(0,0)"/>
<path d="" fill="#FFFFFF" transform="translate(0,0)"/>
<path d="" fill="#FFFFFF" transform="translate(0,0)"/>
<path d="" fill="#FFFFFF" transform="translate(0,0)"/>
<path d="" fill="#FFFFFF" transform="translate(0,0)"/>
<path d="" fill="#FFFFFF" transform="translate(0,0)"/>
<path d="" fill="#FFFFFF" transform="translate(0,0)"/>
<path d="" fill="#FFFFFF" transform="translate(0,0)"/>
<path d="" fill="#FFFFFF" transform="translate(0,0)"/>
<path d="" fill="#FFFFFF" transform="translate(0,0)"/>
<path d="" fill="#FFFFFF" transform="translate(0,0)"/>
<path d="" fill="#00FFFF" transform="translate(0,0)"/>
<path d="" fill="#FFFFFF" transform="translate(0,0)"/>
<path d="" fill="#FFFFFF" transform="translate(0,0)"/>
<path d="" fill="#FFFFFF" transform="translate(0,0)"/>
<path d="" fill="#FFFFFF" transform="translate(0,0)"/>
<path d="" fill="#FFFFFF" transform="translate(0,0)"/>
<path d="" fill="#FFFFFF" transform="translate(0,0)"/>
<path d="" fill="#FFFFFF" transform="translate(0,0)"/>
<path d="" fill="#FFFFFF" transform="translate(0,0)"/>
<path d="" fill="#FFFFFF" transform="translate(0,0)"/>
<path d="" fill="#FFFFFF" transform="translate(0,0)"/>
<path d="" fill="#FFFFFF" transform="translate(0,0)"/>
<path d="" fill="#FFFFFF" transform="translate(0,0)"/>
<path d="" fill="#FFFFFF" transform="translate(0,0)"/>
<path d="" fill="#FFFFFF" transform="translate(0,0)"/>
<path d="" fill="#FFFFFF" transform="translate(0,0)"/>
<path d="" fill="#FFFFFF" transform="translate(0,0)"/>
<path d="" fill="#FFFFFF" transform="translate(0,0)"/>
<path d="" fill="#FFFFFF" transform="translate(0,0)"/>
<path d="" fill="#FFFFFF" transform="translate(0,0)"/>
<path d="" fill="#FFFFFF" transform="translate(0,0)"/>
<path d="" fill="#FFFFFF" transform="translate(0,0)"/>
<path d="" fill="#FFFFFF" transform="translate(0,0)"/>
<path d="" fill="#FFFFFF" transform="translate(0,0)"/>
<path d="" fill="#FFFFFF" transform="translate(0,0)"/>
<path d="" fill="#FFFFFF" transform="translate(0,0)"/>
<path d="" fill="#FFFFFF" transform="translate(0,0)"/>
<path d="" fill="#FFFFFF" transform="translate(0,0)"/>
<path d="" fill="#FFFFFF" transform="translate(0,0)"/>
<path d="" fill="#FFFFFF" transform="translate(0,0)"/>
<path d="" fill="#FFFFFF" transform="translate(0,0)"/>
<path d="" fill="#FFFFFF" transform="translate(0,0)"/>
<path d="" fill="#FFFFFF" transform="translate(0,0)"/>
<path d="" fill="#FFFFFF" transform="translate(0,0)"/>
<path d="" fill="#FFFFFF" transform="translate(0,0)"/>
<path d="" fill="#FFFFFF" transform="translate(0,0)"/>
<path d="" fill="#FFFFFF" transform="translate(0,0)"/>
<path d="" fill="#FFFFFF" transform="translate(0,0)"/>
<path d="" fill="#FFFFFF" transform="translate(0,0)"/>
<path d="" fill="#FFFFFF" transform="translate(0,0)"/>
<path d="" fill="#FFFFFF" transform="translate(0,0)"/>
<path d="" fill="#FFFFFF" transform="translate(0,0)"/>
<path d="" fill="#FFFFFF" transform="translate(0,0)"/>
<path d="" fill="#FFFFFF" transform="translate(0,0)"/>
<path d="" fill="#FFFFFF" transform="translate(0,0)"/>
<path d="" fill="#FFFFFF" transform="translate(0,0)"/>
<path d="" fill="#FFFFFF" transform="translate(0,0)"/>
</svg>
