<svg xmlns="http://www.w3.org/2000/svg" xmlns:xlink="http://www.w3.org/1999/xlink" width="100" zoomAndPan="magnify" viewBox="0 0 75 74.999997" height="100" preserveAspectRatio="xMidYMid meet" version="1.0"><defs><g/><clipPath id="1089e14ef0"><path d="M 44.039062 33.179688 L 52.289062 33.179688 L 52.289062 42 L 44.039062 42 Z M 44.039062 33.179688 " clip-rule="nonzero"/></clipPath></defs><g fill="#000000" fill-opacity="1"><g transform="translate(3.910502, 40.93958)"><g><path d="M 7.96875 -6.078125 C 8.625 -5.367188 8.953125 -4.5 8.953125 -3.46875 C 8.953125 -2.4375 8.625 -1.566406 7.96875 -0.859375 C 7.320312 -0.148438 6.5 0.203125 5.5 0.203125 C 4.570312 0.203125 3.8125 -0.125 3.21875 -0.78125 L 3.1875 -0.78125 L 3.1875 0 L 0.8125 0 L 0.8125 -11.65625 L 3.21875 -11.65625 L 3.21875 -6.296875 C 3.8125 -6.867188 4.570312 -7.15625 5.5 -7.15625 C 6.5 -7.15625 7.320312 -6.796875 7.96875 -6.078125 Z M 5.953125 -2.296875 C 6.253906 -2.597656 6.40625 -2.988281 6.40625 -3.46875 C 6.40625 -3.945312 6.25 -4.335938 5.9375 -4.640625 C 5.625 -4.953125 5.238281 -5.109375 4.78125 -5.109375 C 4.320312 -5.109375 3.9375 -4.953125 3.625 -4.640625 C 3.3125 -4.335938 3.15625 -3.945312 3.15625 -3.46875 C 3.15625 -3 3.304688 -2.609375 3.609375 -2.296875 C 3.910156 -1.992188 4.300781 -1.84375 4.78125 -1.84375 C 5.257812 -1.84375 5.648438 -1.992188 5.953125 -2.296875 Z M 5.953125 -2.296875 "/></g></g></g><g fill="#000000" fill-opacity="1"><g transform="translate(12.111023, 40.93958)"><g><path d="M 0.8125 0 L 0.8125 -6.953125 L 3.21875 -6.953125 L 3.21875 -5.953125 L 3.234375 -5.953125 C 3.253906 -5.992188 3.285156 -6.039062 3.328125 -6.09375 C 3.367188 -6.144531 3.457031 -6.238281 3.59375 -6.375 C 3.726562 -6.507812 3.875 -6.628906 4.03125 -6.734375 C 4.1875 -6.847656 4.382812 -6.945312 4.625 -7.03125 C 4.863281 -7.113281 5.113281 -7.15625 5.375 -7.15625 C 5.632812 -7.15625 5.890625 -7.117188 6.140625 -7.046875 C 6.398438 -6.972656 6.585938 -6.898438 6.703125 -6.828125 L 6.890625 -6.734375 L 5.890625 -4.6875 C 5.585938 -4.945312 5.171875 -5.078125 4.640625 -5.078125 C 4.347656 -5.078125 4.097656 -5.007812 3.890625 -4.875 C 3.679688 -4.75 3.535156 -4.597656 3.453125 -4.421875 C 3.367188 -4.242188 3.304688 -4.085938 3.265625 -3.953125 C 3.234375 -3.828125 3.21875 -3.726562 3.21875 -3.65625 L 3.21875 0 Z M 0.8125 0 "/></g></g></g><g fill="#000000" fill-opacity="1"><g transform="translate(17.80391, 40.93958)"><g><path d="M 3.078125 -6.953125 L 3.078125 -3.640625 C 3.078125 -2.960938 3.179688 -2.476562 3.390625 -2.1875 C 3.597656 -1.894531 3.945312 -1.75 4.4375 -1.75 C 4.9375 -1.75 5.289062 -1.894531 5.5 -2.1875 C 5.707031 -2.476562 5.8125 -2.960938 5.8125 -3.640625 L 5.8125 -6.953125 L 8.21875 -6.953125 L 8.21875 -3.0625 C 8.21875 -1.90625 7.914062 -1.070312 7.3125 -0.5625 C 6.71875 -0.0507812 5.765625 0.203125 4.453125 0.203125 C 3.140625 0.203125 2.179688 -0.0507812 1.578125 -0.5625 C 0.972656 -1.070312 0.671875 -1.90625 0.671875 -3.0625 L 0.671875 -6.953125 Z M 3.078125 -6.953125 "/></g></g></g><g fill="#000000" fill-opacity="1"><g transform="translate(25.638451, 40.93958)"><g><path d="M 1.21875 -6.953125 L 1.21875 -9.546875 L 3.625 -9.546875 L 3.625 -6.953125 L 5.078125 -6.953125 L 5.078125 -5.125 L 3.625 -5.125 L 3.625 -2.921875 C 3.625 -2.273438 3.800781 -1.953125 4.15625 -1.953125 C 4.25 -1.953125 4.34375 -1.96875 4.4375 -2 C 4.539062 -2.039062 4.617188 -2.078125 4.671875 -2.109375 L 4.765625 -2.171875 L 5.359375 -0.234375 C 4.835938 0.0546875 4.25 0.203125 3.59375 0.203125 C 3.144531 0.203125 2.753906 0.125 2.421875 -0.03125 C 2.097656 -0.1875 1.851562 -0.398438 1.6875 -0.671875 C 1.519531 -0.941406 1.398438 -1.222656 1.328125 -1.515625 C 1.253906 -1.804688 1.21875 -2.117188 1.21875 -2.453125 L 1.21875 -5.125 L 0.21875 -5.125 L 0.21875 -6.953125 Z M 1.21875 -6.953125 "/></g></g></g><g fill="#000000" fill-opacity="1"><g transform="translate(29.935193, 40.93958)"><g><path d="M 7.859375 -3.140625 L 2.8125 -3.140625 C 2.8125 -2.660156 2.96875 -2.300781 3.28125 -2.0625 C 3.59375 -1.820312 3.9375 -1.703125 4.3125 -1.703125 C 4.695312 -1.703125 5.003906 -1.753906 5.234375 -1.859375 C 5.460938 -1.960938 5.722656 -2.171875 6.015625 -2.484375 L 7.75 -1.609375 C 7.019531 -0.398438 5.816406 0.203125 4.140625 0.203125 C 3.085938 0.203125 2.1875 -0.15625 1.4375 -0.875 C 0.6875 -1.59375 0.3125 -2.457031 0.3125 -3.46875 C 0.3125 -4.476562 0.6875 -5.34375 1.4375 -6.0625 C 2.1875 -6.789062 3.085938 -7.15625 4.140625 -7.15625 C 5.242188 -7.15625 6.140625 -6.835938 6.828125 -6.203125 C 7.515625 -5.566406 7.859375 -4.65625 7.859375 -3.46875 C 7.859375 -3.3125 7.859375 -3.203125 7.859375 -3.140625 Z M 2.875 -4.46875 L 5.515625 -4.46875 C 5.460938 -4.832031 5.320312 -5.109375 5.09375 -5.296875 C 4.863281 -5.492188 4.566406 -5.59375 4.203125 -5.59375 C 3.804688 -5.59375 3.488281 -5.488281 3.25 -5.28125 C 3.019531 -5.082031 2.894531 -4.8125 2.875 -4.46875 Z M 2.875 -4.46875 "/></g></g></g><g fill="#000000" fill-opacity="1"><g transform="translate(37.051334, 40.93958)"><g/></g></g><g fill="#000000" fill-opacity="1"><g transform="translate(39.694394, 40.93958)"><g><path d="M 1.21875 -6.953125 L 1.21875 -8.4375 C 1.226562 -9.476562 1.472656 -10.304688 1.953125 -10.921875 C 2.429688 -11.546875 3.097656 -11.859375 3.953125 -11.859375 C 4.304688 -11.859375 4.648438 -11.804688 4.984375 -11.703125 C 5.316406 -11.609375 5.554688 -11.503906 5.703125 -11.390625 L 5.921875 -11.25 L 5.078125 -9.546875 C 4.867188 -9.671875 4.628906 -9.734375 4.359375 -9.734375 C 4.066406 -9.734375 3.867188 -9.628906 3.765625 -9.421875 C 3.671875 -9.222656 3.625 -8.875 3.625 -8.375 L 3.625 -6.953125 L 5.21875 -6.953125 L 5.21875 -5.125 L 3.625 -5.125 L 3.625 0 L 1.21875 0 L 1.21875 -5.125 L 0.21875 -5.125 L 0.21875 -6.953125 Z M 1.21875 -6.953125 "/></g></g></g><g fill="#000000" fill-opacity="1"><g transform="translate(43.720044, 40.93958)"><g><path d="M 1.46875 -0.828125 C 0.695312 -1.515625 0.3125 -2.394531 0.3125 -3.46875 C 0.3125 -4.539062 0.710938 -5.421875 1.515625 -6.109375 C 2.316406 -6.804688 3.3125 -7.15625 4.5 -7.15625 C 5.664062 -7.15625 6.648438 -6.804688 7.453125 -6.109375 C 8.253906 -5.421875 8.65625 -4.539062 8.65625 -3.46875 C 8.65625 -2.40625 8.265625 -1.523438 7.484375 -0.828125 C 6.703125 -0.140625 5.707031 0.203125 4.5 0.203125 C 3.25 0.203125 2.238281 -0.140625 1.46875 -0.828125 Z M 3.328125 -4.640625 C 3.015625 -4.335938 2.859375 -3.945312 2.859375 -3.46875 C 2.859375 -2.988281 3.003906 -2.597656 3.296875 -2.296875 C 3.597656 -1.992188 3.992188 -1.84375 4.484375 -1.84375 C 4.953125 -1.84375 5.335938 -1.992188 5.640625 -2.296875 C 5.953125 -2.609375 6.109375 -3 6.109375 -3.46875 C 6.109375 -3.945312 5.953125 -4.335938 5.640625 -4.640625 C 5.328125 -4.953125 4.941406 -5.109375 4.484375 -5.109375 C 4.023438 -5.109375 3.640625 -4.953125 3.328125 -4.640625 Z M 3.328125 -4.640625 "/></g></g></g><g fill="#000000" fill-opacity="1"><g transform="translate(51.622359, 40.93958)"><g><path d="M 0.8125 0 L 0.8125 -6.953125 L 3.21875 -6.953125 L 3.21875 -5.953125 L 3.234375 -5.953125 C 3.253906 -5.992188 3.285156 -6.039062 3.328125 -6.09375 C 3.367188 -6.144531 3.457031 -6.238281 3.59375 -6.375 C 3.726562 -6.507812 3.875 -6.628906 4.03125 -6.734375 C 4.1875 -6.847656 4.382812 -6.945312 4.625 -7.03125 C 4.863281 -7.113281 5.113281 -7.15625 5.375 -7.15625 C 5.632812 -7.15625 5.890625 -7.117188 6.140625 -7.046875 C 6.398438 -6.972656 6.585938 -6.898438 6.703125 -6.828125 L 6.890625 -6.734375 L 5.890625 -4.6875 C 5.585938 -4.945312 5.171875 -5.078125 4.640625 -5.078125 C 4.347656 -5.078125 4.097656 -5.007812 3.890625 -4.875 C 3.679688 -4.75 3.535156 -4.597656 3.453125 -4.421875 C 3.367188 -4.242188 3.304688 -4.085938 3.265625 -3.953125 C 3.234375 -3.828125 3.21875 -3.726562 3.21875 -3.65625 L 3.21875 0 Z M 0.8125 0 "/></g></g></g><g fill="#000000" fill-opacity="1"><g transform="translate(57.315247, 40.93958)"><g><path d="M 4.515625 -5.1875 C 4.066406 -5.1875 3.675781 -5.019531 3.34375 -4.6875 C 3.019531 -4.351562 2.859375 -3.953125 2.859375 -3.484375 C 2.859375 -3.003906 3.019531 -2.597656 3.34375 -2.265625 C 3.675781 -1.929688 4.066406 -1.765625 4.515625 -1.765625 C 4.734375 -1.765625 4.9375 -1.789062 5.125 -1.84375 C 5.320312 -1.894531 5.46875 -1.945312 5.5625 -2 L 5.6875 -2.09375 L 6.5 -0.421875 C 6.4375 -0.378906 6.347656 -0.320312 6.234375 -0.25 C 6.117188 -0.1875 5.859375 -0.0976562 5.453125 0.015625 C 5.054688 0.140625 4.625 0.203125 4.15625 0.203125 C 3.132812 0.203125 2.238281 -0.15625 1.46875 -0.875 C 0.695312 -1.59375 0.3125 -2.453125 0.3125 -3.453125 C 0.3125 -4.472656 0.695312 -5.34375 1.46875 -6.0625 C 2.238281 -6.789062 3.132812 -7.15625 4.15625 -7.15625 C 4.625 -7.15625 5.050781 -7.097656 5.4375 -6.984375 C 5.820312 -6.878906 6.097656 -6.773438 6.265625 -6.671875 L 6.5 -6.515625 L 5.6875 -4.875 C 5.382812 -5.082031 4.992188 -5.1875 4.515625 -5.1875 Z M 4.515625 -5.1875 "/></g></g></g><g fill="#000000" fill-opacity="1"><g transform="translate(62.91325, 40.93958)"><g><path d="M 7.859375 -3.140625 L 2.8125 -3.140625 C 2.8125 -2.660156 2.96875 -2.300781 3.28125 -2.0625 C 3.59375 -1.820312 3.9375 -1.703125 4.3125 -1.703125 C 4.695312 -1.703125 5.003906 -1.753906 5.234375 -1.859375 C 5.460938 -1.960938 5.722656 -2.171875 6.015625 -2.484375 L 7.75 -1.609375 C 7.019531 -0.398438 5.816406 0.203125 4.140625 0.203125 C 3.085938 0.203125 2.1875 -0.15625 1.4375 -0.875 C 0.6875 -1.59375 0.3125 -2.457031 0.3125 -3.46875 C 0.3125 -4.476562 0.6875 -5.34375 1.4375 -6.0625 C 2.1875 -6.789062 3.085938 -7.15625 4.140625 -7.15625 C 5.242188 -7.15625 6.140625 -6.835938 6.828125 -6.203125 C 7.515625 -5.566406 7.859375 -4.65625 7.859375 -3.46875 C 7.859375 -3.3125 7.859375 -3.203125 7.859375 -3.140625 Z M 2.875 -4.46875 L 5.515625 -4.46875 C 5.460938 -4.832031 5.320312 -5.109375 5.09375 -5.296875 C 4.863281 -5.492188 4.566406 -5.59375 4.203125 -5.59375 C 3.804688 -5.59375 3.488281 -5.488281 3.25 -5.28125 C 3.019531 -5.082031 2.894531 -4.8125 2.875 -4.46875 Z M 2.875 -4.46875 "/></g></g></g><g clip-path="url(#1089e14ef0)"><path fill="#ffffff" d="M 52.449219 37.429688 L 51.210938 37.429688 C 49.085938 36.972656 48.613281 36.496094 48.15625 34.371094 L 48.15625 33.179688 L 48 33.179688 L 48 34.382812 C 47.539062 36.5 47.066406 36.972656 44.945312 37.429688 L 44.042969 37.429688 L 44.042969 37.585938 L 44.945312 37.585938 C 47.066406 38.046875 47.539062 38.519531 48 40.632812 L 48 41.816406 L 48.15625 41.816406 L 48.15625 40.644531 C 48.613281 38.519531 49.085938 38.046875 51.210938 37.585938 L 52.449219 37.585938 Z M 52.449219 37.429688 " fill-opacity="1" fill-rule="nonzero"/></g><g fill="#000000" fill-opacity="1"><g transform="translate(50.06649, 44.711945)"><g><path d="M 0.734375 0.015625 C 0.640625 0.015625 0.550781 0 0.46875 -0.03125 C 0.394531 -0.0625 0.328125 -0.101562 0.265625 -0.15625 C 0.210938 -0.21875 0.171875 -0.289062 0.140625 -0.375 C 0.109375 -0.457031 0.09375 -0.539062 0.09375 -0.625 C 0.09375 -0.71875 0.109375 -0.804688 0.140625 -0.890625 C 0.179688 -0.972656 0.226562 -1.039062 0.28125 -1.09375 C 0.34375 -1.15625 0.410156 -1.203125 0.484375 -1.234375 C 0.566406 -1.273438 0.648438 -1.296875 0.734375 -1.296875 C 0.828125 -1.296875 0.914062 -1.273438 1 -1.234375 C 1.082031 -1.191406 1.15625 -1.140625 1.21875 -1.078125 L 1.109375 -0.984375 C 1.054688 -1.046875 1 -1.09375 0.9375 -1.125 C 0.875 -1.15625 0.804688 -1.171875 0.734375 -1.171875 C 0.660156 -1.171875 0.59375 -1.15625 0.53125 -1.125 C 0.46875 -1.101562 0.414062 -1.066406 0.375 -1.015625 C 0.332031 -0.972656 0.296875 -0.914062 0.265625 -0.84375 C 0.242188 -0.78125 0.234375 -0.710938 0.234375 -0.640625 C 0.234375 -0.566406 0.242188 -0.492188 0.265625 -0.421875 C 0.296875 -0.359375 0.332031 -0.300781 0.375 -0.25 C 0.425781 -0.207031 0.476562 -0.171875 0.53125 -0.140625 C 0.59375 -0.117188 0.660156 -0.109375 0.734375 -0.109375 C 0.816406 -0.109375 0.890625 -0.125 0.953125 -0.15625 C 1.015625 -0.1875 1.070312 -0.226562 1.125 -0.28125 L 1.21875 -0.203125 C 1.15625 -0.128906 1.082031 -0.0703125 1 -0.03125 C 0.914062 0 0.828125 0.015625 0.734375 0.015625 Z M 0.734375 0.015625 "/></g></g></g><g fill="#000000" fill-opacity="1"><g transform="translate(51.935336, 44.711945)"><g><path d="M 0.421875 -0.5 L 0.03125 -1.28125 L 0.1875 -1.28125 L 0.5 -0.640625 L 0.828125 -1.28125 L 0.96875 -1.28125 L 0.5625 -0.5 L 0.5625 0 L 0.421875 0 Z M 0.421875 -0.5 "/></g></g></g><g fill="#000000" fill-opacity="1"><g transform="translate(53.509206, 44.711945)"><g><path d="M 0.171875 -1.28125 L 0.453125 -1.28125 C 0.515625 -1.28125 0.566406 -1.269531 0.609375 -1.25 C 0.660156 -1.238281 0.703125 -1.21875 0.734375 -1.1875 C 0.773438 -1.15625 0.804688 -1.117188 0.828125 -1.078125 C 0.847656 -1.035156 0.859375 -0.988281 0.859375 -0.9375 C 0.859375 -0.882812 0.84375 -0.832031 0.8125 -0.78125 C 0.789062 -0.738281 0.75 -0.703125 0.6875 -0.671875 C 0.757812 -0.648438 0.816406 -0.609375 0.859375 -0.546875 C 0.910156 -0.492188 0.9375 -0.429688 0.9375 -0.359375 C 0.9375 -0.304688 0.925781 -0.257812 0.90625 -0.21875 C 0.882812 -0.175781 0.851562 -0.132812 0.8125 -0.09375 C 0.769531 -0.0625 0.722656 -0.0351562 0.671875 -0.015625 C 0.617188 -0.00390625 0.5625 0 0.5 0 L 0.171875 0 Z M 0.5 -0.125 C 0.59375 -0.125 0.664062 -0.144531 0.71875 -0.1875 C 0.769531 -0.226562 0.796875 -0.285156 0.796875 -0.359375 C 0.796875 -0.429688 0.769531 -0.488281 0.71875 -0.53125 C 0.664062 -0.582031 0.59375 -0.609375 0.5 -0.609375 L 0.3125 -0.609375 L 0.3125 -0.125 Z M 0.453125 -0.71875 C 0.535156 -0.71875 0.601562 -0.738281 0.65625 -0.78125 C 0.707031 -0.820312 0.734375 -0.875 0.734375 -0.9375 C 0.734375 -1 0.707031 -1.050781 0.65625 -1.09375 C 0.601562 -1.132812 0.535156 -1.15625 0.453125 -1.15625 L 0.3125 -1.15625 L 0.3125 -0.71875 Z M 0.453125 -0.71875 "/></g></g></g><g fill="#000000" fill-opacity="1"><g transform="translate(55.126847, 44.711945)"><g><path d="M 0.171875 -1.28125 L 0.828125 -1.28125 L 0.828125 -1.15625 L 0.3125 -1.15625 L 0.3125 -0.71875 L 0.703125 -0.71875 L 0.703125 -0.59375 L 0.3125 -0.59375 L 0.3125 -0.125 L 0.84375 -0.125 L 0.84375 0 L 0.171875 0 Z M 0.171875 -1.28125 "/></g></g></g><g fill="#000000" fill-opacity="1"><g transform="translate(56.649333, 44.711945)"><g><path d="M 0.171875 -1.28125 L 0.46875 -1.28125 C 0.539062 -1.28125 0.601562 -1.269531 0.65625 -1.25 C 0.707031 -1.226562 0.75 -1.203125 0.78125 -1.171875 C 0.820312 -1.140625 0.851562 -1.097656 0.875 -1.046875 C 0.90625 -1.003906 0.921875 -0.957031 0.921875 -0.90625 C 0.921875 -0.851562 0.910156 -0.804688 0.890625 -0.765625 C 0.878906 -0.734375 0.859375 -0.703125 0.828125 -0.671875 C 0.804688 -0.640625 0.773438 -0.613281 0.734375 -0.59375 C 0.703125 -0.570312 0.664062 -0.554688 0.625 -0.546875 L 0.984375 0 L 0.828125 0 L 0.46875 -0.53125 L 0.3125 -0.53125 L 0.3125 0 L 0.171875 0 Z M 0.46875 -0.65625 C 0.5625 -0.65625 0.632812 -0.675781 0.6875 -0.71875 C 0.75 -0.757812 0.78125 -0.820312 0.78125 -0.90625 C 0.78125 -0.976562 0.75 -1.035156 0.6875 -1.078125 C 0.632812 -1.128906 0.5625 -1.15625 0.46875 -1.15625 L 0.3125 -1.15625 L 0.3125 -0.65625 Z M 0.46875 -0.65625 "/></g></g></g><g fill="#000000" fill-opacity="1"><g transform="translate(58.286004, 44.711945)"><g><path d="M 0.484375 0.015625 C 0.390625 0.015625 0.304688 -0.00390625 0.234375 -0.046875 C 0.160156 -0.0859375 0.101562 -0.144531 0.0625 -0.21875 L 0.15625 -0.3125 C 0.25 -0.175781 0.359375 -0.109375 0.484375 -0.109375 C 0.554688 -0.109375 0.613281 -0.125 0.65625 -0.15625 C 0.707031 -0.195312 0.734375 -0.253906 0.734375 -0.328125 C 0.734375 -0.378906 0.710938 -0.425781 0.671875 -0.46875 C 0.628906 -0.519531 0.5625 -0.5625 0.46875 -0.59375 C 0.351562 -0.632812 0.269531 -0.6875 0.21875 -0.75 C 0.164062 -0.8125 0.140625 -0.882812 0.140625 -0.96875 C 0.140625 -1.007812 0.144531 -1.050781 0.15625 -1.09375 C 0.175781 -1.132812 0.203125 -1.171875 0.234375 -1.203125 C 0.265625 -1.234375 0.300781 -1.253906 0.34375 -1.265625 C 0.382812 -1.285156 0.429688 -1.296875 0.484375 -1.296875 C 0.628906 -1.296875 0.75 -1.234375 0.84375 -1.109375 L 0.75 -1.015625 C 0.707031 -1.066406 0.664062 -1.101562 0.625 -1.125 C 0.582031 -1.15625 0.535156 -1.171875 0.484375 -1.171875 C 0.421875 -1.171875 0.367188 -1.148438 0.328125 -1.109375 C 0.296875 -1.078125 0.28125 -1.03125 0.28125 -0.96875 C 0.28125 -0.914062 0.296875 -0.867188 0.328125 -0.828125 C 0.367188 -0.785156 0.4375 -0.75 0.53125 -0.71875 C 0.644531 -0.675781 0.726562 -0.625 0.78125 -0.5625 C 0.832031 -0.5 0.859375 -0.425781 0.859375 -0.34375 C 0.859375 -0.289062 0.847656 -0.238281 0.828125 -0.1875 C 0.816406 -0.144531 0.789062 -0.109375 0.75 -0.078125 C 0.71875 -0.046875 0.675781 -0.0195312 0.625 0 C 0.582031 0.0078125 0.535156 0.015625 0.484375 0.015625 Z M 0.484375 0.015625 "/></g></g></g><g fill="#000000" fill-opacity="1"><g transform="translate(59.8142, 44.711945)"><g><path d="M 0.171875 -1.28125 L 0.828125 -1.28125 L 0.828125 -1.15625 L 0.3125 -1.15625 L 0.3125 -0.71875 L 0.703125 -0.71875 L 0.703125 -0.59375 L 0.3125 -0.59375 L 0.3125 -0.125 L 0.84375 -0.125 L 0.84375 0 L 0.171875 0 Z M 0.171875 -1.28125 "/></g></g></g><g fill="#000000" fill-opacity="1"><g transform="translate(61.336685, 44.711945)"><g><path d="M 0.296875 -1 L 0.296875 0 L 0.171875 0 L 0.171875 -1.3125 L 0.203125 -1.3125 L 1.078125 -0.28125 L 1.078125 -1.28125 L 1.203125 -1.28125 L 1.203125 0.03125 L 1.15625 0.03125 Z M 0.296875 -1 "/></g></g></g><g fill="#000000" fill-opacity="1"><g transform="translate(63.277849, 44.711945)"><g><path d="M 0.46875 -1.15625 L 0.0625 -1.15625 L 0.0625 -1.28125 L 1.03125 -1.28125 L 1.03125 -1.15625 L 0.609375 -1.15625 L 0.609375 0 L 0.46875 0 Z M 0.46875 -1.15625 "/></g></g></g><g fill="#000000" fill-opacity="1"><g transform="translate(64.933552, 44.711945)"><g><path d="M 0.171875 -1.28125 L 0.3125 -1.28125 L 0.3125 0 L 0.171875 0 Z M 0.171875 -1.28125 "/></g></g></g><g fill="#000000" fill-opacity="1"><g transform="translate(65.980269, 44.711945)"><g><path d="M 0.296875 -1 L 0.296875 0 L 0.171875 0 L 0.171875 -1.3125 L 0.203125 -1.3125 L 1.078125 -0.28125 L 1.078125 -1.28125 L 1.203125 -1.28125 L 1.203125 0.03125 L 1.15625 0.03125 Z M 0.296875 -1 "/></g></g></g><g fill="#000000" fill-opacity="1"><g transform="translate(67.921433, 44.711945)"><g><path d="M 0.171875 -1.28125 L 0.828125 -1.28125 L 0.828125 -1.15625 L 0.3125 -1.15625 L 0.3125 -0.71875 L 0.703125 -0.71875 L 0.703125 -0.59375 L 0.3125 -0.59375 L 0.3125 -0.125 L 0.84375 -0.125 L 0.84375 0 L 0.171875 0 Z M 0.171875 -1.28125 "/></g></g></g><g fill="#000000" fill-opacity="1"><g transform="translate(69.44392, 44.711945)"><g><path d="M 0.171875 -1.28125 L 0.3125 -1.28125 L 0.3125 -0.125 L 0.8125 -0.125 L 0.8125 0 L 0.171875 0 Z M 0.171875 -1.28125 "/></g></g></g></svg>